SplineFontDB: 3.0
FontName: KAN-BadamiBold
FullName: KAN Badami Bold
FamilyName: KAN Badami
Weight: Bold
Copyright: Copyright (c) 2009-2015, NLCI (http://www.nlci.in/fonts/)
Version: 1.0 Sat Apr 29 14:51:32 1995
ItalicAngle: 0
UnderlinePosition: -593
UnderlineWidth: 40
Ascent: 1638
Descent: 410
InvalidEm: 0
LayerCount: 2
Layer: 0 0 "Back" 1
Layer: 1 0 "Fore" 0
XUID: [1021 240 25334161 2440652]
FSType: 0
OS2Version: 0
OS2_WeightWidthSlopeOnly: 0
OS2_UseTypoMetrics: 1
CreationTime: 1250825672
ModificationTime: 1523585985
PfmFamily: 81
TTFWeight: 700
TTFWidth: 5
LineGap: 0
VLineGap: 0
Panose: 5 0 0 0 0 0 0 0 0 0
OS2TypoAscent: -147
OS2TypoAOffset: 1
OS2TypoDescent: -401
OS2TypoDOffset: 1
OS2TypoLinegap: 0
OS2WinAscent: -240
OS2WinAOffset: 1
OS2WinDescent: -317
OS2WinDOffset: 1
HheadAscent: -240
HheadAOffset: 1
HheadDescent: 317
HheadDOffset: 1
OS2SubXSize: 1434
OS2SubYSize: 1331
OS2SubXOff: 0
OS2SubYOff: 293
OS2SupXSize: 1434
OS2SupYSize: 1331
OS2SupXOff: 0
OS2SupYOff: 928
OS2StrikeYSize: 102
OS2StrikeYPos: 530
OS2Vendor: 'Alts'
OS2UnicodeRanges: 00000000.00000000.00000000.00000000
Lookup: 262 0 0 "blwm" { "blwm-2sub"  } []
MarkAttachClasses: 1
DEI: 91125
TtTable: prep
NPUSHB
 1
 1
SCANTYPE
PUSHW_1
 511
SCANCTRL
EndTTInstrs
ShortTable: maxp 16
  1
  0
  319
  150
  6
  188
  8
  2
  8
  64
  10
  0
  3
  417
  4
  2
EndShort
LangName: 1033 "" "" "Bold" "NLCI:KAN Badami Bold" "" "1.0 Sat Apr 29 14:51:32 1995"
Encoding: Original
UnicodeInterp: none
NameList: Adobe Glyph List
DisplaySize: -48
AntiAlias: 1
FitToEm: 1
BeginPrivate: 0
EndPrivate
AnchorClass2: "Sub" "blwm-2sub" "Nukta"""  "s"""  "V""" 
BeginChars: 615 615

StartChar: .notdef
Encoding: 0 -1 0
Width: 1024
Flags: HW
LayerCount: 2
Fore
SplineSet
63 0 m 1
 63 1284 l 1
 961 1284 l 1
 961 0 l 1
 63 0 l 1
897 63 m 1
 897 1221 l 1
 127 1221 l 1
 127 63 l 1
 897 63 l 1
EndSplineSet
EndChar

StartChar: exclam
Encoding: 4 33 4
Width: 658
VWidth: 1024
Flags: HW
LayerCount: 2
Fore
SplineSet
394 419 m 0
 388 414.333007812 380.166992188 410.166992188 370.5 406.5 c 0
 360.833007812 402.833007812 350.666992188 399.5 340 396.5 c 0
 329.333007812 393.5 318.666992188 390.666992188 308 388 c 0
 297.333007812 385.333007812 288 382.666992188 280 380 c 0
 251 401 l 0
 164 1358 l 0
 179.333007812 1366 199.166992188 1376 223.5 1388 c 0
 247.833007812 1400 273 1412 299 1424 c 0
 325 1436 349.833007812 1447.16699219 373.5 1457.5 c 0
 397.166992188 1467.83300781 416 1475.33300781 430 1480 c 0
 483 1445 l 0
 394 419 l 0
504 133 m 0
 504 105 498.666992188 80.1669921875 488 58.5 c 0
 477.333007812 36.8330078125 463 18.8330078125 445 4.5 c 0
 427 -9.8330078125 406 -20.8330078125 382 -28.5 c 0
 358 -36.1669921875 332.666992188 -40 306 -40 c 0
 286 -40 266.333007812 -37.3330078125 247 -32 c 0
 227.666992188 -26.6669921875 210.5 -18.3330078125 195.5 -7 c 0
 180.5 4.3330078125 168.5 19 159.5 37 c 0
 150.5 55 146 76.6669921875 146 102 c 0
 146 129.333007812 151.5 153.833007812 162.5 175.5 c 0
 173.5 197.166992188 188.166992188 215.5 206.5 230.5 c 0
 224.833007812 245.5 246 256.833007812 270 264.5 c 0
 294 272.166992188 319 276 345 276 c 0
 363.666992188 276 382.5 273.333007812 401.5 268 c 0
 420.5 262.666992188 437.666992188 254.166992188 453 242.5 c 0
 468.333007812 230.833007812 480.666992188 216 490 198 c 0
 499.333007812 180 504 158.333007812 504 133 c 0
EndSplineSet
EndChar

StartChar: quotedbl
Encoding: 5 34 5
Width: 990
VWidth: 1024
Flags: HW
LayerCount: 2
Fore
SplineSet
777 834 m 0
 771.666992188 831.333007812 763.166992188 828.666992188 751.5 826 c 0
 739.833007812 823.333007812 727 821 713 819 c 0
 699 817 685.5 815.5 672.5 814.5 c 0
 659.5 813.5 649 813 641 813 c 0
 548 1386 l 0
 552.666992188 1388.66699219 561.833007812 1392.83300781 575.5 1398.5 c 0
 589.166992188 1404.16699219 604.833007812 1410.33300781 622.5 1417 c 0
 640.166992188 1423.66699219 658.833007812 1430.5 678.5 1437.5 c 0
 698.166992188 1444.5 716.666992188 1451 734 1457 c 0
 751.333007812 1463 766.666992188 1468 780 1472 c 0
 793.333007812 1476 802.333007812 1478.66699219 807 1480 c 0
 860 1449 l 0
 777 834 l 0
359 834 m 0
 353.666992188 831.333007812 345.166992188 828.666992188 333.5 826 c 0
 321.833007812 823.333007812 309 821 295 819 c 0
 281 817 267.5 815.5 254.5 814.5 c 0
 241.5 813.5 231 813 223 813 c 0
 130 1386 l 0
 134.666992188 1388.66699219 143.833007812 1392.83300781 157.5 1398.5 c 0
 171.166992188 1404.16699219 186.833007812 1410.33300781 204.5 1417 c 0
 222.166992188 1423.66699219 240.833007812 1430.5 260.5 1437.5 c 0
 280.166992188 1444.5 298.666992188 1451 316 1457 c 0
 333.333007812 1463 348.666992188 1468 362 1472 c 0
 375.333007812 1476 384.333007812 1478.66699219 389 1480 c 0
 442 1449 l 0
 359 834 l 0
EndSplineSet
EndChar

StartChar: numbersign
Encoding: 6 35 6
Width: 1061
VWidth: 1024
Flags: HW
LayerCount: 2
Fore
SplineSet
455 610 m 0
 624 610 l 0
 685 826 l 0
 517 826 l 0
 455 610 l 0
881 981 m 0
 1037 981 l 0
 1062 956 l 0
 1060.66699219 948.666992188 1057.66699219 938.833007812 1053 926.5 c 0
 1048.33300781 914.166992188 1043.33300781 901.5 1038 888.5 c 0
 1032.66699219 875.5 1027.5 863.166992188 1022.5 851.5 c 0
 1017.5 839.833007812 1013.66699219 831.333007812 1011 826 c 0
 837 826 l 0
 775 610 l 0
 931 610 l 0
 953 583 l 0
 951.666992188 576.333007812 948.833007812 567 944.5 555 c 0
 940.166992188 543 935.5 530.5 930.5 517.5 c 0
 925.5 504.5 920.666992188 492.333007812 916 481 c 0
 911.333007812 469.666992188 907.666992188 461 905 455 c 0
 731 455 l 0
 650 170 l 0
 644 165.333007812 635.333007812 161 624 157 c 0
 612.666992188 153 600.666992188 149.333007812 588 146 c 0
 550 136 l 0
 537.333007812 132.666992188 526.666992188 129.666992188 518 127 c 0
 492 147 l 0
 580 455 l 0
 411 455 l 0
 329 170 l 0
 323 165.333007812 314.5 161 303.5 157 c 0
 292.5 153 280.666992188 149.333007812 268 146 c 0
 255.333007812 142.666992188 242.833007812 139.333007812 230.5 136 c 0
 218.166992188 132.666992188 207.666992188 129.666992188 199 127 c 0
 173 147 l 0
 261 455 l 0
 89 455 l 0
 67 480 l 0
 68.3330078125 486.666992188 71.1669921875 495.833007812 75.5 507.5 c 0
 79.8330078125 519.166992188 84.5 531.5 89.5 544.5 c 0
 94.5 557.5 99.5 570 104.5 582 c 0
 109.5 594 113.666992188 603.333007812 117 610 c 0
 305 610 l 0
 366 826 l 0
 198 826 l 0
 173 850 l 0
 174.333007812 857.333007812 177.333007812 867 182 879 c 0
 186.666992188 891 191.666992188 903.5 197 916.5 c 0
 202.333007812 929.5 207.5 941.833007812 212.5 953.5 c 0
 217.5 965.166992188 221.333007812 974.333007812 224 981 c 0
 411 981 l 0
 488 1251 l 0
 495.333007812 1256.33300781 504.666992188 1260.83300781 516 1264.5 c 0
 527.333007812 1268.16699219 539.333007812 1271.5 552 1274.5 c 0
 564.666992188 1277.5 576.666992188 1280.33300781 588 1283 c 0
 599.333007812 1285.66699219 608.666992188 1288.66699219 616 1292 c 0
 645 1270 l 0
 562 981 l 0
 730 981 l 0
 807 1251 l 0
 814.333007812 1256.33300781 823.666992188 1260.83300781 835 1264.5 c 0
 846.333007812 1268.16699219 858.333007812 1271.5 871 1274.5 c 0
 883.666992188 1277.5 895.833007812 1280.33300781 907.5 1283 c 0
 919.166992188 1285.66699219 929 1288.66699219 937 1292 c 0
 964 1270 l 0
 881 981 l 0
EndSplineSet
EndChar

StartChar: dollar
Encoding: 7 36 7
Width: 1061
VWidth: 1024
Flags: HW
LayerCount: 2
Fore
SplineSet
592 -123 m 0
 580 -133.666992188 565.666992188 -143.833007812 549 -153.5 c 0
 532.333007812 -163.166992188 515.666992188 -170 499 -174 c 0
 462 -142 l 0
 462 -9 l 0
 434.666992188 -7.6669921875 404.833007812 -3.8330078125 372.5 2.5 c 0
 340.166992188 8.8330078125 307.333007812 17.5 274 28.5 c 0
 240.666992188 39.5 207.5 52.3330078125 174.5 67 c 0
 141.5 81.6669921875 110.666992188 98 82 116 c 0
 78.6669921875 118 76.3330078125 125.5 75 138.5 c 0
 73.6669921875 151.5 72.8330078125 167.5 72.5 186.5 c 0
 72.1669921875 205.5 72.3330078125 226.666992188 73 250 c 0
 73.6669921875 273.333007812 74.8330078125 296.166992188 76.5 318.5 c 0
 78.1669921875 340.833007812 80.3330078125 362 83 382 c 0
 85.6669921875 402 88.6669921875 418 92 430 c 0
 175 426 l 0
 191 392 208.333007812 359.833007812 227 329.5 c 0
 245.666992188 299.166992188 266.666992188 271.833007812 290 247.5 c 0
 313.333007812 223.166992188 339.166992188 202.333007812 367.5 185 c 0
 395.833007812 167.666992188 427.333007812 155.333007812 462 148 c 0
 462 561 l 0
 416.666992188 577 371.166992188 593.666992188 325.5 611 c 0
 279.833007812 628.333007812 238.666992188 649.5 202 674.5 c 0
 165.333007812 699.5 135.5 730 112.5 766 c 0
 89.5 802 78 847 78 901 c 0
 78 929.666992188 84.1669921875 960.666992188 96.5 994 c 0
 108.833007812 1027.33300781 129.833007812 1059 159.5 1089 c 0
 189.166992188 1119 228.666992188 1145 278 1167 c 0
 327.333007812 1189 388.666992188 1203.33300781 462 1210 c 0
 462 1336 l 0
 471.333007812 1341.33300781 479.666992188 1346.33300781 487 1351 c 0
 494.333007812 1355.66699219 501.5 1360 508.5 1364 c 0
 515.5 1368 522.666992188 1371.66699219 530 1375 c 0
 537.333007812 1378.33300781 546 1381.33300781 556 1384 c 0
 592 1352 l 0
 592 1212 l 0
 628.666992188 1209.33300781 665.166992188 1204.5 701.5 1197.5 c 0
 737.833007812 1190.5 771.666992188 1182 803 1172 c 0
 834.333007812 1162 862.166992188 1151.16699219 886.5 1139.5 c 0
 910.833007812 1127.83300781 929 1116 941 1104 c 0
 943.666992188 1100.66699219 944.333007812 1093.33300781 943 1082 c 0
 941.666992188 1070.66699219 938.833007812 1056.83300781 934.5 1040.5 c 0
 930.166992188 1024.16699219 924.833007812 1006.83300781 918.5 988.5 c 0
 912.166992188 970.166992188 905.333007812 952.5 898 935.5 c 0
 890.666992188 918.5 883.5 903.5 876.5 890.5 c 0
 869.5 877.5 863 868.333007812 857 863 c 0
 778 871 l 0
 757.333007812 923 732.166992188 966.166992188 702.5 1000.5 c 0
 672.833007812 1034.83300781 636 1059 592 1073 c 0
 592 739 l 0
 638 723 684.166992188 705.5 730.5 686.5 c 0
 776.833007812 667.5 818.666992188 644 856 616 c 0
 893.333007812 588 923.666992188 554 947 514 c 0
 970.333007812 474 982 425 982 367 c 0
 982 327 975 287 961 247 c 0
 947 207 924.5 170 893.5 136 c 0
 862.5 102 822.166992188 72.5 772.5 47.5 c 0
 722.833007812 22.5 662.666992188 5.6669921875 592 -3 c 0
 592 -123 l 0
747 314 m 0
 747 338.666992188 743.166992188 360.666992188 735.5 380 c 0
 727.833007812 399.333007812 717 417 703 433 c 0
 689 449 672.5 463.166992188 653.5 475.5 c 0
 634.5 487.833007812 614 499.333007812 592 510 c 0
 592 145 l 0
 612.666992188 148.333007812 632.333007812 154.166992188 651 162.5 c 0
 669.666992188 170.833007812 686.166992188 181.833007812 700.5 195.5 c 0
 714.833007812 209.166992188 726.166992188 225.833007812 734.5 245.5 c 0
 742.833007812 265.166992188 747 288 747 314 c 0
305 948 m 0
 305 928.666992188 308.833007812 911.166992188 316.5 895.5 c 0
 324.166992188 879.833007812 335 865.5 349 852.5 c 0
 363 839.5 379.666992188 827.666992188 399 817 c 0
 418.333007812 806.333007812 439.333007812 796.333007812 462 787 c 0
 462 1083 l 0
 414.666992188 1077 376.666992188 1061.5 348 1036.5 c 0
 319.333007812 1011.5 305 982 305 948 c 0
EndSplineSet
EndChar

StartChar: percent
Encoding: 8 37 8
Width: 1517
VWidth: 1024
Flags: HW
LayerCount: 2
Fore
SplineSet
711 897 m 0
 711 850.333007812 702.833007812 806.333007812 686.5 765 c 0
 670.166992188 723.666992188 647.166992188 687.5 617.5 656.5 c 0
 587.833007812 625.5 552.166992188 601 510.5 583 c 0
 468.833007812 565 422.666992188 556 372 556 c 0
 321.333007812 556 275.833007812 565 235.5 583 c 0
 195.166992188 601 161 625.5 133 656.5 c 0
 105 687.5 83.5 723.666992188 68.5 765 c 0
 53.5 806.333007812 46 850.333007812 46 897 c 0
 46 943.666992188 53.5 987.666992188 68.5 1029 c 0
 83.5 1070.33300781 105.5 1106.5 134.5 1137.5 c 0
 163.5 1168.5 199 1193.16699219 241 1211.5 c 0
 283 1229.83300781 331 1239 385 1239 c 0
 437.666992188 1239 484.166992188 1230 524.5 1212 c 0
 564.833007812 1194 598.833007812 1169.5 626.5 1138.5 c 0
 654.166992188 1107.5 675.166992188 1071.16699219 689.5 1029.5 c 0
 703.833007812 987.833007812 711 943.666992188 711 897 c 0
486 877 m 0
 486 975.666992188 475.5 1048.5 454.5 1095.5 c 0
 433.5 1142.5 406 1166 372 1166 c 0
 354.666992188 1166 339.666992188 1161.66699219 327 1153 c 0
 314.333007812 1144.33300781 303.833007812 1130.33300781 295.5 1111 c 0
 287.166992188 1091.66699219 281 1066.33300781 277 1035 c 0
 273 1003.66699219 271 965.333007812 271 920 c 0
 271 820.666992188 280.333007812 747.333007812 299 700 c 0
 317.666992188 652.666992188 346.333007812 629 385 629 c 0
 403 629 418.333007812 633.333007812 431 642 c 0
 443.666992188 650.666992188 454 664.833007812 462 684.5 c 0
 470 704.166992188 476 729.833007812 480 761.5 c 0
 484 793.166992188 486 831.666992188 486 877 c 0
379 3 m 0
 371 -1 360.333007812 -4.5 347 -7.5 c 0
 333.666992188 -10.5 319.5 -13.3330078125 304.5 -16 c 0
 289.5 -18.6669921875 274.833007812 -21.1669921875 260.5 -23.5 c 0
 246.166992188 -25.8330078125 234.666992188 -28 226 -30 c 0
 201 0 l 0
 1133 1203 l 0
 1139.66699219 1205.66699219 1149.83300781 1208.5 1163.5 1211.5 c 0
 1177.16699219 1214.5 1191.5 1217.5 1206.5 1220.5 c 0
 1221.5 1223.5 1236 1226.33300781 1250 1229 c 0
 1264 1231.66699219 1274.66699219 1233.66699219 1282 1235 c 0
 1307 1207 l 0
 379 3 l 0
1471 310 m 0
 1471 263.333007812 1462.83300781 219.333007812 1446.5 178 c 0
 1430.16699219 136.666992188 1407.16699219 100.5 1377.5 69.5 c 0
 1347.83300781 38.5 1312.16699219 14 1270.5 -4 c 0
 1228.83300781 -22 1182.66699219 -31 1132 -31 c 0
 1081.33300781 -31 1035.83300781 -22 995.5 -4 c 0
 955.166992188 14 921 38.5 893 69.5 c 0
 865 100.5 843.5 136.666992188 828.5 178 c 0
 813.5 219.333007812 806 263.333007812 806 310 c 0
 806 356.666992188 813.5 400.666992188 828.5 442 c 0
 843.5 483.333007812 865.5 519.5 894.5 550.5 c 0
 923.5 581.5 959 606.166992188 1001 624.5 c 0
 1043 642.833007812 1091 652 1145 652 c 0
 1197.66699219 652 1244.16699219 643 1284.5 625 c 0
 1324.83300781 607 1358.83300781 582.5 1386.5 551.5 c 0
 1414.16699219 520.5 1435.16699219 484.166992188 1449.5 442.5 c 0
 1463.83300781 400.833007812 1471 356.666992188 1471 310 c 0
1246 290 m 0
 1246 388.666992188 1235.5 461.5 1214.5 508.5 c 0
 1193.5 555.5 1166 579 1132 579 c 0
 1114.66699219 579 1099.66699219 574.666992188 1087 566 c 0
 1074.33300781 557.333007812 1063.83300781 543.333007812 1055.5 524 c 0
 1047.16699219 504.666992188 1041 479.333007812 1037 448 c 0
 1033 416.666992188 1031 378.333007812 1031 333 c 0
 1031 233.666992188 1040.33300781 160.333007812 1059 113 c 0
 1077.66699219 65.6669921875 1106.33300781 42 1145 42 c 0
 1163 42 1178.33300781 46.3330078125 1191 55 c 0
 1203.66699219 63.6669921875 1214 77.8330078125 1222 97.5 c 0
 1230 117.166992188 1236 142.833007812 1240 174.5 c 0
 1244 206.166992188 1246 244.666992188 1246 290 c 0
EndSplineSet
EndChar

StartChar: ampersand
Encoding: 9 38 9
Width: 1436
VWidth: 1024
Flags: HW
LayerCount: 2
Fore
SplineSet
1436 748 m 0
 1428 738 1418.83300781 726.166992188 1408.5 712.5 c 0
 1398.16699219 698.833007812 1387.5 685.333007812 1376.5 672 c 0
 1365.5 658.666992188 1354.83300781 646.333007812 1344.5 635 c 0
 1334.16699219 623.666992188 1325 615 1317 609 c 0
 1292.33300781 620.333007812 1266.5 631.333007812 1239.5 642 c 0
 1212.5 652.666992188 1187.66699219 658.666992188 1165 660 c 0
 1179 642.666992188 1188 623.833007812 1192 603.5 c 0
 1196 583.166992188 1198 563 1198 543 c 0
 1198 499 1188 452.833007812 1168 404.5 c 0
 1148 356.166992188 1120 308.333007812 1084 261 c 0
 1105.33300781 241.666992188 1126.66699219 223.333007812 1148 206 c 0
 1185.33300781 174.666992188 1223.66699219 155.333007812 1263 148 c 0
 1302.33300781 140.666992188 1338 140.666992188 1370 148 c 0
 1389 65 l 0
 1360.33300781 52.3330078125 1329 40.1669921875 1295 28.5 c 0
 1261 16.8330078125 1228.66699219 6.6669921875 1198 -2 c 0
 1167.33300781 -10.6669921875 1140.33300781 -17.5 1117 -22.5 c 0
 1093.66699219 -27.5 1078.33300781 -30 1071 -30 c 0
 1053.66699219 -30 1028.5 -20.5 995.5 -1.5 c 0
 962.5 17.5 924.666992188 44.3330078125 882 79 c 0
 829.333007812 45.6669921875 772.333007812 19.1669921875 711 -0.5 c 0
 649.666992188 -20.1669921875 585.333007812 -30 518 -30 c 0
 445.333007812 -30 380.5 -21.8330078125 323.5 -5.5 c 0
 266.5 10.8330078125 218.5 35 179.5 67 c 0
 140.5 99 110.833007812 138.833007812 90.5 186.5 c 0
 70.1669921875 234.166992188 60 289.333007812 60 352 c 0
 60 420.666992188 81.3330078125 489.333007812 124 558 c 0
 166.666992188 626.666992188 235.666992188 696.666992188 331 768 c 0
 307.666992188 820 289.5 871.5 276.5 922.5 c 0
 263.5 973.5 257 1023.66699219 257 1073 c 0
 257 1127 267.833007812 1177 289.5 1223 c 0
 311.166992188 1269 340.666992188 1308.83300781 378 1342.5 c 0
 415.333007812 1376.16699219 459.166992188 1402.5 509.5 1421.5 c 0
 559.833007812 1440.5 613.666992188 1450 671 1450 c 0
 724.333007812 1450 770.333007812 1443.16699219 809 1429.5 c 0
 847.666992188 1415.83300781 879.5 1397.66699219 904.5 1375 c 0
 929.5 1352.33300781 948 1326.16699219 960 1296.5 c 0
 972 1266.83300781 978 1236 978 1204 c 0
 978 1169.33300781 968.166992188 1133.5 948.5 1096.5 c 0
 928.833007812 1059.5 903.333007812 1023.33300781 872 988 c 0
 840.666992188 952.666992188 805.333007812 919 766 887 c 0
 726.666992188 855 687.333007812 826.666992188 648 802 c 0
 631 791 l 0
 653 754.333007812 677 717.833007812 703 681.5 c 0
 729 645.166992188 756.333007812 609.5 785 574.5 c 0
 813.666992188 539.5 843.166992188 505.333007812 873.5 472 c 0
 903.833007812 438.666992188 934 406.666992188 964 376 c 0
 974.666992188 397.333007812 982.833007812 418.5 988.5 439.5 c 0
 994.166992188 460.5 997 481.333007812 997 502 c 0
 997 530 992.833007812 554.833007812 984.5 576.5 c 0
 976.166992188 598.166992188 965 616.166992188 951 630.5 c 0
 937 644.833007812 921 655.833007812 903 663.5 c 0
 885 671.166992188 866.333007812 675 847 675 c 0
 815 713 l 0
 818.333007812 717 823.833007812 723 831.5 731 c 0
 839.166992188 739 847.666992188 747.333007812 857 756 c 0
 866.333007812 764.666992188 875.666992188 772.5 885 779.5 c 0
 894.333007812 786.5 902.333007812 791.333007812 909 794 c 0
 1403 794 l 0
 1436 748 l 0
588 124 m 0
 620 124 651.333007812 128.666992188 682 138 c 0
 712.666992188 147.333007812 742.333007812 160 771 176 c 0
 741 204.666992188 710.5 235.333007812 679.5 268 c 0
 648.5 300.666992188 617.833007812 335.166992188 587.5 371.5 c 0
 557.166992188 407.833007812 527.666992188 445.333007812 499 484 c 0
 470.333007812 522.666992188 443.666992188 562.333007812 419 603 c 0
 393 565.666992188 375.333007812 528.5 366 491.5 c 0
 356.666992188 454.5 352 415 352 373 c 0
 352 326.333007812 359.166992188 287.166992188 373.5 255.5 c 0
 387.833007812 223.833007812 406.333007812 198.166992188 429 178.5 c 0
 451.666992188 158.833007812 477 144.833007812 505 136.5 c 0
 533 128.166992188 560.666992188 124 588 124 c 0
514 1130 m 0
 514 1096 518.5 1061.33300781 527.5 1026 c 0
 536.5 990.666992188 549 954 565 916 c 0
 591.666992188 933.333007812 614.333007812 952.5 633 973.5 c 0
 651.666992188 994.5 666.5 1016.16699219 677.5 1038.5 c 0
 688.5 1060.83300781 696.5 1083.33300781 701.5 1106 c 0
 706.5 1128.66699219 709 1150.33300781 709 1171 c 0
 709 1194.33300781 706 1214.83300781 700 1232.5 c 0
 694 1250.16699219 686.333007812 1265 677 1277 c 0
 667.666992188 1289 657 1298 645 1304 c 0
 633 1310 620.666992188 1313 608 1313 c 0
 591.333007812 1313 577.166992188 1308.33300781 565.5 1299 c 0
 553.833007812 1289.66699219 544.166992188 1276.83300781 536.5 1260.5 c 0
 528.833007812 1244.16699219 523.166992188 1224.83300781 519.5 1202.5 c 0
 515.833007812 1180.16699219 514 1156 514 1130 c 0
EndSplineSet
EndChar

StartChar: quotesingle
Encoding: 10 39 10
Width: 572
VWidth: 1024
Flags: HW
LayerCount: 2
Fore
SplineSet
359 834 m 0
 353.666992188 831.333007812 345.166992188 828.666992188 333.5 826 c 0
 321.833007812 823.333007812 309 821 295 819 c 0
 281 817 267.5 815.5 254.5 814.5 c 0
 241.5 813.5 231 813 223 813 c 0
 130 1386 l 0
 134.666992188 1388.66699219 143.833007812 1392.83300781 157.5 1398.5 c 0
 171.166992188 1404.16699219 186.833007812 1410.33300781 204.5 1417 c 0
 222.166992188 1423.66699219 240.833007812 1430.5 260.5 1437.5 c 0
 280.166992188 1444.5 298.666992188 1451 316 1457 c 0
 333.333007812 1463 348.666992188 1468 362 1472 c 0
 375.333007812 1476 384.333007812 1478.66699219 389 1480 c 0
 442 1449 l 0
 359 834 l 0
EndSplineSet
EndChar

StartChar: parenleft
Encoding: 11 40 11
Width: 689
VWidth: 1024
Flags: HW
LayerCount: 2
Fore
SplineSet
608 -315 m 0
 436.666992188 -220.333007812 309.333007812 -93.3330078125 226 66 c 0
 142.666992188 225.333007812 101 411 101 623 c 0
 101 732.333007812 112.666992188 835.666992188 136 933 c 0
 159.333007812 1030.33300781 192.833007812 1120.33300781 236.5 1203 c 0
 280.166992188 1285.66699219 333.333007812 1360.5 396 1427.5 c 0
 458.666992188 1494.5 529.333007812 1552 608 1600 c 0
 670 1515 l 0
 631.333007812 1473.66699219 595.166992188 1425.5 561.5 1370.5 c 0
 527.833007812 1315.5 498.333007812 1252.5 473 1181.5 c 0
 447.666992188 1110.5 427.666992188 1031 413 943 c 0
 398.333007812 855 391 757.666992188 391 651 c 0
 391 455 414.333007812 282.833007812 461 134.5 c 0
 507.666992188 -13.8330078125 577.333007812 -135.333007812 670 -230 c 0
 608 -315 l 0
EndSplineSet
EndChar

StartChar: parenright
Encoding: 12 41 12
Width: 689
VWidth: 1024
Flags: HW
LayerCount: 2
Fore
SplineSet
590 661 m 0
 590 551.666992188 578.333007812 448.333007812 555 351 c 0
 531.666992188 253.666992188 498.166992188 163.666992188 454.5 81 c 0
 410.833007812 -1.6669921875 357.666992188 -76.5 295 -143.5 c 0
 232.333007812 -210.5 161.666992188 -268 83 -316 c 0
 21 -231 l 0
 59.6669921875 -189.666992188 95.8330078125 -141.5 129.5 -86.5 c 0
 163.166992188 -31.5 192.666992188 31.5 218 102.5 c 0
 243.333007812 173.5 263.333007812 252.833007812 278 340.5 c 0
 292.666992188 428.166992188 300 525.666992188 300 633 c 0
 300 829 276.666992188 1001.16699219 230 1149.5 c 0
 183.333007812 1297.83300781 113.666992188 1419.33300781 21 1514 c 0
 83 1599 l 0
 253.666992188 1504.33300781 380.833007812 1377.33300781 464.5 1218 c 0
 548.166992188 1058.66699219 590 873 590 661 c 0
EndSplineSet
EndChar

StartChar: asterisk
Encoding: 13 42 13
Width: 904
VWidth: 1024
Flags: HW
LayerCount: 2
Fore
SplineSet
505 1230 m 0
 707 1410 l 0
 713.666992188 1406 724.166992188 1398.5 738.5 1387.5 c 0
 752.833007812 1376.5 767.666992188 1364.83300781 783 1352.5 c 0
 798.333007812 1340.16699219 812.666992188 1328.16699219 826 1316.5 c 0
 839.333007812 1304.83300781 848.666992188 1296.33300781 854 1291 c 0
 842 1231 l 0
 563 1136 l 0
 819 1051 l 0
 818.333007812 1043 816.833007812 1030.16699219 814.5 1012.5 c 0
 812.166992188 994.833007812 809.5 976.166992188 806.5 956.5 c 0
 803.5 936.833007812 800.333007812 918.333007812 797 901 c 0
 793.666992188 883.666992188 791 871.333007812 789 864 c 0
 731 845 l 0
 510 1038 l 0
 564 775 l 0
 556.666992188 771 544.666992188 765.666992188 528 759 c 0
 475 738 l 0
 457 730.666992188 439.666992188 724.166992188 423 718.5 c 0
 406.333007812 712.833007812 394.333007812 709 387 707 c 0
 341 748 l 0
 398 1037 l 0
 197 858 l 0
 190.333007812 862 179.833007812 869.5 165.5 880.5 c 0
 151.166992188 891.5 136.333007812 903.166992188 121 915.5 c 0
 105.666992188 927.833007812 91.1669921875 939.833007812 77.5 951.5 c 0
 63.8330078125 963.166992188 54.6669921875 971.666992188 50 977 c 0
 62 1037 l 0
 342 1132 l 0
 85 1217 l 0
 85.6669921875 1225 87.1669921875 1237.83300781 89.5 1255.5 c 0
 91.8330078125 1273.16699219 94.5 1291.83300781 97.5 1311.5 c 0
 100.5 1331.16699219 103.666992188 1349.66699219 107 1367 c 0
 110.333007812 1384.33300781 113 1396.66699219 115 1404 c 0
 173 1423 l 0
 394 1229 l 0
 340 1493 l 0
 347.333007812 1497 359.333007812 1502.33300781 376 1509 c 0
 428 1530 l 0
 446.666992188 1537.33300781 464.333007812 1543.83300781 481 1549.5 c 0
 497.666992188 1555.16699219 509.666992188 1559 517 1561 c 0
 563 1520 l 0
 505 1230 l 0
EndSplineSet
EndChar

StartChar: plus
Encoding: 14 43 14
Width: 870
VWidth: 1024
Flags: HW
LayerCount: 2
Fore
SplineSet
515 221 m 0
 508.333007812 217.666992188 499.666992188 214 489 210 c 0
 478.333007812 206 467.333007812 202 456 198 c 0
 444.666992188 194 433.5 190.333007812 422.5 187 c 0
 411.5 183.666992188 402.333007812 181.333007812 395 180 c 0
 360 212 l 0
 360 485 l 0
 85 485 l 0
 50 519 l 0
 52 526.333007812 55.1669921875 535.5 59.5 546.5 c 0
 63.8330078125 557.5 68.5 568.833007812 73.5 580.5 c 0
 78.5 592.166992188 83.5 603.333007812 88.5 614 c 0
 93.5 624.666992188 97.6669921875 633.333007812 101 640 c 0
 360 640 l 0
 360 906 l 0
 366 908 374.333007812 910.833007812 385 914.5 c 0
 395.666992188 918.166992188 407 922 419 926 c 0
 431 930 442.5 933.666992188 453.5 937 c 0
 464.5 940.333007812 473.666992188 943 481 945 c 0
 515 912 l 0
 515 640 l 0
 785 640 l 0
 820 606 l 0
 818 598.666992188 814.666992188 589.333007812 810 578 c 0
 805.333007812 566.666992188 800.333007812 555 795 543 c 0
 789.666992188 531 784.666992188 519.666992188 780 509 c 0
 775.333007812 498.333007812 771.666992188 490.333007812 769 485 c 0
 515 485 l 0
 515 221 l 0
EndSplineSet
EndChar

StartChar: comma
Encoding: 15 44 15
Width: 579
VWidth: 1024
Flags: HW
LayerCount: 2
Fore
SplineSet
510 70 m 0
 510 31.3330078125 501.5 -10.3330078125 484.5 -55 c 0
 467.5 -99.6669921875 444.666992188 -143.5 416 -186.5 c 0
 387.333007812 -229.5 354 -270.166992188 316 -308.5 c 0
 278 -346.833007812 238 -379 196 -405 c 0
 121 -350 l 0
 158.333007812 -306.666992188 188.5 -260.333007812 211.5 -211 c 0
 234.5 -161.666992188 246 -108 246 -50 c 0
 246 -35.3330078125 242.666992188 -20.5 236 -5.5 c 0
 229.333007812 9.5 219.833007812 23 207.5 35 c 0
 195.166992188 47 180.166992188 56.5 162.5 63.5 c 0
 144.833007812 70.5 125.333007812 73.3330078125 104 72 c 0
 88 159 l 0
 92 164.333007812 100.833007812 170.666992188 114.5 178 c 0
 128.166992188 185.333007812 144.833007812 193.166992188 164.5 201.5 c 0
 184.166992188 209.833007812 205.5 218.166992188 228.5 226.5 c 0
 251.5 234.833007812 274.166992188 242.166992188 296.5 248.5 c 0
 318.833007812 254.833007812 340 260 360 264 c 0
 380 268 396.333007812 269.666992188 409 269 c 0
 425 261.666992188 439.333007812 252.5 452 241.5 c 0
 464.666992188 230.5 475.166992188 217.166992188 483.5 201.5 c 0
 491.833007812 185.833007812 498.333007812 167.166992188 503 145.5 c 0
 507.666992188 123.833007812 510 98.6669921875 510 70 c 0
EndSplineSet
EndChar

StartChar: hyphen
Encoding: 16 45 16
Width: 740
VWidth: 1024
Flags: HW
LayerCount: 2
Fore
SplineSet
70 394 m 0
 70 616 l 0
 618 616 l 0
 618 394 l 0
 70 394 l 0
EndSplineSet
Refer: 375 727 N 1 0 0 1 0 0 2
EndChar

StartChar: period
Encoding: 17 46 17
Width: 579
VWidth: 1024
Flags: HW
LayerCount: 2
Fore
SplineSet
489 133 m 0
 489 105 483.666992188 80.1669921875 473 58.5 c 0
 462.333007812 36.8330078125 448 18.8330078125 430 4.5 c 0
 412 -9.8330078125 391 -20.8330078125 367 -28.5 c 0
 343 -36.1669921875 317.666992188 -40 291 -40 c 0
 271 -40 251.333007812 -37.3330078125 232 -32 c 0
 212.666992188 -26.6669921875 195.5 -18.3330078125 180.5 -7 c 0
 165.5 4.3330078125 153.5 19 144.5 37 c 0
 135.5 55 131 76.6669921875 131 102 c 0
 131 129.333007812 136.5 153.833007812 147.5 175.5 c 0
 158.5 197.166992188 173.166992188 215.5 191.5 230.5 c 0
 209.833007812 245.5 231 256.833007812 255 264.5 c 0
 279 272.166992188 304 276 330 276 c 0
 348.666992188 276 367.5 273.333007812 386.5 268 c 0
 405.5 262.666992188 422.666992188 254.166992188 438 242.5 c 0
 453.333007812 230.833007812 465.666992188 216 475 198 c 0
 484.333007812 180 489 158.333007812 489 133 c 0
EndSplineSet
EndChar

StartChar: slash
Encoding: 18 47 18
Width: 980
VWidth: 1024
Flags: HW
LayerCount: 2
Fore
SplineSet
252 -274 m 0
 245.333007812 -278.666992188 234 -284 218 -290 c 0
 202 -296 185 -301.833007812 167 -307.5 c 0
 149 -313.166992188 131.5 -318.5 114.5 -323.5 c 0
 97.5 -328.5 85 -332.333007812 77 -335 c 0
 30 -300 l 0
 731 1541 l 0
 739.666992188 1547 751.833007812 1552.83300781 767.5 1558.5 c 0
 783.166992188 1564.16699219 799.5 1569.66699219 816.5 1575 c 0
 833.5 1580.33300781 849.833007812 1585.16699219 865.5 1589.5 c 0
 881.166992188 1593.83300781 893.666992188 1597.33300781 903 1600 c 0
 950 1568 l 0
 252 -274 l 0
EndSplineSet
EndChar

StartChar: zero
Encoding: 19 48 19
Width: 1061
VWidth: 1024
Flags: HW
LayerCount: 2
Fore
SplineSet
1005 602 m 0
 1005 516 993.166992188 434.666992188 969.5 358 c 0
 945.833007812 281.333007812 912.5 214.333007812 869.5 157 c 0
 826.5 99.6669921875 775.333007812 54.1669921875 716 20.5 c 0
 656.666992188 -13.1669921875 591.666992188 -30 521 -30 c 0
 449.666992188 -30 385.5 -13.1669921875 328.5 20.5 c 0
 271.5 54.1669921875 222.666992188 99.6669921875 182 157 c 0
 141.333007812 214.333007812 110.166992188 281.333007812 88.5 358 c 0
 66.8330078125 434.666992188 56 516 56 602 c 0
 56 688 67 769.333007812 89 846 c 0
 111 922.666992188 142.833007812 989.833007812 184.5 1047.5 c 0
 226.166992188 1105.16699219 277 1150.83300781 337 1184.5 c 0
 397 1218.16699219 464.666992188 1235 540 1235 c 0
 613.333007812 1235 678.833007812 1218.33300781 736.5 1185 c 0
 794.166992188 1151.66699219 842.833007812 1106.33300781 882.5 1049 c 0
 922.166992188 991.666992188 952.5 924.5 973.5 847.5 c 0
 994.5 770.5 1005 688.666992188 1005 602 c 0
711 565 m 0
 711 656.333007812 706.5 735.5 697.5 802.5 c 0
 688.5 869.5 675.666992188 925 659 969 c 0
 642.333007812 1013 622.333007812 1045.83300781 599 1067.5 c 0
 575.666992188 1089.16699219 549.666992188 1100 521 1100 c 0
 491.666992188 1100 466.333007812 1092 445 1076 c 0
 423.666992188 1060 406 1034 392 998 c 0
 378 962 367.5 915 360.5 857 c 0
 353.5 799 350 728.333007812 350 645 c 0
 350 461.666992188 365.666992188 325.833007812 397 237.5 c 0
 428.333007812 149.166992188 476 105 540 105 c 0
 570 105 595.666992188 113.166992188 617 129.5 c 0
 638.333007812 145.833007812 656 172.166992188 670 208.5 c 0
 684 244.833007812 694.333007812 292.166992188 701 350.5 c 0
 707.666992188 408.833007812 711 480.333007812 711 565 c 0
EndSplineSet
EndChar

StartChar: one
Encoding: 20 49 20
Width: 1061
VWidth: 1024
Flags: HW
LayerCount: 2
Fore
SplineSet
150 0 m 0
 150 93 l 0
 202 99 245.333007812 105.833007812 280 113.5 c 0
 314.666992188 121.166992188 342.333007812 129 363 137 c 0
 383.666992188 145 398.333007812 152.833007812 407 160.5 c 0
 415.666992188 168.166992188 420 175.666992188 420 183 c 0
 420 900 l 0
 420 926.666992188 419 947.333007812 417 962 c 0
 415 976.666992188 410 988.666992188 402 998 c 0
 398 1002 390.833007812 1005.33300781 380.5 1008 c 0
 370.166992188 1010.66699219 355.333007812 1011.66699219 336 1011 c 0
 316.666992188 1010.33300781 291.833007812 1008 261.5 1004 c 0
 231.166992188 1000 194 993.333007812 150 984 c 0
 119 1075 l 0
 138.333007812 1078.33300781 162.333007812 1084 191 1092 c 0
 219.666992188 1100 250.666992188 1109.16699219 284 1119.5 c 0
 317.333007812 1129.83300781 351.666992188 1141 387 1153 c 0
 422.333007812 1165 456.166992188 1176.66699219 488.5 1188 c 0
 520.833007812 1199.33300781 550.5 1210 577.5 1220 c 0
 604.5 1230 626.333007812 1238.33300781 643 1245 c 0
 690 1200 l 0
 690 183 l 0
 690 176.333007812 693.666992188 169.166992188 701 161.5 c 0
 708.333007812 153.833007812 721.333007812 146 740 138 c 0
 758.666992188 130 784.166992188 122 816.5 114 c 0
 848.833007812 106 890 99 940 93 c 0
 940 0 l 0
 150 0 l 0
EndSplineSet
EndChar

StartChar: two
Encoding: 21 50 21
Width: 1061
VWidth: 1024
Flags: HW
LayerCount: 2
Fore
SplineSet
941 0 m 0
 107 0 l 0
 78 74 l 0
 155.333007812 165.333007812 223.5 246.5 282.5 317.5 c 0
 341.5 388.5 392.5 451.5 435.5 506.5 c 0
 478.5 561.5 514.333007812 609.833007812 543 651.5 c 0
 571.666992188 693.166992188 594.5 730.333007812 611.5 763 c 0
 628.5 795.666992188 640.5 824.833007812 647.5 850.5 c 0
 654.5 876.166992188 658 900.666992188 658 924 c 0
 658 951.333007812 655.333007812 976.666992188 650 1000 c 0
 644.666992188 1023.33300781 636.333007812 1043.5 625 1060.5 c 0
 613.666992188 1077.5 599 1090.83300781 581 1100.5 c 0
 563 1110.16699219 541.666992188 1115 517 1115 c 0
 489.666992188 1115 466.666992188 1109.33300781 448 1098 c 0
 429.333007812 1086.66699219 414.833007812 1071.5 404.5 1052.5 c 0
 394.166992188 1033.5 387.833007812 1012 385.5 988 c 0
 383.166992188 964 384.666992188 939.333007812 390 914 c 0
 378.666992188 908 362.333007812 901.166992188 341 893.5 c 0
 319.666992188 885.833007812 296.666992188 878.666992188 272 872 c 0
 247.333007812 865.333007812 223.333007812 859.5 200 854.5 c 0
 176.666992188 849.5 157.333007812 846.333007812 142 845 c 0
 105 925 l 0
 105 947.666992188 110.666992188 971.166992188 122 995.5 c 0
 133.333007812 1019.83300781 149.5 1043.5 170.5 1066.5 c 0
 191.5 1089.5 216.666992188 1111.16699219 246 1131.5 c 0
 275.333007812 1151.83300781 307.833007812 1169.66699219 343.5 1185 c 0
 379.166992188 1200.33300781 417.333007812 1212.5 458 1221.5 c 0
 498.666992188 1230.5 541 1235 585 1235 c 0
 640.333007812 1235 690 1229.66699219 734 1219 c 0
 778 1208.33300781 815.5 1192.83300781 846.5 1172.5 c 0
 877.5 1152.16699219 901.333007812 1126.83300781 918 1096.5 c 0
 934.666992188 1066.16699219 943 1031.33300781 943 992 c 0
 943 962 938.833007812 932.166992188 930.5 902.5 c 0
 922.166992188 872.833007812 908.833007812 841.333007812 890.5 808 c 0
 872.166992188 774.666992188 848.333007812 738.5 819 699.5 c 0
 789.666992188 660.5 753.833007812 616.333007812 711.5 567 c 0
 669.166992188 517.666992188 619.833007812 462.333007812 563.5 401 c 0
 507.166992188 339.666992188 443 269.666992188 371 191 c 0
 764 191 l 0
 775.333007812 191 785.5 194 794.5 200 c 0
 803.5 206 811.5 213.833007812 818.5 223.5 c 0
 825.5 233.166992188 831.5 244.166992188 836.5 256.5 c 0
 841.5 268.833007812 845.666992188 281.666992188 849 295 c 0
 857 325.666992188 862.666992188 360.333007812 866 399 c 0
 956 377 l 0
 941 0 l 0
EndSplineSet
EndChar

StartChar: three
Encoding: 22 51 22
Width: 1061
VWidth: 1024
Flags: HW
LayerCount: 2
Fore
SplineSet
945 381 m 0
 945 325 933.333007812 272 910 222 c 0
 886.666992188 172 854.333007812 128.333007812 813 91 c 0
 771.666992188 53.6669921875 722.333007812 24.1669921875 665 2.5 c 0
 607.666992188 -19.1669921875 544.666992188 -30 476 -30 c 0
 450 -30 420.166992188 -26.6669921875 386.5 -20 c 0
 352.833007812 -13.3330078125 318.166992188 -3 282.5 11 c 0
 246.833007812 25 211.333007812 42.6669921875 176 64 c 0
 140.666992188 85.3330078125 108 110.333007812 78 139 c 0
 122 246 l 0
 182.666992188 200.666992188 238.833007812 168.333007812 290.5 149 c 0
 342.166992188 129.666992188 393 120 443 120 c 0
 471.666992188 120 498.833007812 124.5 524.5 133.5 c 0
 550.166992188 142.5 572.666992188 156.5 592 175.5 c 0
 611.333007812 194.5 626.666992188 219 638 249 c 0
 649.333007812 279 655 315.333007812 655 358 c 0
 655 402.666992188 648 440.166992188 634 470.5 c 0
 620 500.833007812 602.666992188 525 582 543 c 0
 561.333007812 561 539 573.833007812 515 581.5 c 0
 491 589.166992188 469.333007812 593 450 593 c 0
 426 593 l 0
 420 593 413.833007812 592.666992188 407.5 592 c 0
 401.166992188 591.333007812 394.5 590.666992188 387.5 590 c 0
 380.5 589.333007812 372 588 362 586 c 0
 343 686 l 0
 399 700.666992188 443.666992188 718.333007812 477 739 c 0
 510.333007812 759.666992188 536 781.5 554 804.5 c 0
 572 827.5 583.833007812 850.666992188 589.5 874 c 0
 595.166992188 897.333007812 598 919.333007812 598 940 c 0
 598 962.666992188 596 984.666992188 592 1006 c 0
 588 1027.33300781 581.333007812 1046 572 1062 c 0
 562.666992188 1078 550.166992188 1090.83300781 534.5 1100.5 c 0
 518.833007812 1110.16699219 499.333007812 1115 476 1115 c 0
 461.333007812 1115 447.333007812 1110.83300781 434 1102.5 c 0
 420.666992188 1094.16699219 409.5 1082.83300781 400.5 1068.5 c 0
 391.5 1054.16699219 385.666992188 1037 383 1017 c 0
 380.333007812 997 382.666992188 975.666992188 390 953 c 0
 375.333007812 944.333007812 357.833007812 935.666992188 337.5 927 c 0
 317.166992188 918.333007812 295.833007812 910.333007812 273.5 903 c 0
 251.166992188 895.666992188 228.5 889.5 205.5 884.5 c 0
 182.5 879.5 161 876 141 874 c 0
 105 945 l 0
 105 973 115.166992188 1003.83300781 135.5 1037.5 c 0
 155.833007812 1071.16699219 184.666992188 1102.66699219 222 1132 c 0
 259.333007812 1161.33300781 304.333007812 1185.83300781 357 1205.5 c 0
 409.666992188 1225.16699219 468.333007812 1235 533 1235 c 0
 597.666992188 1235 652.5 1227 697.5 1211 c 0
 742.5 1195 779.166992188 1173.83300781 807.5 1147.5 c 0
 835.833007812 1121.16699219 856.333007812 1091.5 869 1058.5 c 0
 881.666992188 1025.5 888 992 888 958 c 0
 888 932.666992188 882.833007812 906.833007812 872.5 880.5 c 0
 862.166992188 854.166992188 847.5 829 828.5 805 c 0
 809.5 781 787 759.5 761 740.5 c 0
 735 721.5 706.333007812 707.333007812 675 698 c 0
 717 694 754.666992188 682.833007812 788 664.5 c 0
 821.333007812 646.166992188 849.666992188 622.666992188 873 594 c 0
 896.333007812 565.333007812 914.166992188 532.833007812 926.5 496.5 c 0
 938.833007812 460.166992188 945 421.666992188 945 381 c 0
EndSplineSet
EndChar

StartChar: four
Encoding: 23 52 23
Width: 1061
VWidth: 1024
Flags: HW
LayerCount: 2
Fore
SplineSet
984 450 m 0
 976.666992188 439.333007812 968.333007812 428.166992188 959 416.5 c 0
 949.666992188 404.833007812 940 393.5 930 382.5 c 0
 920 371.5 910.166992188 361.5 900.5 352.5 c 0
 890.833007812 343.5 882.333007812 336 875 330 c 0
 825 330 l 0
 825 144 l 0
 825 138.666992188 827 133.833007812 831 129.5 c 0
 835 125.166992188 842.333007812 120.5 853 115.5 c 0
 863.666992188 110.5 878 105.333007812 896 100 c 0
 914 94.6669921875 936.666992188 89 964 83 c 0
 964 0 l 0
 355 0 l 0
 355 83 l 0
 398.333007812 90.3330078125 433.666992188 97.1669921875 461 103.5 c 0
 488.333007812 109.833007812 509.666992188 115.833007812 525 121.5 c 0
 540.333007812 127.166992188 550.833007812 132.666992188 556.5 138 c 0
 562.166992188 143.333007812 565 149 565 155 c 0
 565 330 l 0
 98 330 l 0
 55 373 l 0
 531 1164 l 0
 547.666992188 1169.33300781 566.833007812 1175.5 588.5 1182.5 c 0
 610.166992188 1189.5 632.333007812 1196.66699219 655 1204 c 0
 677.666992188 1211.33300781 699.833007812 1218.5 721.5 1225.5 c 0
 743.166992188 1232.5 762 1239 778 1245 c 0
 825 1200 l 0
 825 480 l 0
 958 480 l 0
 984 450 l 0
565 960 m 0
 263 480 l 0
 565 480 l 0
 565 960 l 0
EndSplineSet
EndChar

StartChar: five
Encoding: 24 53 24
Width: 1061
VWidth: 1024
Flags: HW
LayerCount: 2
Fore
SplineSet
946 410 m 0
 946 352 937.166992188 296.5 919.5 243.5 c 0
 901.833007812 190.5 874 143.666992188 836 103 c 0
 798 62.3330078125 749.666992188 30 691 6 c 0
 632.333007812 -18 562 -30 480 -30 c 0
 449.333007812 -30 416.5 -26.5 381.5 -19.5 c 0
 346.5 -12.5 311.333007812 -2 276 12 c 0
 240.666992188 26 206 43.1669921875 172 63.5 c 0
 138 83.8330078125 106.666992188 107.333007812 78 134 c 0
 133 231 l 0
 168.333007812 206.333007812 201.5 186.166992188 232.5 170.5 c 0
 263.5 154.833007812 292.5 142.5 319.5 133.5 c 0
 346.5 124.5 371.5 118.333007812 394.5 115 c 0
 417.5 111.666992188 438.666992188 110 458 110 c 0
 488 110 516.166992188 116.333007812 542.5 129 c 0
 568.833007812 141.666992188 592 159.166992188 612 181.5 c 0
 632 203.833007812 647.666992188 230.833007812 659 262.5 c 0
 670.333007812 294.166992188 676 329 676 367 c 0
 676 412.333007812 670 452.166992188 658 486.5 c 0
 646 520.833007812 629.666992188 549.333007812 609 572 c 0
 588.333007812 594.666992188 563.666992188 611.666992188 535 623 c 0
 506.333007812 634.333007812 475.666992188 640 443 640 c 0
 412.333007812 640 384.833007812 637.833007812 360.5 633.5 c 0
 336.166992188 629.166992188 313.833007812 623 293.5 615 c 0
 273.166992188 607 254.166992188 597.5 236.5 586.5 c 0
 218.833007812 575.5 201.333007812 563.333007812 184 550 c 0
 137 583 l 0
 141 607 145.666992188 635.833007812 151 669.5 c 0
 156.333007812 703.166992188 161.833007812 739.166992188 167.5 777.5 c 0
 173.166992188 815.833007812 178.833007812 855.166992188 184.5 895.5 c 0
 190.166992188 935.833007812 195.333007812 975 200 1013 c 0
 204.666992188 1051 208.666992188 1086.66699219 212 1120 c 0
 215.333007812 1153.33300781 217.666992188 1181.66699219 219 1205 c 0
 775 1205 l 0
 794.333007812 1205 811.333007812 1205.83300781 826 1207.5 c 0
 840.666992188 1209.16699219 853.333007812 1211.33300781 864 1214 c 0
 876 1216.66699219 886.666992188 1219.66699219 896 1223 c 0
 935 1184 l 0
 927.666992188 1173.33300781 917.5 1159 904.5 1141 c 0
 891.5 1123 877.833007812 1105 863.5 1087 c 0
 849.166992188 1069 835.5 1052.33300781 822.5 1037 c 0
 809.5 1021.66699219 799 1011 791 1005 c 0
 344 1005 l 0
 342.666992188 985.666992188 340.666992188 964.5 338 941.5 c 0
 335.333007812 918.5 332.333007812 895.5 329 872.5 c 0
 325.666992188 849.5 322 827.666992188 318 807 c 0
 314 786.333007812 310.666992188 768.666992188 308 754 c 0
 338.666992188 768.666992188 372.5 780 409.5 788 c 0
 446.5 796 487.666992188 800 533 800 c 0
 602.333007812 800 662.833007812 788.833007812 714.5 766.5 c 0
 766.166992188 744.166992188 809.166992188 714.833007812 843.5 678.5 c 0
 877.833007812 642.166992188 903.5 600.5 920.5 553.5 c 0
 937.5 506.5 946 458.666992188 946 410 c 0
EndSplineSet
EndChar

StartChar: six
Encoding: 25 54 25
Width: 1061
VWidth: 1024
Flags: HW
LayerCount: 2
Fore
SplineSet
1001 412 m 0
 1001 380.666992188 996.833007812 348 988.5 314 c 0
 980.166992188 280 968 246.666992188 952 214 c 0
 936 181.333007812 915.833007812 150.333007812 891.5 121 c 0
 867.166992188 91.6669921875 838.833007812 65.8330078125 806.5 43.5 c 0
 774.166992188 21.1669921875 738 3.3330078125 698 -10 c 0
 658 -23.3330078125 614 -30 566 -30 c 0
 500 -30 438 -17.8330078125 380 6.5 c 0
 322 30.8330078125 271.5 65 228.5 109 c 0
 185.5 153 151.666992188 205.833007812 127 267.5 c 0
 102.333007812 329.166992188 90 397.666992188 90 473 c 0
 90 567 106.666992188 657.166992188 140 743.5 c 0
 173.333007812 829.833007812 222.833007812 907.5 288.5 976.5 c 0
 354.166992188 1045.5 435.333007812 1103.83300781 532 1151.5 c 0
 628.666992188 1199.16699219 740.666992188 1231.66699219 868 1249 c 0
 897 1150 l 0
 815.666992188 1132.66699219 745.666992188 1109 687 1079 c 0
 628.333007812 1049 579 1014 539 974 c 0
 499 934 467.333007812 890 444 842 c 0
 420.666992188 794 404 743.666992188 394 691 c 0
 434.666992188 723 475.5 747.5 516.5 764.5 c 0
 557.5 781.5 595.666992188 790 631 790 c 0
 689 790 740.833007812 780.5 786.5 761.5 c 0
 832.166992188 742.5 870.833007812 716.333007812 902.5 683 c 0
 934.166992188 649.666992188 958.5 609.833007812 975.5 563.5 c 0
 992.5 517.166992188 1001 466.666992188 1001 412 c 0
560 640 m 0
 533.333007812 640 504.333007812 630.666992188 473 612 c 0
 441.666992188 593.333007812 410.666992188 568 380 536 c 0
 380 457.333007812 385.333007812 390.666992188 396 336 c 0
 406.666992188 281.333007812 421.333007812 236.833007812 440 202.5 c 0
 458.666992188 168.166992188 480.5 143.333007812 505.5 128 c 0
 530.5 112.666992188 557 105 585 105 c 0
 611.666992188 105 633.833007812 111.833007812 651.5 125.5 c 0
 669.166992188 139.166992188 683.166992188 157.333007812 693.5 180 c 0
 703.833007812 202.666992188 711 228.666992188 715 258 c 0
 719 287.333007812 721 317.333007812 721 348 c 0
 721 410.666992188 716.5 461 707.5 499 c 0
 698.5 537 686.5 566.5 671.5 587.5 c 0
 656.5 608.5 639.333007812 622.5 620 629.5 c 0
 600.666992188 636.5 580.666992188 640 560 640 c 0
EndSplineSet
EndChar

StartChar: seven
Encoding: 26 55 26
Width: 1061
VWidth: 1024
Flags: HW
LayerCount: 2
Fore
SplineSet
985 1167 m 0
 954.333007812 1095 924.166992188 1022.66699219 894.5 950 c 0
 864.833007812 877.333007812 836.166992188 805.666992188 808.5 735 c 0
 780.833007812 664.333007812 754.666992188 595.666992188 730 529 c 0
 705.333007812 462.333007812 682.5 399.833007812 661.5 341.5 c 0
 640.5 283.166992188 621.5 229.5 604.5 180.5 c 0
 587.5 131.5 573.333007812 89.3330078125 562 54 c 0
 550 46 533.833007812 37.8330078125 513.5 29.5 c 0
 493.166992188 21.1669921875 471.333007812 13.3330078125 448 6 c 0
 424.666992188 -1.3330078125 401.666992188 -8.1669921875 379 -14.5 c 0
 356.333007812 -20.8330078125 336.666992188 -26 320 -30 c 0
 269 13 l 0
 307.666992188 81 343.333007812 144.833007812 376 204.5 c 0
 408.666992188 264.166992188 439.166992188 321.333007812 467.5 376 c 0
 495.833007812 430.666992188 522.666992188 483.5 548 534.5 c 0
 573.333007812 585.5 597.833007812 636.5 621.5 687.5 c 0
 645.166992188 738.5 668.5 790 691.5 842 c 0
 714.5 894 738.333007812 948.333007812 763 1005 c 0
 319 1005 l 0
 309 1005 298.333007812 1003.66699219 287 1001 c 0
 275.666992188 998.333007812 263.666992188 991.5 251 980.5 c 0
 238.333007812 969.5 225.166992188 953 211.5 931 c 0
 197.833007812 909 184 878.666992188 170 840 c 0
 94 868 l 0
 95.3330078125 878 97.3330078125 892 100 910 c 0
 102.666992188 928 105.5 947.833007812 108.5 969.5 c 0
 111.5 991.166992188 114.666992188 1013.83300781 118 1037.5 c 0
 121.333007812 1061.16699219 124.666992188 1083.66699219 128 1105 c 0
 131.333007812 1126.33300781 134.666992188 1145.83300781 138 1163.5 c 0
 141.333007812 1181.16699219 144.333007812 1195 147 1205 c 0
 952 1205 l 0
 985 1167 l 0
EndSplineSet
EndChar

StartChar: eight
Encoding: 27 56 27
Width: 1061
VWidth: 1024
Flags: HW
LayerCount: 2
Fore
SplineSet
987 352 m 0
 987 300 974.833007812 251 950.5 205 c 0
 926.166992188 159 892.666992188 118.5 850 83.5 c 0
 807.333007812 48.5 757 20.8330078125 699 0.5 c 0
 641 -19.8330078125 578.333007812 -30 511 -30 c 0
 439 -30 375.666992188 -21.3330078125 321 -4 c 0
 266.333007812 13.3330078125 220.833007812 36.6669921875 184.5 66 c 0
 148.166992188 95.3330078125 120.666992188 128.833007812 102 166.5 c 0
 83.3330078125 204.166992188 74 243.666992188 74 285 c 0
 74 319 80.8330078125 352.166992188 94.5 384.5 c 0
 108.166992188 416.833007812 127.166992188 447.666992188 151.5 477 c 0
 175.833007812 506.333007812 205 533.666992188 239 559 c 0
 273 584.333007812 310.333007812 607.333007812 351 628 c 0
 321 642 292.333007812 657.166992188 265 673.5 c 0
 237.666992188 689.833007812 213.666992188 709.166992188 193 731.5 c 0
 172.333007812 753.833007812 155.833007812 779.833007812 143.5 809.5 c 0
 131.166992188 839.166992188 125 874.333007812 125 915 c 0
 125 961 135.833007812 1003.66699219 157.5 1043 c 0
 179.166992188 1082.33300781 208.833007812 1116.16699219 246.5 1144.5 c 0
 284.166992188 1172.83300781 328.333007812 1195 379 1211 c 0
 429.666992188 1227 484 1235 542 1235 c 0
 609.333007812 1235 667.833007812 1228.33300781 717.5 1215 c 0
 767.166992188 1201.66699219 808.166992188 1183.33300781 840.5 1160 c 0
 872.833007812 1136.66699219 897 1108.66699219 913 1076 c 0
 929 1043.33300781 937 1007.66699219 937 969 c 0
 937 943 931.333007812 918.333007812 920 895 c 0
 908.666992188 871.666992188 893.166992188 849.166992188 873.5 827.5 c 0
 853.833007812 805.833007812 830.666992188 784.833007812 804 764.5 c 0
 777.333007812 744.166992188 748.333007812 724.333007812 717 705 c 0
 751.666992188 689 785.333007812 671 818 651 c 0
 850.666992188 631 879.5 607.166992188 904.5 579.5 c 0
 929.5 551.833007812 949.5 519.5 964.5 482.5 c 0
 979.5 445.5 987 402 987 352 c 0
697 309 m 0
 697 345.666992188 691.166992188 377.666992188 679.5 405 c 0
 667.833007812 432.333007812 652 456.166992188 632 476.5 c 0
 612 496.833007812 588.666992188 514.666992188 562 530 c 0
 535.333007812 545.333007812 507.333007812 559.666992188 478 573 c 0
 440.666992188 533.666992188 412.333007812 494 393 454 c 0
 373.666992188 414 364 367.666992188 364 315 c 0
 364 280.333007812 369.333007812 249.666992188 380 223 c 0
 390.666992188 196.333007812 404.5 173.833007812 421.5 155.5 c 0
 438.5 137.166992188 457.333007812 123.333007812 478 114 c 0
 498.666992188 104.666992188 519.333007812 100 540 100 c 0
 564 100 585.833007812 105.5 605.5 116.5 c 0
 625.166992188 127.5 641.666992188 142.333007812 655 161 c 0
 668.333007812 179.666992188 678.666992188 201.666992188 686 227 c 0
 693.333007812 252.333007812 697 279.666992188 697 309 c 0
385 950 m 0
 385 926 390.166992188 905 400.5 887 c 0
 410.833007812 869 425 852.666992188 443 838 c 0
 461 823.333007812 482 809.833007812 506 797.5 c 0
 530 785.166992188 555.666992188 773.333007812 583 762 c 0
 633 821.333007812 657.666992188 880 657 938 c 0
 657 972.666992188 652.666992188 1001.16699219 644 1023.5 c 0
 635.333007812 1045.83300781 624.166992188 1063.5 610.5 1076.5 c 0
 596.833007812 1089.5 581.333007812 1098.5 564 1103.5 c 0
 546.666992188 1108.5 529 1111 511 1111 c 0
 491 1111 473.333007812 1106.83300781 458 1098.5 c 0
 442.666992188 1090.16699219 429.5 1078.66699219 418.5 1064 c 0
 407.5 1049.33300781 399.166992188 1032.33300781 393.5 1013 c 0
 387.833007812 993.666992188 385 972.666992188 385 950 c 0
EndSplineSet
EndChar

StartChar: nine
Encoding: 28 57 28
Width: 1061
VWidth: 1024
Flags: HW
LayerCount: 2
Fore
SplineSet
990 731 m 0
 990 629.666992188 973.5 535 940.5 447 c 0
 907.5 359 858.5 281.166992188 793.5 213.5 c 0
 728.5 145.833007812 647.166992188 89.6669921875 549.5 45 c 0
 451.833007812 0.3330078125 338.666992188 -29 210 -43 c 0
 182 56 l 0
 276 78.6669921875 354.333007812 105.666992188 417 137 c 0
 479.666992188 168.333007812 530.5 203.333007812 569.5 242 c 0
 608.5 280.666992188 637.5 323 656.5 369 c 0
 675.5 415 688 464 694 516 c 0
 660 484.666992188 622.166992188 460 580.5 442 c 0
 538.833007812 424 494.666992188 415 448 415 c 0
 387.333007812 415 334.166992188 425.5 288.5 446.5 c 0
 242.833007812 467.5 204.5 495.5 173.5 530.5 c 0
 142.5 565.5 119.166992188 605.833007812 103.5 651.5 c 0
 87.8330078125 697.166992188 80 745 80 795 c 0
 80 845.666992188 91.3330078125 897 114 949 c 0
 136.666992188 1001 168.5 1048.16699219 209.5 1090.5 c 0
 250.5 1132.83300781 299.5 1167.5 356.5 1194.5 c 0
 413.5 1221.5 476.666992188 1235 546 1235 c 0
 612.666992188 1235 673.166992188 1225.33300781 727.5 1206 c 0
 781.833007812 1186.66699219 828.5 1156.5 867.5 1115.5 c 0
 906.5 1074.5 936.666992188 1022.33300781 958 959 c 0
 979.333007812 895.666992188 990 819.666992188 990 731 c 0
521 575 m 0
 556.333007812 575 588.833007812 583.5 618.5 600.5 c 0
 648.166992188 617.5 675.333007812 639.666992188 700 667 c 0
 698.666992188 759.666992188 692.666992188 834.333007812 682 891 c 0
 671.333007812 947.666992188 658 991.5 642 1022.5 c 0
 626 1053.5 607.833007812 1074.16699219 587.5 1084.5 c 0
 567.166992188 1094.83300781 546.333007812 1100 525 1100 c 0
 473 1100 432.5 1079.16699219 403.5 1037.5 c 0
 374.5 995.833007812 360 935.333007812 360 856 c 0
 360 802 365.666992188 756.833007812 377 720.5 c 0
 388.333007812 684.166992188 402.333007812 655.333007812 419 634 c 0
 435.666992188 612.666992188 453.333007812 597.5 472 588.5 c 0
 490.666992188 579.5 507 575 521 575 c 0
EndSplineSet
EndChar

StartChar: colon
Encoding: 29 58 29
Width: 579
VWidth: 1024
Flags: HW
LayerCount: 2
Fore
SplineSet
482 148 m 0
 482 124 477.666666667 101.666666667 469 81 c 0
 460.333333333 59.6666666667 448 41.3333333333 432 26 c 0
 416 10 397.666666667 -2.66666666667 377 -12 c 0
 355.666666667 -21.3333333333 332.666666667 -26 308 -26 c 0
 284 -26 261.333333333 -21.3333333333 240 -12 c 0
 218.666666667 -2.66666666667 200 10 184 26 c 0
 168 42 155.333333333 60.3333333333 146 81 c 0
 136.666666667 102.333333333 132 124.666666667 132 148 c 0
 132 172.666666667 136.666666667 195.666666667 146 217 c 0
 155.333333333 238.333333333 168 257 184 273 c 0
 200 289 218.666666667 301.666666667 240 311 c 0
 261.333333333 320.333333333 284 325 308 325 c 0
 332.666666667 325 355.666666667 320.333333333 377 311 c 0
 398.333333333 301.666666667 416.666666667 289 432 273 c 0
 448 257 460.333333333 238.333333333 469 217 c 0
 477.666666667 195.666666667 482 172.666666667 482 148 c 0
482 872 m 0
 482 847.333333333 477.666666667 824.666666667 469 804 c 0
 460.333333333 782.666666667 448 764.333333333 432 749 c 0
 416 733 397.666666667 720.666666667 377 712 c 0
 355.666666667 703.333333333 332.666666667 698.666666667 308 698 c 0
 284 698 261.333333333 702.666666667 240 712 c 0
 218.666666667 720.666666667 200 733 184 749 c 0
 168 765 155.333333333 783.333333333 146 804 c 0
 136.666666667 825.333333333 132 848 132 872 c 0
 132 896 136.666666667 919 146 941 c 0
 155.333333333 962.333333333 168 981 184 997 c 0
 200 1013 218.666666667 1025.66666667 240 1035 c 0
 261.333333333 1044.33333333 284 1049 308 1049 c 0
 332.666666667 1049 355.666666667 1044.33333333 377 1035 c 0
 398.333333333 1025.66666667 416.666666667 1013 432 997 c 0
 448 981 460.333333333 962.333333333 469 941 c 0
 477.666666667 919 482 896 482 872 c 0
EndSplineSet
Refer: 17 46 N 1 0 0 1 0 684 2
Refer: 17 46 N 1 0 0 1 0 0 2
EndChar

StartChar: semicolon
Encoding: 30 59 30
Width: 579
VWidth: 1024
Flags: HW
LayerCount: 2
Fore
SplineSet
508 124 m 0
 508 80 501.666666667 38 489 -2 c 0
 477 -42 460.666666667 -80 440 -116 c 0
 419.333333333 -152 394.666666667 -185 366 -215 c 0
 338 -245 307.666666667 -270.666666667 275 -292 c 0
 243 -314 210 -332 176 -346 c 0
 141.333333333 -359.333333333 107.333333333 -367 74 -369 c 0
 74 -266 l 0
 100.666666667 -262 129 -254.333333333 159 -243 c 0
 189.666666667 -231.666666667 217.666666667 -215.333333333 243 -194 c 0
 268.333333333 -172 288.666666667 -144 304 -110 c 0
 320 -76 327 -34.6666666667 325 14 c 0
 198 14 l 0
 185.333333333 24 174.666666667 35 166 47 c 0
 158 58.3333333333 151.333333333 69.6666666667 146 81 c 0
 140.666666667 92.3333333333 137 104 135 116 c 0
 133 127.333333333 132 138 132 148 c 0
 132 174.666666667 137 199 147 221 c 0
 157 242.333333333 170 260.666666667 186 276 c 0
 202.666666667 291.333333333 221.666666667 303.333333333 243 312 c 0
 264.333333333 320.666666667 286 325 308 325 c 0
 371.333333333 325 420.666666667 306.666666667 456 270 c 0
 490.666666667 234 508 185.333333333 508 124 c 0
482 872 m 0
 482 847.333333333 477.666666667 824.666666667 469 804 c 0
 460.333333333 782.666666667 448 764.333333333 432 749 c 0
 416 733 397.666666667 720.666666667 377 712 c 0
 355.666666667 703.333333333 332.666666667 698.666666667 308 698 c 0
 284 698 261.333333333 702.666666667 240 712 c 0
 218.666666667 720.666666667 200 733 184 749 c 0
 168 765 155.333333333 783.333333333 146 804 c 0
 136.666666667 825.333333333 132 848 132 872 c 0
 132 896 136.666666667 919 146 941 c 0
 155.333333333 962.333333333 168 981 184 997 c 0
 200 1013 218.666666667 1025.66666667 240 1035 c 0
 261.333333333 1044.33333333 284 1049 308 1049 c 0
 332.666666667 1049 355.666666667 1044.33333333 377 1035 c 0
 398.333333333 1025.66666667 416.666666667 1013 432 997 c 0
 448 981 460.333333333 962.333333333 469 941 c 0
 477.666666667 919 482 896 482 872 c 0
EndSplineSet
Refer: 17 46 N 1 0 0 1 0 684 2
Refer: 15 44 N 1 0 0 1 0 0 2
EndChar

StartChar: less
Encoding: 31 60 31
Width: 940
VWidth: 1024
Flags: HW
LayerCount: 2
Fore
SplineSet
890 336 m 0
 882.666992188 329.333007812 874.5 321.5 865.5 312.5 c 0
 856.5 303.5 847.166992188 294.333007812 837.5 285 c 0
 827.833007812 275.666992188 817.666992188 266.666992188 807 258 c 0
 796.333007812 249.333007812 786 242 776 236 c 0
 85 480 l 0
 50 525 l 0
 50 527 50.3330078125 528.333007812 51 529 c 0
 51 530.333007812 51.1669921875 531.166992188 51.5 531.5 c 0
 51.8330078125 531.833007812 52 532.666992188 52 534 c 0
 54 540 l 0
 56 549 l 0
 60 563 l 0
 64 574 l 0
 68 589 l 0
 72 601 l 0
 72.6669921875 604.333007812 74.3330078125 609.333007812 77 616 c 0
 77 617.333007812 77.3330078125 618.333007812 78 619 c 0
 80 626 l 0
 80.6669921875 626.666992188 81 627.666992188 81 629 c 0
 86 642 l 0
 91 654 l 0
 855 927 l 0
 890 892 l 0
 888 884.666992188 885.333007812 874.666992188 882 862 c 0
 878.666992188 849.333007812 875 836 871 822 c 0
 867 808 863.166992188 794.666992188 859.5 782 c 0
 855.833007812 769.333007812 853 760 851 754 c 0
 333 568 l 0
 863 382 l 0
 890 336 l 0
EndSplineSet
EndChar

StartChar: equal
Encoding: 32 61 32
Width: 940
VWidth: 1024
Flags: HW
LayerCount: 2
Fore
SplineSet
890 756 m 0
 888 748.666992188 884.666992188 739.333007812 880 728 c 0
 875.333007812 716.666992188 870.333007812 705 865 693 c 0
 859.666992188 681 854.666992188 669.666992188 850 659 c 0
 845.333007812 648.333007812 841.666992188 640.333007812 839 635 c 0
 85 635 l 0
 50 669 l 0
 52 676.333007812 55.1669921875 685.5 59.5 696.5 c 0
 63.8330078125 707.5 68.5 718.833007812 73.5 730.5 c 0
 78.5 742.166992188 83.5 753.333007812 88.5 764 c 0
 93.5 774.666992188 97.6669921875 783.333007812 101 790 c 0
 855 790 l 0
 890 756 l 0
890 456 m 0
 888 448.666992188 884.666992188 439.333007812 880 428 c 0
 875.333007812 416.666992188 870.333007812 405 865 393 c 0
 859.666992188 381 854.666992188 369.666992188 850 359 c 0
 845.333007812 348.333007812 841.666992188 340.333007812 839 335 c 0
 85 335 l 0
 50 369 l 0
 52 376.333007812 55.1669921875 385.5 59.5 396.5 c 0
 63.8330078125 407.5 68.5 418.833007812 73.5 430.5 c 0
 78.5 442.166992188 83.5 453.333007812 88.5 464 c 0
 93.5 474.666992188 97.6669921875 483.333007812 101 490 c 0
 855 490 l 0
 890 456 l 0
EndSplineSet
EndChar

StartChar: greater
Encoding: 33 62 33
Width: 940
VWidth: 1024
Flags: HW
LayerCount: 2
Fore
SplineSet
890 638 m 0
 885.333007812 618.666992188 879 596.666992188 871 572 c 0
 863 547.333007812 855.666992188 526.333007812 849 509 c 0
 85 236 l 0
 50 271 l 0
 52 277.666992188 54.6669921875 287.5 58 300.5 c 0
 61.3330078125 313.5 65 327 69 341 c 0
 73 355 76.8330078125 368.333007812 80.5 381 c 0
 84.1669921875 393.666992188 87 403 89 409 c 0
 607 594 l 0
 77 781 l 0
 50 827 l 0
 57.3330078125 833.666992188 65.5 841.5 74.5 850.5 c 0
 83.5 859.5 92.8330078125 868.666992188 102.5 878 c 0
 112.166992188 887.333007812 122.333007812 896.333007812 133 905 c 0
 143.666992188 913.666992188 154 921 164 927 c 0
 855 683 l 0
 890 638 l 0
EndSplineSet
EndChar

StartChar: question
Encoding: 34 63 34
Width: 947
VWidth: 1024
Flags: HW
LayerCount: 2
Fore
SplineSet
631 133 m 0
 631 105 625.666992188 80.1669921875 615 58.5 c 0
 604.333007812 36.8330078125 590 18.8330078125 572 4.5 c 0
 554 -9.8330078125 533 -20.8330078125 509 -28.5 c 0
 485 -36.1669921875 459.666992188 -40 433 -40 c 0
 413 -40 393.333007812 -37.3330078125 374 -32 c 0
 354.666992188 -26.6669921875 337.5 -18.3330078125 322.5 -7 c 0
 307.5 4.3330078125 295.5 19 286.5 37 c 0
 277.5 55 273 76.6669921875 273 102 c 0
 273 129.333007812 278.5 153.833007812 289.5 175.5 c 0
 300.5 197.166992188 315.166992188 215.5 333.5 230.5 c 0
 351.833007812 245.5 373 256.833007812 397 264.5 c 0
 421 272.166992188 446 276 472 276 c 0
 490.666992188 276 509.5 273.333007812 528.5 268 c 0
 547.5 262.666992188 564.666992188 254.166992188 580 242.5 c 0
 595.333007812 230.833007812 607.666992188 216 617 198 c 0
 626.333007812 180 631 158.333007812 631 133 c 0
886 1165 m 0
 886 1115 877.333007812 1069.16699219 860 1027.5 c 0
 842.666992188 985.833007812 820.666992188 947.166992188 794 911.5 c 0
 767.333007812 875.833007812 738.5 842 707.5 810 c 0
 676.5 778 647.5 746.166992188 620.5 714.5 c 0
 593.5 682.833007812 570.5 650.833007812 551.5 618.5 c 0
 532.5 586.166992188 521.666992188 551.666992188 519 515 c 0
 513 419 l 0
 500.333007812 409.666992188 484.166992188 401.833007812 464.5 395.5 c 0
 444.833007812 389.166992188 425.666992188 383.333007812 407 378 c 0
 372 409 l 0
 364 515 l 0
 362 553 366.166992188 590 376.5 626 c 0
 386.833007812 662 400.5 697.166992188 417.5 731.5 c 0
 434.5 765.833007812 453.166992188 799.5 473.5 832.5 c 0
 493.833007812 865.5 512.833007812 898 530.5 930 c 0
 548.166992188 962 562.833007812 993.666992188 574.5 1025 c 0
 586.166992188 1056.33300781 592 1088 592 1120 c 0
 592 1202 580.333007812 1261.5 557 1298.5 c 0
 533.666992188 1335.5 502.666992188 1354 464 1354 c 0
 450 1354 436.333007812 1350.16699219 423 1342.5 c 0
 409.666992188 1334.83300781 397.833007812 1323.66699219 387.5 1309 c 0
 377.166992188 1294.33300781 369 1276.66699219 363 1256 c 0
 357 1235.33300781 354 1212 354 1186 c 0
 354 1176.66699219 355.166992188 1165.33300781 357.5 1152 c 0
 359.833007812 1138.66699219 362.666992188 1127.33300781 366 1118 c 0
 355.333007812 1112.66699219 338.166992188 1106.33300781 314.5 1099 c 0
 290.833007812 1091.66699219 265.5 1084.66699219 238.5 1078 c 0
 211.5 1071.33300781 185.166992188 1065.33300781 159.5 1060 c 0
 133.833007812 1054.66699219 113.666992188 1051.33300781 99 1050 c 0
 62 1090 l 0
 60.6669921875 1095.33300781 60 1104 60 1116 c 0
 60 1143 l 0
 60 1189.66699219 72.8330078125 1233.5 98.5 1274.5 c 0
 124.166992188 1315.5 158.666992188 1351.33300781 202 1382 c 0
 245.333007812 1412.66699219 295.5 1436.66699219 352.5 1454 c 0
 409.5 1471.33300781 469.333007812 1480 532 1480 c 0
 588.666992188 1480 639 1472.33300781 683 1457 c 0
 727 1441.66699219 764 1420.16699219 794 1392.5 c 0
 824 1364.83300781 846.833007812 1331.66699219 862.5 1293 c 0
 878.166992188 1254.33300781 886 1211.66699219 886 1165 c 0
EndSplineSet
EndChar

StartChar: at
Encoding: 35 64 35
Width: 1843
VWidth: 1024
Flags: HW
LayerCount: 2
Fore
SplineSet
1753 579 m 0
 1753 523 1746.33300781 469 1733 417 c 0
 1719.66699219 365 1701 316.5 1677 271.5 c 0
 1653 226.5 1624.83300781 185.5 1592.5 148.5 c 0
 1560.16699219 111.5 1524.83300781 79.8330078125 1486.5 53.5 c 0
 1448.16699219 27.1669921875 1407.83300781 6.6669921875 1365.5 -8 c 0
 1323.16699219 -22.6669921875 1280.33300781 -30 1237 -30 c 0
 1215.66699219 -30 1195.83300781 -27.6669921875 1177.5 -23 c 0
 1159.16699219 -18.3330078125 1142.5 -10.1669921875 1127.5 1.5 c 0
 1112.5 13.1669921875 1099.16699219 28.6669921875 1087.5 48 c 0
 1075.83300781 67.3330078125 1066.66699219 92 1060 122 c 0
 1032.66699219 91.3330078125 1009 66.1669921875 989 46.5 c 0
 969 26.8330078125 949.666992188 11.3330078125 931 0 c 0
 912.333007812 -11.3330078125 893.166992188 -19.1669921875 873.5 -23.5 c 0
 853.833007812 -27.8330078125 830.666992188 -30 804 -30 c 0
 770 -30 735.5 -21.1669921875 700.5 -3.5 c 0
 665.5 14.1669921875 634 41.8330078125 606 79.5 c 0
 578 117.166992188 555 165.166992188 537 223.5 c 0
 519 281.833007812 510 352 510 434 c 0
 510 477.333007812 514.333007812 520.333007812 523 563 c 0
 531.666992188 605.666992188 544.5 646.5 561.5 685.5 c 0
 578.5 724.5 599.5 760.833007812 624.5 794.5 c 0
 649.5 828.166992188 678.333007812 857.166992188 711 881.5 c 0
 743.666992188 905.833007812 779.833007812 925 819.5 939 c 0
 859.166992188 953 902.333007812 960 949 960 c 0
 964.333007812 960 978.833007812 958.833007812 992.5 956.5 c 0
 1006.16699219 954.166992188 1019.83300781 949.833007812 1033.5 943.5 c 0
 1047.16699219 937.166992188 1061 928 1075 916 c 0
 1089 904 1103.66699219 888.333007812 1119 869 c 0
 1140.33300781 875.666992188 1159.83300781 882.333007812 1177.5 889 c 0
 1195.16699219 895.666992188 1212 902.5 1228 909.5 c 0
 1244 916.5 1259.66699219 924.166992188 1275 932.5 c 0
 1290.33300781 940.833007812 1306.33300781 950 1323 960 c 0
 1354 930 l 0
 1348 905.333007812 1343 879.666992188 1339 853 c 0
 1335 830.333007812 1331.5 805 1328.5 777 c 0
 1325.5 749 1324 721 1324 693 c 0
 1324 285 l 0
 1324 267.666992188 1324.5 252.5 1325.5 239.5 c 0
 1326.5 226.5 1329 215.5 1333 206.5 c 0
 1337 197.5 1342.83300781 190.666992188 1350.5 186 c 0
 1358.16699219 181.333007812 1368.66699219 179 1382 179 c 0
 1398.66699219 179 1416 185.833007812 1434 199.5 c 0
 1452 213.166992188 1468.33300781 233.666992188 1483 261 c 0
 1497.66699219 288.333007812 1509.66699219 323 1519 365 c 0
 1528.33300781 407 1533 456 1533 512 c 0
 1533 626.666992188 1519.16699219 726.166992188 1491.5 810.5 c 0
 1463.83300781 894.833007812 1424.83300781 964.5 1374.5 1019.5 c 0
 1324.16699219 1074.5 1263.33300781 1115.5 1192 1142.5 c 0
 1120.66699219 1169.5 1041.66699219 1183 955 1183 c 0
 853 1183 763.666992188 1165.66699219 687 1131 c 0
 610.333007812 1096.33300781 546.166992188 1049 494.5 989 c 0
 442.833007812 929 404.166992188 859 378.5 779 c 0
 352.833007812 699 340 614 340 524 c 0
 340 396 357.166992188 284.333007812 391.5 189 c 0
 425.833007812 93.6669921875 472.666992188 14.6669921875 532 -48 c 0
 591.333007812 -110.666992188 661.333007812 -157.5 742 -188.5 c 0
 822.666992188 -219.5 909.666992188 -235 1003 -235 c 0
 1069 -235 1130.5 -229.166992188 1187.5 -217.5 c 0
 1244.5 -205.833007812 1296 -191.333007812 1342 -174 c 0
 1388 -156.666992188 1428 -138 1462 -118 c 0
 1496 -98 1523 -79.3330078125 1543 -62 c 0
 1596 -159 l 0
 1572 -187 1540.83300781 -216.5 1502.5 -247.5 c 0
 1464.16699219 -278.5 1418.5 -307.166992188 1365.5 -333.5 c 0
 1312.5 -359.833007812 1251.66699219 -381.666992188 1183 -399 c 0
 1114.33300781 -416.333007812 1038 -425 954 -425 c 0
 826.666992188 -425 710 -405 604 -365 c 0
 498 -325 407 -267 331 -191 c 0
 255 -115 195.833007812 -21.8330078125 153.5 88.5 c 0
 111.166992188 198.833007812 90 324.333007812 90 465 c 0
 90 547 100.5 626.5 121.5 703.5 c 0
 142.5 780.5 172.333007812 852.5 211 919.5 c 0
 249.666992188 986.5 296.333007812 1047.83300781 351 1103.5 c 0
 405.666992188 1159.16699219 466.5 1207 533.5 1247 c 0
 600.5 1287 672.833007812 1318 750.5 1340 c 0
 828.166992188 1362 909.333007812 1373 994 1373 c 0
 1106 1373 1208.5 1357 1301.5 1325 c 0
 1394.5 1293 1474.5 1244.33300781 1541.5 1179 c 0
 1608.5 1113.66699219 1660.5 1031.16699219 1697.5 931.5 c 0
 1734.5 831.833007812 1753 714.333007812 1753 579 c 0
1054 731 m 0
 1040.66699219 758.333007812 1025.5 780 1008.5 796 c 0
 991.5 812 968 820 938 820 c 0
 884.666992188 820 845 792 819 736 c 0
 793 680 780 589.666992188 780 465 c 0
 780 408.333007812 784 361.666992188 792 325 c 0
 800 288.333007812 810.5 259.166992188 823.5 237.5 c 0
 836.5 215.833007812 851 200.833007812 867 192.5 c 0
 883 184.166992188 899 180 915 180 c 0
 927.666992188 180 939.333007812 181.5 950 184.5 c 0
 960.666992188 187.5 971.166992188 193.166992188 981.5 201.5 c 0
 991.833007812 209.833007812 1002.66699219 221.166992188 1014 235.5 c 0
 1025.33300781 249.833007812 1038.66699219 268 1054 290 c 0
 1054 731 l 0
EndSplineSet
EndChar

StartChar: A
Encoding: 36 65 36
Width: 1309
VWidth: 1024
Flags: HW
LayerCount: 2
Fore
SplineSet
396 425 m 0
 305 151 l 0
 298.333007812 130.333007812 306.166992188 115.333007812 328.5 106 c 0
 350.833007812 96.6669921875 389.333007812 89 444 83 c 0
 444 0 l 0
 0 0 l 0
 0 83 l 0
 45.3330078125 91 79.6669921875 99.3330078125 103 108 c 0
 126.333007812 116.666992188 141.333007812 131 148 151 c 0
 490 1197 l 0
 508 1212.33300781 527.833007812 1226.16699219 549.5 1238.5 c 0
 571.166992188 1250.83300781 593.333007812 1262 616 1272 c 0
 638.666992188 1282 661.166992188 1290.66699219 683.5 1298 c 0
 705.833007812 1305.33300781 727 1311.66699219 747 1317 c 0
 1167 151 l 0
 1170.33300781 141.666992188 1174.5 133.333007812 1179.5 126 c 0
 1184.5 118.666992188 1191.5 112.333007812 1200.5 107 c 0
 1209.5 101.666992188 1221 97 1235 93 c 0
 1249 89 1266.66699219 85.6669921875 1288 83 c 0
 1288 0 l 0
 766 0 l 0
 766 83 l 0
 817.333007812 85.6669921875 852.166992188 92.1669921875 870.5 102.5 c 0
 888.833007812 112.833007812 894.333007812 129 887 151 c 0
 789 425 l 0
 396 425 l 0
743 555 m 0
 582 1003 l 0
 439 555 l 0
 743 555 l 0
EndSplineSet
EndChar

StartChar: B
Encoding: 37 66 37
Width: 1266
VWidth: 1024
Flags: HW
LayerCount: 2
Fore
SplineSet
1166 356 m 0
 1166 299.333007812 1154 248.166992188 1130 202.5 c 0
 1106 156.833007812 1071 118 1025 86 c 0
 979 54 922.666992188 29.3330078125 856 12 c 0
 789.333007812 -5.3330078125 713.666992188 -14 629 -14 c 0
 614.333007812 -14 595.833007812 -13.8330078125 573.5 -13.5 c 0
 551.166992188 -13.1669921875 526.833007812 -12.6669921875 500.5 -12 c 0
 474.166992188 -11.3330078125 446.5 -10.6669921875 417.5 -10 c 0
 388.5 -9.3330078125 360 -8.3330078125 332 -7 c 0
 266 -5 196.333007812 -2.6669921875 123 0 c 0
 40 0 l 0
 40 83 l 0
 85.3330078125 92.3330078125 119.166992188 102.5 141.5 113.5 c 0
 163.833007812 124.5 175 134.666992188 175 144 c 0
 175 1156 l 0
 149 1153.33300781 124.5 1150.5 101.5 1147.5 c 0
 78.5 1144.5 58 1141.33300781 40 1138 c 0
 26 1230 l 0
 56.6669921875 1237.33300781 93.5 1244.5 136.5 1251.5 c 0
 179.5 1258.5 224.666992188 1264.83300781 272 1270.5 c 0
 319.333007812 1276.16699219 367 1280.83300781 415 1284.5 c 0
 463 1288.16699219 507.666992188 1290 549 1290 c 0
 628.333007812 1290 699.333007812 1283.83300781 762 1271.5 c 0
 824.666992188 1259.16699219 877.666992188 1241.33300781 921 1218 c 0
 964.333007812 1194.66699219 997.5 1166.33300781 1020.5 1133 c 0
 1043.5 1099.66699219 1055 1062 1055 1020 c 0
 1055 948 1035.16699219 886.333007812 995.5 835 c 0
 955.833007812 783.666992188 895.666992188 746.333007812 815 723 c 0
 867.666992188 715 915.5 700 958.5 678 c 0
 1001.5 656 1038.33300781 628.833007812 1069 596.5 c 0
 1099.66699219 564.166992188 1123.5 527.5 1140.5 486.5 c 0
 1157.5 445.5 1166 402 1166 356 c 0
580 635 m 0
 550 635 525.833007812 633.666992188 507.5 631 c 0
 489.166992188 628.333007812 471.666992188 625.333007812 455 622 c 0
 455 134 l 0
 455 130 456 125.666992188 458 121 c 0
 476.666992188 113 496 107.5 516 104.5 c 0
 536 101.5 559.666992188 100 587 100 c 0
 683 100 754.5 121.5 801.5 164.5 c 0
 848.5 207.5 872 266.666992188 872 342 c 0
 872 378.666992188 867.666992188 414.5 859 449.5 c 0
 850.333007812 484.5 835 515.833007812 813 543.5 c 0
 791 571.166992188 761.166992188 593.333007812 723.5 610 c 0
 685.833007812 626.666992188 638 635 580 635 c 0
483 1176 m 0
 478.333007812 1176 473.833007812 1175.83300781 469.5 1175.5 c 0
 465.166992188 1175.16699219 460.333007812 1175 455 1175 c 0
 455 745 l 0
 469 745 l 0
 532.333007812 745 583.666992188 751.333007812 623 764 c 0
 662.333007812 776.666992188 692.833007812 793.5 714.5 814.5 c 0
 736.166992188 835.5 750.833007812 859.666992188 758.5 887 c 0
 766.166992188 914.333007812 770 942.333007812 770 971 c 0
 770 1004.33300781 765.333007812 1033.66699219 756 1059 c 0
 746.666992188 1084.33300781 730.833007812 1105.66699219 708.5 1123 c 0
 686.166992188 1140.33300781 656.666992188 1153.5 620 1162.5 c 0
 583.333007812 1171.5 537.666992188 1176 483 1176 c 0
EndSplineSet
EndChar

StartChar: C
Encoding: 38 67 38
Width: 1158
VWidth: 1024
Flags: HW
LayerCount: 2
Fore
SplineSet
1088 211 m 0
 1002.66699219 125 918.166992188 63.3330078125 834.5 26 c 0
 750.833007812 -11.3330078125 669.666992188 -30 591 -30 c 0
 521.666992188 -30 454.5 -16 389.5 12 c 0
 324.5 40 266.833007812 80.3330078125 216.5 133 c 0
 166.166992188 185.666992188 125.833007812 250.166992188 95.5 326.5 c 0
 65.1669921875 402.833007812 50 489.333007812 50 586 c 0
 50 692.666992188 66.5 789.333007812 99.5 876 c 0
 132.5 962.666992188 177.833007812 1036.83300781 235.5 1098.5 c 0
 293.166992188 1160.16699219 361.333007812 1207.66699219 440 1241 c 0
 518.666992188 1274.33300781 604 1290.66699219 696 1290 c 0
 732 1290 768.333007812 1287.33300781 805 1282 c 0
 841.666992188 1276.66699219 876.666992188 1269.5 910 1260.5 c 0
 943.333007812 1251.5 973.833007812 1241 1001.5 1229 c 0
 1029.16699219 1217 1051.66699219 1204 1069 1190 c 0
 1071.66699219 1188 1071.5 1181.33300781 1068.5 1170 c 0
 1065.5 1158.66699219 1060.66699219 1144.83300781 1054 1128.5 c 0
 1047.33300781 1112.16699219 1039.66699219 1094.5 1031 1075.5 c 0
 1022.33300781 1056.5 1013.5 1038.33300781 1004.5 1021 c 0
 995.5 1003.66699219 987 988.333007812 979 975 c 0
 971 961.666992188 964.333007812 952.333007812 959 947 c 0
 884 963 l 0
 850.666992188 1030.33300781 812.5 1078.5 769.5 1107.5 c 0
 726.5 1136.5 680.666992188 1150.66699219 632 1150 c 0
 598 1150 563.333007812 1142 528 1126 c 0
 492.666992188 1110 460.666992188 1082 432 1042 c 0
 403.333007812 1002 380 948.166992188 362 880.5 c 0
 344 812.833007812 335 727 335 623 c 0
 335 539 345.666992188 467.166992188 367 407.5 c 0
 388.333007812 347.833007812 416 299 450 261 c 0
 484 223 522.333007812 195 565 177 c 0
 607.666992188 159 650.333007812 150 693 150 c 0
 711 150 732.333007812 151.833007812 757 155.5 c 0
 781.666992188 159.166992188 808.5 166 837.5 176 c 0
 866.5 186 897.5 199.833007812 930.5 217.5 c 0
 963.5 235.166992188 997 258 1031 286 c 0
 1034.33300781 283.333007812 1038.83300781 278.333007812 1044.5 271 c 0
 1050.16699219 263.666992188 1055.83300781 255.833007812 1061.5 247.5 c 0
 1067.16699219 239.166992188 1072.5 231.5 1077.5 224.5 c 0
 1082.5 217.5 1086 213 1088 211 c 0
EndSplineSet
EndChar

StartChar: D
Encoding: 39 68 39
Width: 1334
VWidth: 1024
Flags: HW
LayerCount: 2
Fore
SplineSet
523 1176 m 0
 512.333007812 1176 501.166992188 1175.83300781 489.5 1175.5 c 0
 477.833007812 1175.16699219 466.333007812 1174.66699219 455 1174 c 0
 455 190 l 0
 455 178.666992188 455.666992188 168.333007812 457 159 c 0
 458.333007812 149.666992188 463.5 141.666992188 472.5 135 c 0
 481.5 128.333007812 495.666992188 123.166992188 515 119.5 c 0
 534.333007812 115.833007812 561.666992188 114 597 114 c 0
 633 114 671.833007812 123.666992188 713.5 143 c 0
 755.166992188 162.333007812 793.666992188 193 829 235 c 0
 864.333007812 277 893.833007812 331 917.5 397 c 0
 941.166992188 463 953 543 953 637 c 0
 953 815 916.666992188 949.333007812 844 1040 c 0
 771.333007812 1130.66699219 664.333007812 1176 523 1176 c 0
1253 676 m 0
 1253 592.666992188 1244.5 518.166992188 1227.5 452.5 c 0
 1210.5 386.833007812 1187.16699219 328.833007812 1157.5 278.5 c 0
 1127.83300781 228.166992188 1093.16699219 185.5 1053.5 150.5 c 0
 1013.83300781 115.5 971.166992188 86.8330078125 925.5 64.5 c 0
 879.833007812 42.1669921875 832.5 25.8330078125 783.5 15.5 c 0
 734.5 5.1669921875 686.333007812 0 639 0 c 0
 40 0 l 0
 40 83 l 0
 85.3330078125 92.3330078125 119.166992188 102.5 141.5 113.5 c 0
 163.833007812 124.5 175 134.666992188 175 144 c 0
 175 1147 l 0
 40 1128 l 0
 26 1230 l 0
 60 1238 100.666992188 1245.66699219 148 1253 c 0
 195.333007812 1260.33300781 244.833007812 1266.83300781 296.5 1272.5 c 0
 348.166992188 1278.16699219 400.166992188 1282.5 452.5 1285.5 c 0
 504.833007812 1288.5 553.333007812 1290 598 1290 c 0
 703.333007812 1290 796.666992188 1276.16699219 878 1248.5 c 0
 959.333007812 1220.83300781 1027.83300781 1180.66699219 1083.5 1128 c 0
 1139.16699219 1075.33300781 1181.33300781 1011 1210 935 c 0
 1238.66699219 859 1253 772.666992188 1253 676 c 0
EndSplineSet
EndChar

StartChar: E
Encoding: 40 69 40
Width: 1096
VWidth: 1024
Flags: HW
LayerCount: 2
Fore
SplineSet
1054 324 m 0
 1051.33300781 295.333007812 1048.33300781 264.166992188 1045 230.5 c 0
 1041.66699219 196.833007812 1038 164.5 1034 133.5 c 0
 1030 102.5 1026.16699219 75 1022.5 51 c 0
 1018.83300781 27 1015.66699219 10 1013 0 c 0
 40 0 l 0
 40 83 l 0
 85.3330078125 92.3330078125 119.166992188 102.5 141.5 113.5 c 0
 163.833007812 124.5 175 134.666992188 175 144 c 0
 175 1115 l 0
 175 1123 164.5 1133 143.5 1145 c 0
 122.5 1157 88 1167.66699219 40 1177 c 0
 40 1260 l 0
 946 1260 l 0
 989 1225 l 0
 987.666992188 1207.66699219 985.666992188 1185 983 1157 c 0
 980.333007812 1129 977 1100.33300781 973 1071 c 0
 969 1041.66699219 964.833007812 1014 960.5 988 c 0
 956.166992188 962 952 942.666992188 948 930 c 0
 863 930 l 0
 859.666992188 992 851.333007812 1040.83300781 838 1076.5 c 0
 824.666992188 1112.16699219 805.666992188 1130 781 1130 c 0
 455 1130 l 0
 455 735 l 0
 850 735 l 0
 886 697 l 0
 880.666992188 687.666992188 874.166992188 676.666992188 866.5 664 c 0
 858.833007812 651.333007812 850.833007812 638.5 842.5 625.5 c 0
 834.166992188 612.5 825.833007812 600.666992188 817.5 590 c 0
 809.166992188 579.333007812 801.333007812 571.333007812 794 566 c 0
 784 576 773.166992188 584.333007812 761.5 591 c 0
 749.833007812 597.666992188 736.5 603.333007812 721.5 608 c 0
 706.5 612.666992188 688.833007812 616 668.5 618 c 0
 648.166992188 620 624 621 596 621 c 0
 455 621 l 0
 455 194 l 0
 455 184 457.333007812 175.166992188 462 167.5 c 0
 466.666992188 159.833007812 476.333007812 153.166992188 491 147.5 c 0
 505.666992188 141.833007812 526.333007812 137.5 553 134.5 c 0
 579.666992188 131.5 615 130 659 130 c 0
 748 130 l 0
 778.666992188 130 804.833007812 134.166992188 826.5 142.5 c 0
 848.166992188 150.833007812 867.333007812 164 884 182 c 0
 900.666992188 200 915.833007812 223 929.5 251 c 0
 943.166992188 279 957 312.666992188 971 352 c 0
 1054 324 l 0
EndSplineSet
EndChar

StartChar: F
Encoding: 41 70 41
Width: 1059
VWidth: 1024
Flags: HW
LayerCount: 2
Fore
SplineSet
40 0 m 0
 40 83 l 0
 85.3330078125 92.3330078125 119.166992188 102.5 141.5 113.5 c 0
 163.833007812 124.5 175 134.666992188 175 144 c 0
 175 1115 l 0
 175 1123 164.5 1133 143.5 1145 c 0
 122.5 1157 88 1167.66699219 40 1177 c 0
 40 1260 l 0
 956 1260 l 0
 997 1225 l 0
 996.333007812 1207.66699219 994.666992188 1185 992 1157 c 0
 989.333007812 1129 986.166992188 1100.33300781 982.5 1071 c 0
 978.833007812 1041.66699219 974.833007812 1014 970.5 988 c 0
 966.166992188 962 962 942.666992188 958 930 c 0
 871 930 l 0
 869 992 861.166992188 1040.83300781 847.5 1076.5 c 0
 833.833007812 1112.16699219 814.333007812 1130 789 1130 c 0
 455 1130 l 0
 455 735 l 0
 819 735 l 0
 858 697 l 0
 852 685 845 672.5 837 659.5 c 0
 829 646.5 820.666992188 634 812 622 c 0
 803.333007812 610 794.833007812 599 786.5 589 c 0
 778.166992188 579 770.666992188 571.333007812 764 566 c 0
 754 576 743.333007812 584.333007812 732 591 c 0
 720.666992188 597.666992188 707.5 603.333007812 692.5 608 c 0
 677.5 612.666992188 659.833007812 616 639.5 618 c 0
 619.166992188 620 595 621 567 621 c 0
 455 621 l 0
 455 144 l 0
 455 140 457.5 135.666992188 462.5 131 c 0
 467.5 126.333007812 476.166992188 121.5 488.5 116.5 c 0
 500.833007812 111.5 517.666992188 106.166992188 539 100.5 c 0
 560.333007812 94.8330078125 587.333007812 89 620 83 c 0
 620 0 l 0
 40 0 l 0
EndSplineSet
EndChar

StartChar: G
Encoding: 42 71 42
Width: 1244
VWidth: 1024
Flags: HW
LayerCount: 2
Fore
SplineSet
1112 1188 m 0
 1115.33300781 1185.33300781 1115.5 1178.5 1112.5 1167.5 c 0
 1109.5 1156.5 1104.66699219 1143 1098 1127 c 0
 1091.33300781 1111 1083.33300781 1093.83300781 1074 1075.5 c 0
 1064.66699219 1057.16699219 1055.16699219 1039.66699219 1045.5 1023 c 0
 1035.83300781 1006.33300781 1026.66699219 991.5 1018 978.5 c 0
 1009.33300781 965.5 1002 956.333007812 996 951 c 0
 923 967 l 0
 901 1003 879 1033.33300781 857 1058 c 0
 835 1082.66699219 812.333007812 1102.5 789 1117.5 c 0
 765.666992188 1132.5 741.666992188 1143.33300781 717 1150 c 0
 692.333007812 1156.66699219 666 1160 638 1160 c 0
 621.333007812 1160 602.333007812 1156.66699219 581 1150 c 0
 559.666992188 1143.33300781 537.666992188 1132.16699219 515 1116.5 c 0
 492.333007812 1100.83300781 470.333007812 1080.16699219 449 1054.5 c 0
 427.666992188 1028.83300781 408.5 996.5 391.5 957.5 c 0
 374.5 918.5 360.833007812 872.666992188 350.5 820 c 0
 340.166992188 767.333007812 335 706.333007812 335 637 c 0
 335 549 344.666992188 473.666992188 364 411 c 0
 383.333007812 348.333007812 409.333007812 297 442 257 c 0
 474.666992188 217 512 187.5 554 168.5 c 0
 596 149.5 640 140 686 140 c 0
 718 140 746.5 142.666992188 771.5 148 c 0
 796.5 153.333007812 819.333007812 160.666992188 840 170 c 0
 840 465 l 0
 840 472.333007812 839.166992188 479.5 837.5 486.5 c 0
 835.833007812 493.5 830.5 500.333007812 821.5 507 c 0
 812.5 513.666992188 798.166992188 520.333007812 778.5 527 c 0
 758.833007812 533.666992188 730.666992188 540.333007812 694 547 c 0
 694 630 l 0
 1205 630 l 0
 1205 547 l 0
 1185.66699219 542.333007812 1170 537 1158 531 c 0
 1146 525 1136.33300781 518.333007812 1129 511 c 0
 1121.66699219 503.666992188 1116.66699219 496.166992188 1114 488.5 c 0
 1111.33300781 480.833007812 1110 473 1110 465 c 0
 1110 174 l 0
 1060.66699219 133.333007812 1014 99.8330078125 970 73.5 c 0
 926 47.1669921875 884.5 26.3330078125 845.5 11 c 0
 806.5 -4.3330078125 769.666992188 -15 735 -21 c 0
 700.333007812 -27 668 -30 638 -30 c 0
 588.666992188 -30 539.833007812 -24.5 491.5 -13.5 c 0
 443.166992188 -2.5 397.166992188 14.1669921875 353.5 36.5 c 0
 309.833007812 58.8330078125 269.5 87 232.5 121 c 0
 195.5 155 163.5 194.666992188 136.5 240 c 0
 109.5 285.333007812 88.3330078125 336.5 73 393.5 c 0
 57.6669921875 450.5 50 513.333007812 50 582 c 0
 50 692.666992188 67.8330078125 791.833007812 103.5 879.5 c 0
 139.166992188 967.166992188 188.5 1041.5 251.5 1102.5 c 0
 314.5 1163.5 389.166992188 1210 475.5 1242 c 0
 561.833007812 1274 655.666992188 1290 757 1290 c 0
 779 1290 805.833007812 1287.66699219 837.5 1283 c 0
 869.166992188 1278.33300781 901.666992188 1271.66699219 935 1263 c 0
 968.333007812 1254.33300781 1000.83300781 1243.66699219 1032.5 1231 c 0
 1064.16699219 1218.33300781 1090.66699219 1204 1112 1188 c 0
EndSplineSet
EndChar

StartChar: H
Encoding: 43 72 43
Width: 1419
VWidth: 1024
Flags: HW
LayerCount: 2
Fore
SplineSet
40 0 m 0
 40 83 l 0
 85.3330078125 92.3330078125 119.166992188 102.5 141.5 113.5 c 0
 163.833007812 124.5 175 134.666992188 175 144 c 0
 175 1115 l 0
 175 1123 164.5 1133 143.5 1145 c 0
 122.5 1157 88 1167.66699219 40 1177 c 0
 40 1260 l 0
 590 1260 l 0
 590 1177 l 0
 544.666992188 1167.66699219 510.833007812 1157.33300781 488.5 1146 c 0
 466.166992188 1134.66699219 455 1124.33300781 455 1115 c 0
 455 725 l 0
 945 725 l 0
 945 1115 l 0
 945 1123 934.5 1133 913.5 1145 c 0
 892.5 1157 858 1167.66699219 810 1177 c 0
 810 1260 l 0
 1360 1260 l 0
 1360 1177 l 0
 1314.66699219 1167.66699219 1280.83300781 1157.33300781 1258.5 1146 c 0
 1236.16699219 1134.66699219 1225 1124.33300781 1225 1115 c 0
 1225 144 l 0
 1225 136 1235.5 126.166992188 1256.5 114.5 c 0
 1277.5 102.833007812 1312 92.3330078125 1360 83 c 0
 1360 0 l 0
 810 0 l 0
 810 83 l 0
 855.333007812 92.3330078125 889.166992188 102.5 911.5 113.5 c 0
 933.833007812 124.5 945 134.666992188 945 144 c 0
 945 595 l 0
 455 595 l 0
 455 144 l 0
 455 136 465.333007812 126.166992188 486 114.5 c 0
 506.666992188 102.833007812 541.333007812 92.3330078125 590 83 c 0
 590 0 l 0
 40 0 l 0
EndSplineSet
EndChar

StartChar: I
Encoding: 44 73 44
Width: 690
VWidth: 1024
Flags: HW
LayerCount: 2
Fore
SplineSet
60 0 m 0
 60 83 l 0
 105.333007812 92.3330078125 139.166992188 102.5 161.5 113.5 c 0
 183.833007812 124.5 195 134.666992188 195 144 c 0
 195 1115 l 0
 195 1123 184.5 1133 163.5 1145 c 0
 142.5 1157 108 1167.66699219 60 1177 c 0
 60 1260 l 0
 610 1260 l 0
 610 1177 l 0
 564.666992188 1167.66699219 530.833007812 1157.33300781 508.5 1146 c 0
 486.166992188 1134.66699219 475 1124.33300781 475 1115 c 0
 475 144 l 0
 475 136 485.5 126.166992188 506.5 114.5 c 0
 527.5 102.833007812 562 92.3330078125 610 83 c 0
 610 0 l 0
 60 0 l 0
EndSplineSet
EndChar

StartChar: J
Encoding: 45 74 45
Width: 705
VWidth: 1024
Flags: HW
LayerCount: 2
Fore
SplineSet
645 1177 m 0
 599.666992188 1167.66699219 565.833007812 1157.33300781 543.5 1146 c 0
 521.166992188 1134.66699219 510 1124.33300781 510 1115 c 0
 510 175 l 0
 510 103.666992188 502 41.8330078125 486 -10.5 c 0
 470 -62.8330078125 449.666992188 -108.333007812 425 -147 c 0
 400.333007812 -185.666992188 373.333007812 -218.5 344 -245.5 c 0
 314.666992188 -272.5 287 -296.666992188 261 -318 c 0
 243 -332.666992188 222.833007812 -346.666992188 200.5 -360 c 0
 178.166992188 -373.333007812 154.5 -385.166992188 129.5 -395.5 c 0
 104.5 -405.833007812 78.8330078125 -414.166992188 52.5 -420.5 c 0
 26.1669921875 -426.833007812 0.3330078125 -430 -25 -430 c 0
 -57.6669921875 -430 -89.8330078125 -426.333007812 -121.5 -419 c 0
 -153.166992188 -411.666992188 -181.5 -402.833007812 -206.5 -392.5 c 0
 -231.5 -382.166992188 -251.666992188 -371.166992188 -267 -359.5 c 0
 -282.333007812 -347.833007812 -290 -338 -290 -330 c 0
 -290 -324.666992188 -286.333007812 -316.833007812 -279 -306.5 c 0
 -271.666992188 -296.166992188 -262 -284.666992188 -250 -272 c 0
 -238 -259.333007812 -224.833007812 -246.333007812 -210.5 -233 c 0
 -196.166992188 -219.666992188 -182.166992188 -207.166992188 -168.5 -195.5 c 0
 -154.833007812 -183.833007812 -142.166992188 -173.833007812 -130.5 -165.5 c 0
 -118.833007812 -157.166992188 -110 -152 -104 -150 c 0
 -66.6669921875 -184.666992188 -30.6669921875 -209.5 4 -224.5 c 0
 38.6669921875 -239.5 68.6669921875 -247 94 -247 c 0
 111.333007812 -247 128.166992188 -243.5 144.5 -236.5 c 0
 160.833007812 -229.5 175.333007812 -213.833007812 188 -189.5 c 0
 200.666992188 -165.166992188 210.833007812 -129.833007812 218.5 -83.5 c 0
 226.166992188 -37.1669921875 230 25 230 103 c 0
 230 1115 l 0
 230 1119 227.833007812 1123.33300781 223.5 1128 c 0
 219.166992188 1132.66699219 210.5 1137.66699219 197.5 1143 c 0
 184.5 1148.33300781 165.833007812 1153.83300781 141.5 1159.5 c 0
 117.166992188 1165.16699219 85 1171 45 1177 c 0
 45 1260 l 0
 645 1260 l 0
 645 1177 l 0
EndSplineSet
EndChar

StartChar: K
Encoding: 46 75 46
Width: 1294
VWidth: 1024
Flags: HW
LayerCount: 2
Fore
SplineSet
40 0 m 0
 40 83 l 0
 85.3330078125 92.3330078125 119.166992188 102.5 141.5 113.5 c 0
 163.833007812 124.5 175 134.666992188 175 144 c 0
 175 1115 l 0
 175 1123 164.5 1133 143.5 1145 c 0
 122.5 1157 88 1167.66699219 40 1177 c 0
 40 1260 l 0
 590 1260 l 0
 590 1177 l 0
 544.666992188 1167.66699219 510.833007812 1157.33300781 488.5 1146 c 0
 466.166992188 1134.66699219 455 1124.33300781 455 1115 c 0
 455 664 l 0
 814 1088 l 0
 829.333007812 1106 840.5 1120.33300781 847.5 1131 c 0
 854.5 1141.66699219 856.666992188 1150 854 1156 c 0
 851.333007812 1162 843.166992188 1166.5 829.5 1169.5 c 0
 815.833007812 1172.5 796 1175 770 1177 c 0
 770 1260 l 0
 1230 1260 l 0
 1230 1177 l 0
 1208.66699219 1174.33300781 1190.83300781 1171.66699219 1176.5 1169 c 0
 1162.16699219 1166.33300781 1149.5 1162.83300781 1138.5 1158.5 c 0
 1127.5 1154.16699219 1117.66699219 1148.5 1109 1141.5 c 0
 1100.33300781 1134.5 1090.66699219 1125.66699219 1080 1115 c 0
 654 677 l 0
 1135 177 l 0
 1145.66699219 165.666992188 1156.33300781 157.166992188 1167 151.5 c 0
 1177.66699219 145.833007812 1189 141.666992188 1201 139 c 0
 1213 136.333007812 1226 135.333007812 1240 136 c 0
 1254 136.666992188 1269.66699219 138 1287 140 c 0
 1294 57 l 0
 1274.66699219 51 1252.33300781 43.8330078125 1227 35.5 c 0
 1201.66699219 27.1669921875 1176.16699219 19.3330078125 1150.5 12 c 0
 1124.83300781 4.6669921875 1100.33300781 -1.5 1077 -6.5 c 0
 1053.66699219 -11.5 1034 -14 1018 -14 c 0
 998.666992188 -14 981.5 -11 966.5 -5 c 0
 951.5 1 937.333007812 12.3330078125 924 29 c 0
 455 620 l 0
 455 144 l 0
 455 136 465.333007812 126.166992188 486 114.5 c 0
 506.666992188 102.833007812 541.333007812 92.3330078125 590 83 c 0
 590 0 l 0
 40 0 l 0
EndSplineSet
EndChar

StartChar: L
Encoding: 47 76 47
Width: 1065
VWidth: 1024
Flags: HW
LayerCount: 2
Fore
SplineSet
1044 324 m 0
 1041.33300781 295.333007812 1038.16699219 264.166992188 1034.5 230.5 c 0
 1030.83300781 196.833007812 1027.16699219 164.5 1023.5 133.5 c 0
 1019.83300781 102.5 1016.16699219 75 1012.5 51 c 0
 1008.83300781 27 1005.66699219 10 1003 0 c 0
 40 0 l 0
 40 83 l 0
 85.3330078125 92.3330078125 119.166992188 102.5 141.5 113.5 c 0
 163.833007812 124.5 175 134.666992188 175 144 c 0
 175 1115 l 0
 175 1123 164.5 1133 143.5 1145 c 0
 122.5 1157 88 1167.66699219 40 1177 c 0
 40 1260 l 0
 590 1260 l 0
 590 1177 l 0
 544.666992188 1167.66699219 510.833007812 1157.33300781 488.5 1146 c 0
 466.166992188 1134.66699219 455 1124.33300781 455 1115 c 0
 455 204 l 0
 455 192 457.833007812 181.5 463.5 172.5 c 0
 469.166992188 163.5 479 155.833007812 493 149.5 c 0
 507 143.166992188 526 138.333007812 550 135 c 0
 574 131.666992188 604.333007812 130 641 130 c 0
 744 130 l 0
 774.666992188 130 800.5 134.166992188 821.5 142.5 c 0
 842.5 150.833007812 861 164 877 182 c 0
 893 200 907.5 223 920.5 251 c 0
 933.5 279 947 312.666992188 961 352 c 0
 1044 324 l 0
EndSplineSet
EndChar

StartChar: M
Encoding: 48 77 48
Width: 1761
VWidth: 1024
Flags: HW
LayerCount: 2
Fore
SplineSet
1660 1177 m 0
 1644 1177 1625.16699219 1174.83300781 1603.5 1170.5 c 0
 1581.83300781 1166.16699219 1559 1160 1535 1152 c 0
 1545 144 l 0
 1545 136 1557.16699219 126.166992188 1581.5 114.5 c 0
 1605.83300781 102.833007812 1642 92.3330078125 1690 83 c 0
 1690 0 l 0
 1145 0 l 0
 1145 83 l 0
 1190.33300781 92.3330078125 1225.83300781 102.5 1251.5 113.5 c 0
 1277.16699219 124.5 1290 134.666992188 1290 144 c 0
 1282 917 l 0
 863 0 l 0
 754 0 l 0
 348 915 l 0
 340 144 l 0
 340 136 350.5 126.166992188 371.5 114.5 c 0
 392.5 102.833007812 427 92.3330078125 475 83 c 0
 475 0 l 0
 50 0 l 0
 50 83 l 0
 96 92.3330078125 130 102.5 152 113.5 c 0
 174 124.5 185 134.666992188 185 144 c 0
 195 1144 l 0
 171.666992188 1156.66699219 148.166992188 1165.33300781 124.5 1170 c 0
 100.833007812 1174.66699219 79.3330078125 1177 60 1177 c 0
 60 1260 l 0
 426 1260 l 0
 432.666992188 1260 438.833007812 1259 444.5 1257 c 0
 450.166992188 1255 455.666992188 1251 461 1245 c 0
 466.333007812 1239 472.166992188 1230.5 478.5 1219.5 c 0
 484.833007812 1208.5 492 1194 500 1176 c 0
 859 363 l 0
 1230 1176 l 0
 1238.66699219 1196 1246.16699219 1211.5 1252.5 1222.5 c 0
 1258.83300781 1233.5 1264.83300781 1241.83300781 1270.5 1247.5 c 0
 1276.16699219 1253.16699219 1281.66699219 1256.66699219 1287 1258 c 0
 1292.33300781 1259.33300781 1298 1260 1304 1260 c 0
 1660 1260 l 0
 1660 1177 l 0
EndSplineSet
EndChar

StartChar: N
Encoding: 49 78 49
Width: 1369
VWidth: 1024
Flags: HW
LayerCount: 2
Fore
SplineSet
40 0 m 0
 40 83 l 0
 88.6669921875 89 123.333007812 98.3330078125 144 111 c 0
 164.666992188 123.666992188 175 134.666992188 175 144 c 0
 175 1102 l 0
 153.666992188 1122 131.5 1138.66699219 108.5 1152 c 0
 85.5 1165.33300781 62.6669921875 1173.66699219 40 1177 c 0
 40 1260 l 0
 342 1260 l 0
 352 1260 360.166992188 1259.16699219 366.5 1257.5 c 0
 372.833007812 1255.83300781 379.333007812 1252.33300781 386 1247 c 0
 392.666992188 1241.66699219 399.833007812 1233.83300781 407.5 1223.5 c 0
 415.166992188 1213.16699219 425.333007812 1199.33300781 438 1182 c 0
 1035 353 l 0
 1035 1115 l 0
 1035 1119 1033 1123.83300781 1029 1129.5 c 0
 1025 1135.16699219 1017.83300781 1140.83300781 1007.5 1146.5 c 0
 997.166992188 1152.16699219 983.333007812 1157.66699219 966 1163 c 0
 948.666992188 1168.33300781 926.666992188 1173 900 1177 c 0
 900 1260 l 0
 1330 1260 l 0
 1330 1177 l 0
 1282 1170.33300781 1247.5 1160.66699219 1226.5 1148 c 0
 1205.5 1135.33300781 1195 1124.33300781 1195 1115 c 0
 1195 -30 l 0
 1158.33300781 -27.3330078125 1125.16699219 -22.1669921875 1095.5 -14.5 c 0
 1065.83300781 -6.8330078125 1039.5 2.3330078125 1016.5 13 c 0
 993.5 23.6669921875 973.666992188 35.6669921875 957 49 c 0
 940.333007812 62.3330078125 926.666992188 76.3330078125 916 91 c 0
 335 895 l 0
 335 144 l 0
 335 140 337.166992188 135.166992188 341.5 129.5 c 0
 345.833007812 123.833007812 353.333007812 118.166992188 364 112.5 c 0
 374.666992188 106.833007812 388.5 101.333007812 405.5 96 c 0
 422.5 90.6669921875 444 86.3330078125 470 83 c 0
 470 0 l 0
 40 0 l 0
EndSplineSet
EndChar

StartChar: O
Encoding: 50 79 50
Width: 1289
VWidth: 1024
Flags: HW
LayerCount: 2
Fore
SplineSet
1218 647 m 0
 1218 586.333007812 1210.5 527.666992188 1195.5 471 c 0
 1180.5 414.333007812 1159.5 360.833007812 1132.5 310.5 c 0
 1105.5 260.166992188 1073.33300781 214.166992188 1036 172.5 c 0
 998.666992188 130.833007812 957.166992188 95 911.5 65 c 0
 865.833007812 35 817.166992188 11.6669921875 765.5 -5 c 0
 713.833007812 -21.6669921875 660.333007812 -30 605 -30 c 0
 519.666992188 -30 442.666992188 -12.3330078125 374 23 c 0
 305.333007812 58.3330078125 247 105.666992188 199 165 c 0
 151 224.333007812 114.166992188 292.666992188 88.5 370 c 0
 62.8330078125 447.333007812 50 528 50 612 c 0
 50 702.666992188 64.8330078125 789 94.5 871 c 0
 124.166992188 953 166 1025 220 1087 c 0
 274 1149 338.5 1198.33300781 413.5 1235 c 0
 488.5 1271.66699219 571.666992188 1290 663 1290 c 0
 753 1290 832.5 1271.83300781 901.5 1235.5 c 0
 970.5 1199.16699219 1028.5 1151 1075.5 1091 c 0
 1122.5 1031 1158 962.333007812 1182 885 c 0
 1206 807.666992188 1218 728.333007812 1218 647 c 0
933 629 m 0
 933 697.666992188 925.166992188 763.833007812 909.5 827.5 c 0
 893.833007812 891.166992188 871.5 947.166992188 842.5 995.5 c 0
 813.5 1043.83300781 778.833007812 1082.5 738.5 1111.5 c 0
 698.166992188 1140.5 653.333007812 1155 604 1155 c 0
 560 1155 521.166992188 1143.5 487.5 1120.5 c 0
 453.833007812 1097.5 425.666992188 1064 403 1020 c 0
 380.333007812 976 363.333007812 922.166992188 352 858.5 c 0
 340.666992188 794.833007812 335 722.333007812 335 641 c 0
 335 566.333007812 343.333007812 496.666992188 360 432 c 0
 376.666992188 367.333007812 399.5 311.166992188 428.5 263.5 c 0
 457.5 215.833007812 491.333007812 178.333007812 530 151 c 0
 568.666992188 123.666992188 610 110 654 110 c 0
 694 110 731.166992188 120.5 765.5 141.5 c 0
 799.833007812 162.5 829.333007812 194.333007812 854 237 c 0
 878.666992188 279.666992188 898 333.666992188 912 399 c 0
 926 464.333007812 933 541 933 629 c 0
EndSplineSet
EndChar

StartChar: P
Encoding: 51 80 51
Width: 1191
VWidth: 1024
Flags: HW
LayerCount: 2
Fore
SplineSet
40 0 m 0
 40 83 l 0
 85.3330078125 92.3330078125 119.166992188 102.5 141.5 113.5 c 0
 163.833007812 124.5 175 134.666992188 175 144 c 0
 175 1148 l 0
 124.333007812 1142 79.3330078125 1135.33300781 40 1128 c 0
 26 1230 l 0
 63.3330078125 1238.66699219 105.166992188 1246.66699219 151.5 1254 c 0
 197.833007812 1261.33300781 245.833007812 1267.66699219 295.5 1273 c 0
 345.166992188 1278.33300781 395.333007812 1282.5 446 1285.5 c 0
 496.666992188 1288.5 544.666992188 1290 590 1290 c 0
 669.333007812 1290 741.666992188 1282.33300781 807 1267 c 0
 872.333007812 1251.66699219 928.333007812 1229 975 1199 c 0
 1021.66699219 1169 1057.83300781 1132 1083.5 1088 c 0
 1109.16699219 1044 1122 993.333007812 1122 936 c 0
 1122 866.666992188 1108.33300781 805.666992188 1081 753 c 0
 1053.66699219 700.333007812 1018.83300781 656.333007812 976.5 621 c 0
 934.166992188 585.666992188 887.833007812 559.166992188 837.5 541.5 c 0
 787.166992188 523.833007812 739 515 693 515 c 0
 662.333007812 515 631.833007812 517.5 601.5 522.5 c 0
 571.166992188 527.5 544.666992188 535 522 545 c 0
 489 660 l 0
 516.333007812 647.333007812 539.666992188 639.166992188 559 635.5 c 0
 578.333007812 631.833007812 599.666992188 630 623 630 c 0
 651 630 678 635 704 645 c 0
 730 655 752.833007812 670.666992188 772.5 692 c 0
 792.166992188 713.333007812 807.833007812 740.666992188 819.5 774 c 0
 831.166992188 807.333007812 837 847.666992188 837 895 c 0
 837 939.666992188 829.833007812 979.5 815.5 1014.5 c 0
 801.166992188 1049.5 780.833007812 1079 754.5 1103 c 0
 728.166992188 1127 696.333007812 1145.16699219 659 1157.5 c 0
 621.666992188 1169.83300781 579.666992188 1176 533 1176 c 0
 521 1176 508.333007812 1175.83300781 495 1175.5 c 0
 481.666992188 1175.16699219 468.333007812 1174.66699219 455 1174 c 0
 455 144 l 0
 455 140 457 135.666992188 461 131 c 0
 465 126.333007812 473 121.333007812 485 116 c 0
 497 110.666992188 513.833007812 105.333007812 535.5 100 c 0
 557.166992188 94.6669921875 585.333007812 89 620 83 c 0
 620 0 l 0
 40 0 l 0
EndSplineSet
EndChar

StartChar: Q
Encoding: 52 81 52
Width: 1289
VWidth: 1024
Flags: HW
LayerCount: 2
Fore
SplineSet
1462 -127 m 0
 1446 -156.333007812 1428.5 -183.5 1409.5 -208.5 c 0
 1390.5 -233.5 1371.83300781 -255.5 1353.5 -274.5 c 0
 1335.16699219 -293.5 1317.83300781 -308.333007812 1301.5 -319 c 0
 1285.16699219 -329.666992188 1272 -335 1262 -335 c 0
 1230 -335 1197.66699219 -329.666992188 1165 -319 c 0
 1132.33300781 -308.333007812 1099.5 -294.333007812 1066.5 -277 c 0
 1033.5 -259.666992188 1000.33300781 -239.833007812 967 -217.5 c 0
 933.666992188 -195.166992188 900.333007812 -172.5 867 -149.5 c 0
 833.666992188 -126.5 800.333007812 -104.166992188 767 -82.5 c 0
 733.666992188 -60.8330078125 700.333007812 -42 667 -26 c 0
 657 -27.3330078125 646.833007812 -28.3330078125 636.5 -29 c 0
 626.166992188 -29.6669921875 615.666992188 -30 605 -30 c 0
 519.666992188 -30 442.666992188 -12.3330078125 374 23 c 0
 305.333007812 58.3330078125 247 105.666992188 199 165 c 0
 151 224.333007812 114.166992188 292.666992188 88.5 370 c 0
 62.8330078125 447.333007812 50 528 50 612 c 0
 50 702.666992188 64.8330078125 789 94.5 871 c 0
 124.166992188 953 166 1025 220 1087 c 0
 274 1149 338.5 1198.33300781 413.5 1235 c 0
 488.5 1271.66699219 571.666992188 1290 663 1290 c 0
 753 1290 832.5 1271.83300781 901.5 1235.5 c 0
 970.5 1199.16699219 1028.5 1151 1075.5 1091 c 0
 1122.5 1031 1158 962.333007812 1182 885 c 0
 1206 807.666992188 1218 728.333007812 1218 647 c 0
 1218 580.333007812 1209 515.833007812 1191 453.5 c 0
 1173 391.166992188 1147.66699219 333.166992188 1115 279.5 c 0
 1082.33300781 225.833007812 1043.66699219 177.666992188 999 135 c 0
 954.333007812 92.3330078125 905.333007812 57.3330078125 852 30 c 0
 892 17.3330078125 930.333007812 2.3330078125 967 -15 c 0
 1003.66699219 -32.3330078125 1039 -48.6669921875 1073 -64 c 0
 1107 -79.3330078125 1140.16699219 -92.5 1172.5 -103.5 c 0
 1204.83300781 -114.5 1236.66699219 -120 1268 -120 c 0
 1276 -120 1284 -119.166992188 1292 -117.5 c 0
 1300 -115.833007812 1309 -112.666992188 1319 -108 c 0
 1329 -103.333007812 1340.83300781 -96.5 1354.5 -87.5 c 0
 1368.16699219 -78.5 1385 -66.6669921875 1405 -52 c 0
 1462 -127 l 0
933 629 m 0
 933 697.666992188 925.166992188 763.833007812 909.5 827.5 c 0
 893.833007812 891.166992188 871.5 947.166992188 842.5 995.5 c 0
 813.5 1043.83300781 778.833007812 1082.5 738.5 1111.5 c 0
 698.166992188 1140.5 653.333007812 1155 604 1155 c 0
 560 1155 521.166992188 1143.5 487.5 1120.5 c 0
 453.833007812 1097.5 425.666992188 1064 403 1020 c 0
 380.333007812 976 363.333007812 922.166992188 352 858.5 c 0
 340.666992188 794.833007812 335 722.333007812 335 641 c 0
 335 566.333007812 343.333007812 496.666992188 360 432 c 0
 376.666992188 367.333007812 399.5 311.166992188 428.5 263.5 c 0
 457.5 215.833007812 491.333007812 178.333007812 530 151 c 0
 568.666992188 123.666992188 610 110 654 110 c 0
 694 110 731.166992188 120.5 765.5 141.5 c 0
 799.833007812 162.5 829.333007812 194.333007812 854 237 c 0
 878.666992188 279.666992188 898 333.666992188 912 399 c 0
 926 464.333007812 933 541 933 629 c 0
EndSplineSet
EndChar

StartChar: R
Encoding: 53 82 53
Width: 1269
VWidth: 1024
Flags: HW
LayerCount: 2
Fore
SplineSet
502 1176 m 0
 494.666992188 1176 487.166992188 1175.83300781 479.5 1175.5 c 0
 471.833007812 1175.16699219 463.666992188 1175 455 1175 c 0
 455 711 l 0
 473 707.666992188 488.666992188 705.666992188 502 705 c 0
 515.333007812 704.333007812 529.333007812 704 544 704 c 0
 586.666992188 704 623 709.833007812 653 721.5 c 0
 683 733.166992188 707.5 749.833007812 726.5 771.5 c 0
 745.5 793.166992188 759.5 819.5 768.5 850.5 c 0
 777.5 881.5 782 916.666992188 782 956 c 0
 782 984.666992188 778.166992188 1012.33300781 770.5 1039 c 0
 762.833007812 1065.66699219 748.5 1089.16699219 727.5 1109.5 c 0
 706.5 1129.83300781 677.833007812 1146 641.5 1158 c 0
 605.166992188 1170 558.666992188 1176 502 1176 c 0
40 0 m 0
 40 83 l 0
 85.3330078125 92.3330078125 119.166992188 102.5 141.5 113.5 c 0
 163.833007812 124.5 175 134.666992188 175 144 c 0
 175 1147 l 0
 40 1128 l 0
 26 1230 l 0
 98.6669921875 1245.33300781 179.333007812 1259.16699219 268 1271.5 c 0
 356.666992188 1283.83300781 450.333007812 1290 549 1290 c 0
 643.666992188 1290 724 1282.33300781 790 1267 c 0
 856 1251.66699219 909.5 1230.33300781 950.5 1203 c 0
 991.5 1175.66699219 1021.16699219 1143.5 1039.5 1106.5 c 0
 1057.83300781 1069.5 1067 1029.66699219 1067 987 c 0
 1067 941.666992188 1060.16699219 899.833007812 1046.5 861.5 c 0
 1032.83300781 823.166992188 1013.83300781 788.5 989.5 757.5 c 0
 965.166992188 726.5 935.833007812 699.166992188 901.5 675.5 c 0
 867.166992188 651.833007812 829.333007812 632.666992188 788 618 c 0
 1108 199 l 0
 1118.66699219 185 1128.5 173.666992188 1137.5 165 c 0
 1146.5 156.333007812 1156.5 149.833007812 1167.5 145.5 c 0
 1178.5 141.166992188 1191.5 138.666992188 1206.5 138 c 0
 1221.5 137.333007812 1240.33300781 138 1263 140 c 0
 1279 57 l 0
 1257 49.6669921875 1231.16699219 41.8330078125 1201.5 33.5 c 0
 1171.83300781 25.1669921875 1142.5 17.5 1113.5 10.5 c 0
 1084.5 3.5 1057.33300781 -2.3330078125 1032 -7 c 0
 1006.66699219 -11.6669921875 987.666992188 -14 975 -14 c 0
 955.666992188 -14 936.833007812 -8.6669921875 918.5 2 c 0
 900.166992188 12.6669921875 886.333007812 25.6669921875 877 41 c 0
 595 581 l 0
 589.666992188 580.333007812 584 580 578 580 c 0
 561 580 l 0
 543.666992188 580 526.333007812 580.833007812 509 582.5 c 0
 491.666992188 584.166992188 473.666992188 587 455 591 c 0
 455 144 l 0
 455 136 465.333007812 126.166992188 486 114.5 c 0
 506.666992188 102.833007812 541.333007812 92.3330078125 590 83 c 0
 590 0 l 0
 40 0 l 0
EndSplineSet
EndChar

StartChar: S
Encoding: 54 83 54
Width: 1075
VWidth: 1024
Flags: HW
LayerCount: 2
Fore
SplineSet
995 377 m 0
 995 347 990.333007812 316.333007812 981 285 c 0
 971.666992188 253.666992188 957.833007812 222.833007812 939.5 192.5 c 0
 921.166992188 162.166992188 897.833007812 133.5 869.5 106.5 c 0
 841.166992188 79.5 807.833007812 56 769.5 36 c 0
 731.166992188 16 688 0 640 -12 c 0
 592 -24 538.666992188 -30 480 -30 c 0
 455.333007812 -30 426.666992188 -27.6669921875 394 -23 c 0
 361.333007812 -18.3330078125 328 -11.8330078125 294 -3.5 c 0
 260 4.8330078125 226.833007812 15 194.5 27 c 0
 162.166992188 39 134.333007812 52.6669921875 111 68 c 0
 107.666992188 69.3330078125 105 76.1669921875 103 88.5 c 0
 101 100.833007812 99.6669921875 116.333007812 99 135 c 0
 98.3330078125 153.666992188 98 174.666992188 98 198 c 0
 98 221.333007812 99 245.166992188 101 269.5 c 0
 103 293.833007812 105.666992188 317.666992188 109 341 c 0
 112.333007812 364.333007812 116.333007812 385.333007812 121 404 c 0
 202 399 l 0
 217.333007812 359.666992188 235.833007812 323 257.5 289 c 0
 279.166992188 255 303.5 225.5 330.5 200.5 c 0
 357.5 175.5 386.666992188 155.833007812 418 141.5 c 0
 449.333007812 127.166992188 482 120 516 120 c 0
 546 120 574.5 123.666992188 601.5 131 c 0
 628.5 138.333007812 652.333007812 149.5 673 164.5 c 0
 693.666992188 179.5 710 198.5 722 221.5 c 0
 734 244.5 740 272 740 304 c 0
 740 344.666992188 731 379.833007812 713 409.5 c 0
 695 439.166992188 671.166992188 465.5 641.5 488.5 c 0
 611.833007812 511.5 578 532.333007812 540 551 c 0
 502 569.666992188 463.166992188 588.333007812 423.5 607 c 0
 383.833007812 625.666992188 345 645.333007812 307 666 c 0
 269 686.666992188 235.166992188 710.5 205.5 737.5 c 0
 175.833007812 764.5 152 795.666992188 134 831 c 0
 116 866.333007812 107 908.333007812 107 957 c 0
 107 977.666992188 111.166992188 1000.33300781 119.5 1025 c 0
 127.833007812 1049.66699219 140.5 1074.33300781 157.5 1099 c 0
 174.5 1123.66699219 196 1147.5 222 1170.5 c 0
 248 1193.5 278.666992188 1213.83300781 314 1231.5 c 0
 349.333007812 1249.16699219 389.666992188 1263.33300781 435 1274 c 0
 480.333007812 1284.66699219 530.666992188 1290 586 1290 c 0
 624 1290 661 1287.66699219 697 1283 c 0
 733 1278.33300781 766.5 1272 797.5 1264 c 0
 828.5 1256 855.833007812 1246.33300781 879.5 1235 c 0
 903.166992188 1223.66699219 921 1211.33300781 933 1198 c 0
 936.333007812 1195.33300781 937.166992188 1188.83300781 935.5 1178.5 c 0
 933.833007812 1168.16699219 930.666992188 1156 926 1142 c 0
 921.333007812 1128 915.5 1112.83300781 908.5 1096.5 c 0
 901.5 1080.16699219 894.166992188 1064.5 886.5 1049.5 c 0
 878.833007812 1034.5 871.333007812 1021.16699219 864 1009.5 c 0
 856.666992188 997.833007812 850.333007812 989.666992188 845 985 c 0
 769 991 l 0
 755.666992188 1025 739.666992188 1053.5 721 1076.5 c 0
 702.333007812 1099.5 682.5 1118 661.5 1132 c 0
 640.5 1146 619.166992188 1155.83300781 597.5 1161.5 c 0
 575.833007812 1167.16699219 555.666992188 1170 537 1170 c 0
 505 1170 477.666992188 1166 455 1158 c 0
 432.333007812 1150 413.666992188 1139.16699219 399 1125.5 c 0
 384.333007812 1111.83300781 373.666992188 1096.16699219 367 1078.5 c 0
 360.333007812 1060.83300781 357 1042.66699219 357 1024 c 0
 357 992.666992188 366.166992188 964.666992188 384.5 940 c 0
 402.833007812 915.333007812 427 892.666992188 457 872 c 0
 487 851.333007812 521 831.333007812 559 812 c 0
 676 754 l 0
 716 734 755 712.333007812 793 689 c 0
 831 665.666992188 865 639.166992188 895 609.5 c 0
 925 579.833007812 949.166992188 546 967.5 508 c 0
 985.833007812 470 995 426.333007812 995 377 c 0
EndSplineSet
EndChar

StartChar: T
Encoding: 55 84 55
Width: 1208
VWidth: 1024
Flags: HW
LayerCount: 2
Fore
SplineSet
297 0 m 0
 297 83 l 0
 327.666992188 89 353 95.3330078125 373 102 c 0
 393 108.666992188 408.666992188 115.166992188 420 121.5 c 0
 431.333007812 127.833007812 439.333007812 133.833007812 444 139.5 c 0
 448.666992188 145.166992188 451 150.333007812 451 155 c 0
 451 1130 l 0
 212 1130 l 0
 202 1130 192.333007812 1125.83300781 183 1117.5 c 0
 173.666992188 1109.16699219 164.166992188 1096.16699219 154.5 1078.5 c 0
 144.833007812 1060.83300781 134.166992188 1038 122.5 1010 c 0
 110.833007812 982 97.6669921875 948.666992188 83 910 c 0
 0 939 l 0
 1.3330078125 958.333007812 3.6669921875 982.666992188 7 1012 c 0
 10.3330078125 1041.33300781 14.1669921875 1071.5 18.5 1102.5 c 0
 22.8330078125 1133.5 27.1669921875 1163.16699219 31.5 1191.5 c 0
 35.8330078125 1219.83300781 39.6669921875 1242.66699219 43 1260 c 0
 1133 1260 l 0
 1173 1225 l 0
 1172.33300781 1207.66699219 1170.66699219 1186 1168 1160 c 0
 1165.33300781 1134 1162 1106.83300781 1158 1078.5 c 0
 1154 1050.16699219 1149.83300781 1021.83300781 1145.5 993.5 c 0
 1141.16699219 965.166992188 1137 940.666992188 1133 920 c 0
 1048 920 l 0
 1041.33300781 950.666992188 1036 979 1032 1005 c 0
 1028 1031 1023.33300781 1053.16699219 1018 1071.5 c 0
 1012.66699219 1089.83300781 1006 1104.16699219 998 1114.5 c 0
 990 1124.83300781 979 1130 965 1130 c 0
 731 1130 l 0
 731 155 l 0
 731 151 733.333007812 146.166992188 738 140.5 c 0
 742.666992188 134.833007812 750.666992188 128.666992188 762 122 c 0
 773.333007812 115.333007812 789 108.666992188 809 102 c 0
 829 95.3330078125 854.333007812 89 885 83 c 0
 885 0 l 0
 297 0 l 0
EndSplineSet
EndChar

StartChar: U
Encoding: 56 85 56
Width: 1379
VWidth: 1024
Flags: HW
LayerCount: 2
Fore
SplineSet
1325 1177 m 0
 1279.66699219 1167.66699219 1245.83300781 1157.33300781 1223.5 1146 c 0
 1201.16699219 1134.66699219 1190 1124.33300781 1190 1115 c 0
 1190 524 l 0
 1190 436.666992188 1177.16699219 358.666992188 1151.5 290 c 0
 1125.83300781 221.333007812 1090.5 163.333007812 1045.5 116 c 0
 1000.5 68.6669921875 947.333007812 32.5 886 7.5 c 0
 824.666992188 -17.5 758 -30 686 -30 c 0
 617.333007812 -30 552 -20.5 490 -1.5 c 0
 428 17.5 373.666992188 46.5 327 85.5 c 0
 280.333007812 124.5 243.333007812 173.666992188 216 233 c 0
 188.666992188 292.333007812 175 362.666992188 175 444 c 0
 175 1115 l 0
 175 1123 164.5 1133 143.5 1145 c 0
 122.5 1157 88 1167.66699219 40 1177 c 0
 40 1260 l 0
 590 1260 l 0
 590 1177 l 0
 544.666992188 1167.66699219 510.833007812 1157.33300781 488.5 1146 c 0
 466.166992188 1134.66699219 455 1124.33300781 455 1115 c 0
 455 514 l 0
 455 450 460 393.666992188 470 345 c 0
 480 296.333007812 496.5 255.833007812 519.5 223.5 c 0
 542.5 191.166992188 573.166992188 166.666992188 611.5 150 c 0
 649.833007812 133.333007812 697.666992188 125 755 125 c 0
 802.333007812 125 841.833007812 135.333007812 873.5 156 c 0
 905.166992188 176.666992188 930.333007812 204.5 949 239.5 c 0
 967.666992188 274.5 980.833007812 314.833007812 988.5 360.5 c 0
 996.166992188 406.166992188 1000 453.666992188 1000 503 c 0
 1000 1115 l 0
 1000 1123 989.5 1133 968.5 1145 c 0
 947.5 1157 913 1167.66699219 865 1177 c 0
 865 1260 l 0
 1325 1260 l 0
 1325 1177 l 0
EndSplineSet
EndChar

StartChar: V
Encoding: 57 86 57
Width: 1371
VWidth: 1024
Flags: HW
LayerCount: 2
Fore
SplineSet
1340 1177 m 0
 1294.66699219 1168.33300781 1259.16699219 1159.83300781 1233.5 1151.5 c 0
 1207.83300781 1143.16699219 1191.66699219 1129.66699219 1185 1111 c 0
 812 89 l 0
 806.666992188 74.3330078125 796.333007812 60.6669921875 781 48 c 0
 765.666992188 35.3330078125 747.833007812 24 727.5 14 c 0
 707.166992188 4 685.833007812 -4.6669921875 663.5 -12 c 0
 641.166992188 -19.3330078125 620.666992188 -25.3330078125 602 -30 c 0
 142 1111 l 0
 134.666992188 1128.33300781 121.333007812 1142.33300781 102 1153 c 0
 82.6669921875 1163.66699219 52 1171.66699219 10 1177 c 0
 10 1260 l 0
 545 1260 l 0
 545 1177 l 0
 518.333007812 1175 496.5 1172.33300781 479.5 1169 c 0
 462.5 1165.66699219 449.5 1161.5 440.5 1156.5 c 0
 431.5 1151.5 426 1145.33300781 424 1138 c 0
 422 1130.66699219 423 1122.33300781 427 1113 c 0
 742 313 l 0
 1026 1111 l 0
 1029.33300781 1121 1030 1129.33300781 1028 1136 c 0
 1026 1142.66699219 1020.33300781 1148.5 1011 1153.5 c 0
 1001.66699219 1158.5 988.333007812 1162.83300781 971 1166.5 c 0
 953.666992188 1170.16699219 931.333007812 1173.66699219 904 1177 c 0
 904 1260 l 0
 1340 1260 l 0
 1340 1177 l 0
EndSplineSet
EndChar

StartChar: W
Encoding: 58 87 58
Width: 1741
VWidth: 1024
Flags: HW
LayerCount: 2
Fore
SplineSet
1742 1177 m 0
 1712.66699219 1171 1688.33300781 1165.33300781 1669 1160 c 0
 1649.66699219 1154.66699219 1634.33300781 1149.5 1623 1144.5 c 0
 1611.66699219 1139.5 1603.5 1134.66699219 1598.5 1130 c 0
 1593.5 1125.33300781 1590.66699219 1120.33300781 1590 1115 c 0
 1361 59 l 0
 1357.66699219 45 1350 32.8330078125 1338 22.5 c 0
 1326 12.1669921875 1312.33300781 3.5 1297 -3.5 c 0
 1281.66699219 -10.5 1266.16699219 -16.1669921875 1250.5 -20.5 c 0
 1234.83300781 -24.8330078125 1222 -28 1212 -30 c 0
 866 854 l 0
 579 59 l 0
 574.333007812 45 565.833007812 33 553.5 23 c 0
 541.166992188 13 527.166992188 4.5 511.5 -2.5 c 0
 495.833007812 -9.5 479.666992188 -15.1669921875 463 -19.5 c 0
 446.333007812 -23.8330078125 431.333007812 -27.3330078125 418 -30 c 0
 158 1107 l 0
 154.666992188 1123.66699219 142.666992188 1137.33300781 122 1148 c 0
 101.333007812 1158.66699219 67.3330078125 1168.33300781 20 1177 c 0
 20 1260 l 0
 529 1260 l 0
 529 1177 l 0
 496.333007812 1173.66699219 471.166992188 1169.5 453.5 1164.5 c 0
 435.833007812 1159.5 423 1154 415 1148 c 0
 407 1142 402.666992188 1135.5 402 1128.5 c 0
 401.333007812 1121.5 401.666992188 1114.33300781 403 1107 c 0
 565 430 l 0
 846 1260 l 0
 961 1260 l 0
 1290 430 l 0
 1442 1115 l 0
 1443.33300781 1123 1440.33300781 1130 1433 1136 c 0
 1425.66699219 1142 1415 1147.33300781 1401 1152 c 0
 1387 1156.66699219 1370.33300781 1161 1351 1165 c 0
 1331.66699219 1169 1310.66699219 1173 1288 1177 c 0
 1288 1260 l 0
 1742 1260 l 0
 1742 1177 l 0
EndSplineSet
EndChar

StartChar: X
Encoding: 59 88 59
Width: 1300
VWidth: 1024
Flags: HW
LayerCount: 2
Fore
SplineSet
718 0 m 0
 718 83 l 0
 747.333007812 85.6669921875 771 89.1669921875 789 93.5 c 0
 807 97.8330078125 820 103.166992188 828 109.5 c 0
 836 115.833007812 839.5 123.666992188 838.5 133 c 0
 837.5 142.333007812 832.333007812 153.666992188 823 167 c 0
 601 490 l 0
 382 167 l 0
 372 152.333007812 365.333007812 140.166992188 362 130.5 c 0
 358.666992188 120.833007812 360 112.833007812 366 106.5 c 0
 372 100.166992188 383.333007812 95.1669921875 400 91.5 c 0
 416.666992188 87.8330078125 440.333007812 85 471 83 c 0
 471 0 l 0
 21 0 l 0
 21 83 l 0
 64.3330078125 86.3330078125 101 94.5 131 107.5 c 0
 161 120.5 185 140.333007812 203 167 c 0
 509 623 l 0
 187 1093 l 0
 177 1107.66699219 167.333007812 1119.66699219 158 1129 c 0
 148.666992188 1138.33300781 138.166992188 1146 126.5 1152 c 0
 114.833007812 1158 101.5 1162.83300781 86.5 1166.5 c 0
 71.5 1170.16699219 53 1173.66699219 31 1177 c 0
 31 1260 l 0
 602 1260 l 0
 602 1177 l 0
 545.333007812 1171.66699219 508.333007812 1163.5 491 1152.5 c 0
 473.666992188 1141.5 475 1121.66699219 495 1093 c 0
 689 810 l 0
 868 1093 l 0
 877.333007812 1108.33300781 883.5 1120.83300781 886.5 1130.5 c 0
 889.5 1140.16699219 887.833007812 1148.16699219 881.5 1154.5 c 0
 875.166992188 1160.83300781 863.666992188 1165.66699219 847 1169 c 0
 830.333007812 1172.33300781 807 1175 777 1177 c 0
 777 1260 l 0
 1230 1260 l 0
 1230 1177 l 0
 1206 1174.33300781 1184.5 1171 1165.5 1167 c 0
 1146.5 1163 1129.83300781 1157.83300781 1115.5 1151.5 c 0
 1101.16699219 1145.16699219 1088.33300781 1137.33300781 1077 1128 c 0
 1065.66699219 1118.66699219 1055.66699219 1107 1047 1093 c 0
 780 678 l 0
 1131 167 l 0
 1141 153 1150.66699219 141.166992188 1160 131.5 c 0
 1169.33300781 121.833007812 1179.5 113.833007812 1190.5 107.5 c 0
 1201.5 101.166992188 1214.16699219 96.1669921875 1228.5 92.5 c 0
 1242.83300781 88.8330078125 1259.66699219 85.6669921875 1279 83 c 0
 1279 0 l 0
 718 0 l 0
EndSplineSet
EndChar

StartChar: Y
Encoding: 60 89 60
Width: 1267
VWidth: 1024
Flags: HW
LayerCount: 2
Fore
SplineSet
340 0 m 0
 340 83 l 0
 370 89 395 95.3330078125 415 102 c 0
 435 108.666992188 450.833007812 115.166992188 462.5 121.5 c 0
 474.166992188 127.833007812 482.333007812 133.833007812 487 139.5 c 0
 491.666992188 145.166992188 494 150.333007812 494 155 c 0
 494 527 l 0
 470 579.666992188 443.333007812 634 414 690 c 0
 384.666992188 746 355 800 325 852 c 0
 295 904 265.5 952.333007812 236.5 997 c 0
 207.5 1041.66699219 181.333007812 1079.66699219 158 1111 c 0
 152 1118.33300781 145.833007812 1124.83300781 139.5 1130.5 c 0
 133.166992188 1136.16699219 124.666992188 1140.83300781 114 1144.5 c 0
 103.333007812 1148.16699219 89.3330078125 1151 72 1153 c 0
 54.6669921875 1155 32 1156 4 1156 c 0
 0 1239 l 0
 19.3330078125 1241.66699219 42.1669921875 1244.83300781 68.5 1248.5 c 0
 94.8330078125 1252.16699219 121.333007812 1255.5 148 1258.5 c 0
 174.666992188 1261.5 199.666992188 1264.16699219 223 1266.5 c 0
 246.333007812 1268.83300781 265 1270 279 1270 c 0
 298.333007812 1270 318.333007812 1265.66699219 339 1257 c 0
 359.666992188 1248.33300781 375.666992188 1236.33300781 387 1221 c 0
 411.666992188 1187.66699219 437.333007812 1149.66699219 464 1107 c 0
 490.666992188 1064.33300781 517.5 1019.33300781 544.5 972 c 0
 571.5 924.666992188 598.166992188 875.833007812 624.5 825.5 c 0
 650.833007812 775.166992188 675.666992188 726 699 678 c 0
 921 1111 l 0
 931 1128.33300781 927.833007812 1142 911.5 1152 c 0
 895.166992188 1162 861.333007812 1170.33300781 810 1177 c 0
 810 1260 l 0
 1236 1260 l 0
 1236 1177 l 0
 1213.33300781 1173 1193.83300781 1168.83300781 1177.5 1164.5 c 0
 1161.16699219 1160.16699219 1147.33300781 1155.5 1136 1150.5 c 0
 1124.66699219 1145.5 1115.33300781 1139.83300781 1108 1133.5 c 0
 1100.66699219 1127.16699219 1094.66699219 1119.66699219 1090 1111 c 0
 774 515 l 0
 774 155 l 0
 774 151 776.333007812 146.166992188 781 140.5 c 0
 785.666992188 134.833007812 793.833007812 128.666992188 805.5 122 c 0
 817.166992188 115.333007812 833 108.666992188 853 102 c 0
 873 95.3330078125 898.666992188 89 930 83 c 0
 930 0 l 0
 340 0 l 0
EndSplineSet
EndChar

StartChar: Z
Encoding: 61 90 61
Width: 1131
VWidth: 1024
Flags: HW
LayerCount: 2
Fore
SplineSet
1061 373 m 0
 1059.66699219 351.666992188 1058.5 323.833007812 1057.5 289.5 c 0
 1056.5 255.166992188 1055.5 219.833007812 1054.5 183.5 c 0
 1053.5 147.166992188 1052.5 112.333007812 1051.5 79 c 0
 1050.5 45.6669921875 1049.66699219 19.3330078125 1049 0 c 0
 88 0 l 0
 49 55 l 0
 710 1120 l 0
 341 1120 l 0
 330.333007812 1120 318.166992188 1113.66699219 304.5 1101 c 0
 290.833007812 1088.33300781 277.333007812 1070.83300781 264 1048.5 c 0
 250.666992188 1026.16699219 238.166992188 1000 226.5 970 c 0
 214.833007812 940 205.333007812 907.666992188 198 873 c 0
 101 895 l 0
 140 1276 l 0
 158 1272 174.5 1268.83300781 189.5 1266.5 c 0
 204.5 1264.16699219 219.166992188 1262.5 233.5 1261.5 c 0
 247.833007812 1260.5 262.666992188 1260 278 1260 c 0
 1016 1260 l 0
 1051 1207 l 0
 396 140 l 0
 829 140 l 0
 843 140 855.666992188 145.666992188 867 157 c 0
 878.333007812 168.333007812 889.166992188 185 899.5 207 c 0
 909.833007812 229 920.333007812 255.833007812 931 287.5 c 0
 941.666992188 319.166992188 953.333007812 355.666992188 966 397 c 0
 1061 373 l 0
EndSplineSet
EndChar

StartChar: bracketleft
Encoding: 62 91 62
Width: 711
VWidth: 1024
Flags: HW
LayerCount: 2
Fore
SplineSet
691 -219 m 0
 689.666992188 -225.666992188 687.333007812 -234.333007812 684 -245 c 0
 680.666992188 -255.666992188 677 -266.666992188 673 -278 c 0
 669 -289.333007812 665.166992188 -300.166992188 661.5 -310.5 c 0
 657.833007812 -320.833007812 654.666992188 -329 652 -335 c 0
 120 -335 l 0
 120 1600 l 0
 646 1600 l 0
 689 1564 l 0
 687.666992188 1556 685.333007812 1546 682 1534 c 0
 678.666992188 1522 675.166992188 1510 671.5 1498 c 0
 667.833007812 1486 664.166992188 1475.16699219 660.5 1465.5 c 0
 656.833007812 1455.83300781 654 1449 652 1445 c 0
 380 1445 l 0
 380 -180 l 0
 646 -180 l 0
 691 -219 l 0
EndSplineSet
EndChar

StartChar: backslash
Encoding: 63 92 63
Width: 960
VWidth: 1024
Flags: HW
LayerCount: 2
Fore
SplineSet
880 -335 m 0
 872 -332.333007812 860 -328.5 844 -323.5 c 0
 828 -318.5 811.5 -313.166992188 794.5 -307.5 c 0
 777.5 -301.833007812 761.666992188 -296 747 -290 c 0
 732.333007812 -284 722 -278.666992188 716 -274 c 0
 35 1568 l 0
 82 1600 l 0
 92 1597.33300781 104.333007812 1593.83300781 119 1589.5 c 0
 133.666992188 1585.16699219 148.833007812 1580.33300781 164.5 1575 c 0
 180.166992188 1569.66699219 195.166992188 1564.16699219 209.5 1558.5 c 0
 223.833007812 1552.83300781 235.666992188 1547 245 1541 c 0
 925 -300 l 0
 880 -335 l 0
EndSplineSet
EndChar

StartChar: bracketright
Encoding: 64 93 64
Width: 711
VWidth: 1024
Flags: HW
LayerCount: 2
Fore
SplineSet
65 -335 m 0
 22 -299 l 0
 23.3330078125 -291 25.6669921875 -281 29 -269 c 0
 32.3330078125 -257 35.8330078125 -245 39.5 -233 c 0
 43.1669921875 -221 46.8330078125 -210.166992188 50.5 -200.5 c 0
 54.1669921875 -190.833007812 57 -184 59 -180 c 0
 330 -180 l 0
 330 1445 l 0
 65 1445 l 0
 20 1484 l 0
 21.3330078125 1490.66699219 23.6669921875 1499.33300781 27 1510 c 0
 30.3330078125 1520.66699219 34 1531.66699219 38 1543 c 0
 42 1554.33300781 45.8330078125 1565.16699219 49.5 1575.5 c 0
 53.1669921875 1585.83300781 56.3330078125 1594 59 1600 c 0
 590 1600 l 0
 590 -335 l 0
 65 -335 l 0
EndSplineSet
EndChar

StartChar: asciicircum
Encoding: 65 94 65
Width: 1008
VWidth: 1024
Flags: HW
LayerCount: 2
Fore
SplineSet
907 635 m 0
 890.333007812 619.666992188 874.166992188 606.833007812 858.5 596.5 c 0
 842.833007812 586.166992188 823.666992188 575.666992188 801 565 c 0
 764 592 l 0
 481 1315 l 0
 231 635 l 0
 223.666992188 628.333007812 215.333007812 621.5 206 614.5 c 0
 196.666992188 607.5 187 600.833007812 177 594.5 c 0
 167 588.166992188 157.166992188 582.5 147.5 577.5 c 0
 137.833007812 572.5 129.666992188 568.333007812 123 565 c 0
 100 592 l 0
 422 1462 l 0
 430 1470 439.833007812 1478.16699219 451.5 1486.5 c 0
 463.166992188 1494.83300781 475 1503 487 1511 c 0
 499 1519 511 1526.33300781 523 1533 c 0
 535 1539.66699219 545.666992188 1545.33300781 555 1550 c 0
 907 635 l 0
EndSplineSet
EndChar

StartChar: underscore
Encoding: 66 95 66
Width: 1000
VWidth: 1024
Flags: HW
LayerCount: 2
Fore
SplineSet
950 -164 m 0
 948 -171.333007812 944.666992188 -180.666992188 940 -192 c 0
 935.333007812 -203.333007812 930.333007812 -215 925 -227 c 0
 919.666992188 -239 914.666992188 -250.333007812 910 -261 c 0
 905.333007812 -271.666992188 901.666992188 -279.666992188 899 -285 c 0
 85 -285 l 0
 50 -251 l 0
 52 -243.666992188 55.1669921875 -234.5 59.5 -223.5 c 0
 63.8330078125 -212.5 68.5 -201.166992188 73.5 -189.5 c 0
 78.5 -177.833007812 83.5 -166.666992188 88.5 -156 c 0
 93.5 -145.333007812 97.6669921875 -136.666992188 101 -130 c 0
 915 -130 l 0
 950 -164 l 0
EndSplineSet
EndChar

StartChar: grave
Encoding: 67 96 67
Width: 653
VWidth: 1024
Flags: HW
LayerCount: 2
Fore
SplineSet
456 1088 m 0
 452 1084 445.666992188 1079.5 437 1074.5 c 0
 428.333007812 1069.5 419.333007812 1064.5 410 1059.5 c 0
 400.666992188 1054.5 391.5 1050 382.5 1046 c 0
 373.5 1042 366 1039 360 1037 c 0
 -32 1414 l 0
 0 1475 l 0
 4 1476.33300781 12.1669921875 1478.16699219 24.5 1480.5 c 0
 36.8330078125 1482.83300781 51.3330078125 1485.66699219 68 1489 c 0
 84.6669921875 1492.33300781 102.166992188 1495.66699219 120.5 1499 c 0
 138.833007812 1502.33300781 156.333007812 1505.5 173 1508.5 c 0
 189.666992188 1511.5 204.666992188 1513.66699219 218 1515 c 0
 246 1519 l 0
 456 1088 l 0
EndSplineSet
EndChar

StartChar: a
Encoding: 68 97 68
Width: 1050
VWidth: 1024
Flags: HW
LayerCount: 2
Fore
SplineSet
1046 122 m 0
 1018 102.666992188 987.833007812 83.8330078125 955.5 65.5 c 0
 923.166992188 47.1669921875 891.833007812 31 861.5 17 c 0
 831.166992188 3 803.666992188 -8.3330078125 779 -17 c 0
 754.333007812 -25.6669921875 735.333007812 -30 722 -30 c 0
 696.666992188 -30 675 -16.1669921875 657 11.5 c 0
 639 39.1669921875 628 77 624 125 c 0
 594 95 563.833007812 70 533.5 50 c 0
 503.166992188 30 473.833007812 14 445.5 2 c 0
 417.166992188 -10 390 -18.3330078125 364 -23 c 0
 338 -27.6669921875 314.333007812 -30 293 -30 c 0
 263.666992188 -30 235.166992188 -25 207.5 -15 c 0
 179.833007812 -5 155 10 133 30 c 0
 111 50 93.3330078125 74.6669921875 80 104 c 0
 66.6669921875 133.333007812 60 167.333007812 60 206 c 0
 60 249.333007812 68 286.5 84 317.5 c 0
 100 348.5 120.333007812 376.333007812 145 401 c 0
 161 417 179.5 432.5 200.5 447.5 c 0
 221.5 462.5 249.666992188 477 285 491 c 0
 320.333007812 505 365 518.666992188 419 532 c 0
 473 545.333007812 541 558.333007812 623 571 c 0
 623 682 l 0
 623 702 621.166992188 720.5 617.5 737.5 c 0
 613.833007812 754.5 607.5 769 598.5 781 c 0
 589.5 793 577.333007812 802.5 562 809.5 c 0
 546.666992188 816.5 527.666992188 820 505 820 c 0
 491 820 476.833007812 817.166992188 462.5 811.5 c 0
 448.166992188 805.833007812 435.5 797.666992188 424.5 787 c 0
 413.5 776.333007812 404.833007812 763.166992188 398.5 747.5 c 0
 392.166992188 731.833007812 390 714 392 694 c 0
 392.666992188 690 386.666992188 684.833007812 374 678.5 c 0
 361.333007812 672.166992188 345.166992188 665.5 325.5 658.5 c 0
 305.833007812 651.5 284.166992188 644.666992188 260.5 638 c 0
 236.833007812 631.333007812 214.166992188 625.5 192.5 620.5 c 0
 170.833007812 615.5 151.666992188 611.666992188 135 609 c 0
 118.333007812 606.333007812 107.333007812 605.666992188 102 607 c 0
 78 666 l 0
 94.6669921875 708 120.666992188 746.833007812 156 782.5 c 0
 191.333007812 818.166992188 233 849.166992188 281 875.5 c 0
 329 901.833007812 381.5 922.5 438.5 937.5 c 0
 495.5 952.5 554 960 614 960 c 0
 662.666992188 960 704.666992188 953.5 740 940.5 c 0
 775.333007812 927.5 804.333007812 909.833007812 827 887.5 c 0
 849.666992188 865.166992188 866.333007812 838.833007812 877 808.5 c 0
 887.666992188 778.166992188 893 746 893 712 c 0
 893 258 l 0
 893 230 896.666992188 210 904 198 c 0
 911.333007812 186 921 180 933 180 c 0
 937.666992188 180 942.333007812 180.333007812 947 181 c 0
 951.666992188 181.666992188 957.333007812 183 964 185 c 0
 970.666992188 187 978.5 189.833007812 987.5 193.5 c 0
 996.5 197.166992188 1007.66699219 201.666992188 1021 207 c 0
 1046 122 l 0
432 160 m 0
 442 160 453 161 465 163 c 0
 477 165 490.5 169.5 505.5 176.5 c 0
 520.5 183.5 537.666992188 193.333007812 557 206 c 0
 576.333007812 218.666992188 598.333007812 235.666992188 623 257 c 0
 623 466 l 0
 587.666992188 460 557.833007812 454.333007812 533.5 449 c 0
 509.166992188 443.666992188 488.666992188 438.166992188 472 432.5 c 0
 455.333007812 426.833007812 441.5 420.666992188 430.5 414 c 0
 419.5 407.333007812 410 400 402 392 c 0
 384.666992188 374.666992188 370.666992188 356.666992188 360 338 c 0
 349.333007812 319.333007812 344 296.333007812 344 269 c 0
 344 247.666992188 347 230 353 216 c 0
 359 202 366.333007812 190.833007812 375 182.5 c 0
 383.666992188 174.166992188 393.166992188 168.333007812 403.5 165 c 0
 413.833007812 161.666992188 423.333007812 160 432 160 c 0
EndSplineSet
EndChar

StartChar: b
Encoding: 69 98 69
Width: 1120
VWidth: 1024
Flags: HW
LayerCount: 2
Fore
SplineSet
1050 512 m 0
 1050 473.333007812 1042.33300781 433.166992188 1027 391.5 c 0
 1011.66699219 349.833007812 990.666992188 308.833007812 964 268.5 c 0
 937.333007812 228.166992188 906.333007812 190 871 154 c 0
 835.666992188 118 798 86.3330078125 758 59 c 0
 718 31.6669921875 676.666992188 10 634 -6 c 0
 591.333007812 -22 549.666992188 -30 509 -30 c 0
 489 -30 464.166992188 -26.6669921875 434.5 -20 c 0
 404.833007812 -13.3330078125 372.666992188 -4.3330078125 338 7 c 0
 303.333007812 18.3330078125 267.333007812 31.6669921875 230 47 c 0
 192.666992188 62.3330078125 156 78.6669921875 120 96 c 0
 120 1256 l 0
 120 1286.66699219 118.833007812 1310.33300781 116.5 1327 c 0
 114.166992188 1343.66699219 109 1356.16699219 101 1364.5 c 0
 93 1372.83300781 81 1378.33300781 65 1381 c 0
 49 1383.66699219 27.3330078125 1386.66699219 0 1390 c 0
 0 1470 l 0
 34.6669921875 1475.33300781 67 1480.5 97 1485.5 c 0
 127 1490.5 155.833007812 1496.16699219 183.5 1502.5 c 0
 211.166992188 1508.83300781 238 1515.83300781 264 1523.5 c 0
 290 1531.16699219 316.333007812 1540 343 1550 c 0
 345.666992188 1547.33300781 349.5 1543.66699219 354.5 1539 c 0
 359.5 1534.33300781 364.666992188 1529.33300781 370 1524 c 0
 376 1518 382.666992188 1512 390 1506 c 0
 390 827 l 0
 423.333007812 851.666992188 456 872.5 488 889.5 c 0
 520 906.5 550.5 920.333007812 579.5 931 c 0
 608.5 941.666992188 635.5 949.166992188 660.5 953.5 c 0
 685.5 957.833007812 707.666992188 960 727 960 c 0
 777.666992188 960 823 949.333007812 863 928 c 0
 903 906.666992188 936.833007812 876.5 964.5 837.5 c 0
 992.166992188 798.5 1013.33300781 751.5 1028 696.5 c 0
 1042.66699219 641.5 1050 580 1050 512 c 0
800 418 m 0
 800 484.666992188 794.5 540.666992188 783.5 586 c 0
 772.5 631.333007812 757.333007812 668 738 696 c 0
 718.666992188 724 696.166992188 744.166992188 670.5 756.5 c 0
 644.833007812 768.833007812 617 775 587 775 c 0
 563.666992188 775 536.5 769.5 505.5 758.5 c 0
 474.5 747.5 436 728 390 700 c 0
 390 223 l 0
 443.333007812 197.666992188 488.166992188 179.166992188 524.5 167.5 c 0
 560.833007812 155.833007812 588.333007812 150 607 150 c 0
 639.666992188 150 668.166992188 156.666992188 692.5 170 c 0
 716.833007812 183.333007812 737 202 753 226 c 0
 769 250 780.833007812 278.333007812 788.5 311 c 0
 796.166992188 343.666992188 800 379.333007812 800 418 c 0
EndSplineSet
EndChar

StartChar: c
Encoding: 70 99 70
Width: 945
VWidth: 1024
Flags: HW
LayerCount: 2
Fore
SplineSet
910 190 m 0
 866.666992188 141.333007812 826 102.5 788 73.5 c 0
 750 44.5 713.666992188 22.3330078125 679 7 c 0
 644.333007812 -8.3330078125 611.166992188 -18.3330078125 579.5 -23 c 0
 547.833007812 -27.6669921875 516.333007812 -30 485 -30 c 0
 429 -30 375.333007812 -19.1669921875 324 2.5 c 0
 272.666992188 24.1669921875 227.5 55.3330078125 188.5 96 c 0
 149.5 136.666992188 118.333007812 186.333007812 95 245 c 0
 71.6669921875 303.666992188 60 370 60 444 c 0
 60 516 73.3330078125 583.333007812 100 646 c 0
 126.666992188 708.666992188 164.166992188 763.166992188 212.5 809.5 c 0
 260.833007812 855.833007812 318.666992188 892.5 386 919.5 c 0
 453.333007812 946.5 528 960 610 960 c 0
 632 960 657.666992188 958.166992188 687 954.5 c 0
 716.333007812 950.833007812 745.166992188 945.5 773.5 938.5 c 0
 801.833007812 931.5 828 923.166992188 852 913.5 c 0
 876 903.833007812 893.666992188 893 905 881 c 0
 905.666992188 875.666992188 904.666992188 865.5 902 850.5 c 0
 899.333007812 835.5 895.5 818.166992188 890.5 798.5 c 0
 885.5 778.833007812 879.666992188 757.833007812 873 735.5 c 0
 866.333007812 713.166992188 859.666992188 692 853 672 c 0
 846.333007812 652 839.833007812 634.333007812 833.5 619 c 0
 827.166992188 603.666992188 822 593 818 587 c 0
 741 597 l 0
 728.333007812 637 715.333007812 671.5 702 700.5 c 0
 688.666992188 729.5 674 753.666992188 658 773 c 0
 642 792.333007812 624.333007812 806.666992188 605 816 c 0
 585.666992188 825.333007812 564 830 540 830 c 0
 512.666992188 830 486.333007812 823.666992188 461 811 c 0
 435.666992188 798.333007812 413.333007812 778 394 750 c 0
 374.666992188 722 359.166992188 685.5 347.5 640.5 c 0
 335.833007812 595.5 330 540.333007812 330 475 c 0
 330 423 336.166992188 376.833007812 348.5 336.5 c 0
 360.833007812 296.166992188 378.166992188 262.166992188 400.5 234.5 c 0
 422.833007812 206.833007812 449 185.833007812 479 171.5 c 0
 509 157.166992188 541.666992188 150 577 150 c 0
 595.666992188 150 614 151.166992188 632 153.5 c 0
 650 155.833007812 669.5 161 690.5 169 c 0
 711.5 177 734.833007812 188.333007812 760.5 203 c 0
 786.166992188 217.666992188 816.333007812 237 851 261 c 0
 910 190 l 0
EndSplineSet
EndChar

StartChar: d
Encoding: 71 100 71
Width: 1175
VWidth: 1024
Flags: HW
LayerCount: 2
Fore
SplineSet
745 272 m 0
 745 698 l 0
 719.666992188 736.666992188 690.166992188 766.666992188 656.5 788 c 0
 622.833007812 809.333007812 584 820 540 820 c 0
 510 820 482.166992188 814.166992188 456.5 802.5 c 0
 430.833007812 790.833007812 408.666992188 772.333007812 390 747 c 0
 371.333007812 721.666992188 356.666992188 689 346 649 c 0
 335.333007812 609 330 561 330 505 c 0
 330 453.666992188 336.166992188 407.833007812 348.5 367.5 c 0
 360.833007812 327.166992188 377.166992188 293.166992188 397.5 265.5 c 0
 417.833007812 237.833007812 441 216.666992188 467 202 c 0
 493 187.333007812 519.666992188 180 547 180 c 0
 563.666992188 180 579.666992188 181.5 595 184.5 c 0
 610.333007812 187.5 625.833007812 192.5 641.5 199.5 c 0
 657.166992188 206.5 673.5 216 690.5 228 c 0
 707.5 240 725.666992188 254.666992188 745 272 c 0
1171 124 m 0
 1140.33300781 103.333007812 1108 83.6669921875 1074 65 c 0
 1040 46.3330078125 1007.83300781 30 977.5 16 c 0
 947.166992188 2 920.5 -9.1669921875 897.5 -17.5 c 0
 874.5 -25.8330078125 858.333007812 -30 849 -30 c 0
 823.666992188 -30 803.333007812 -15.8330078125 788 12.5 c 0
 772.666992188 40.8330078125 761.333007812 82 754 136 c 0
 721.333007812 104.666992188 692 78.3330078125 666 57 c 0
 640 35.6669921875 615 18.5 591 5.5 c 0
 567 -7.5 542.666992188 -16.6669921875 518 -22 c 0
 493.333007812 -27.3330078125 466 -30 436 -30 c 0
 388.666992188 -30 342.5 -19.1669921875 297.5 2.5 c 0
 252.5 24.1669921875 212.5 55.3330078125 177.5 96 c 0
 142.5 136.666992188 114.166992188 186.333007812 92.5 245 c 0
 70.8330078125 303.666992188 60 370 60 444 c 0
 60 514 72 580.166992188 96 642.5 c 0
 120 704.833007812 153.666992188 759.5 197 806.5 c 0
 240.333007812 853.5 292.166992188 890.833007812 352.5 918.5 c 0
 412.833007812 946.166992188 479 960 551 960 c 0
 582.333007812 960 613.5 956.333007812 644.5 949 c 0
 675.5 941.666992188 709 926 745 902 c 0
 745 1234 l 0
 745 1270.66699219 744.5 1299.83300781 743.5 1321.5 c 0
 742.5 1343.16699219 738 1359.83300781 730 1371.5 c 0
 722 1383.16699219 708.833007812 1391.16699219 690.5 1395.5 c 0
 672.166992188 1399.83300781 645.333007812 1403.33300781 610 1406 c 0
 610 1485 l 0
 650 1488.33300781 688.166992188 1492.66699219 724.5 1498 c 0
 760.833007812 1503.33300781 794.666992188 1508.83300781 826 1514.5 c 0
 857.333007812 1520.16699219 885.5 1526.16699219 910.5 1532.5 c 0
 935.5 1538.83300781 956.666992188 1544.66699219 974 1550 c 0
 1015 1510 l 0
 1015 314 l 0
 1015 290.666992188 1015.5 271.166992188 1016.5 255.5 c 0
 1017.5 239.833007812 1018.83300781 227.166992188 1020.5 217.5 c 0
 1022.16699219 207.833007812 1024.5 200.666992188 1027.5 196 c 0
 1030.5 191.333007812 1034 188 1038 186 c 0
 1042 184 1046.16699219 182.5 1050.5 181.5 c 0
 1054.83300781 180.5 1060.5 180.666992188 1067.5 182 c 0
 1074.5 183.333007812 1083.66699219 185.833007812 1095 189.5 c 0
 1106.33300781 193.166992188 1120.66699219 199 1138 207 c 0
 1171 124 l 0
EndSplineSet
EndChar

StartChar: e
Encoding: 72 101 72
Width: 1006
VWidth: 1024
Flags: HW
LayerCount: 2
Fore
SplineSet
946 547 m 0
 940 540.333007812 930.833007812 532.833007812 918.5 524.5 c 0
 906.166992188 516.166992188 892.666992188 508 878 500 c 0
 863.333007812 492 848.666992188 484.333007812 834 477 c 0
 819.333007812 469.666992188 806.666992188 464 796 460 c 0
 340 460 l 0
 342 414 348.5 371.833007812 359.5 333.5 c 0
 370.5 295.166992188 385.833007812 262.5 405.5 235.5 c 0
 425.166992188 208.5 449.333007812 187.5 478 172.5 c 0
 506.666992188 157.5 539.333007812 150 576 150 c 0
 596.666992188 150 617 151.166992188 637 153.5 c 0
 657 155.833007812 678.5 161 701.5 169 c 0
 724.5 177 750.5 188.666992188 779.5 204 c 0
 808.5 219.333007812 843 240 883 266 c 0
 887 264 892 259.5 898 252.5 c 0
 904 245.5 909.833007812 238.166992188 915.5 230.5 c 0
 921.166992188 222.833007812 926.333007812 215.666992188 931 209 c 0
 935.666992188 202.333007812 938.666992188 197.666992188 940 195 c 0
 892.666992188 149 850.333007812 111.333007812 813 82 c 0
 775.666992188 52.6669921875 739.666992188 29.6669921875 705 13 c 0
 670.333007812 -3.6669921875 635.5 -15 600.5 -21 c 0
 565.5 -27 527 -30 485 -30 c 0
 426.333007812 -30 371.166992188 -18.5 319.5 4.5 c 0
 267.833007812 27.5 222.833007812 59.8330078125 184.5 101.5 c 0
 146.166992188 143.166992188 115.833007812 193 93.5 251 c 0
 71.1669921875 309 60 373.333007812 60 444 c 0
 60 534.666992188 76.5 614.166992188 109.5 682.5 c 0
 142.5 750.833007812 193 810.333007812 261 861 c 0
 298.333007812 889 342.5 912.5 393.5 931.5 c 0
 444.5 950.5 498 960 554 960 c 0
 619.333007812 960 676.5 949.333007812 725.5 928 c 0
 774.5 906.666992188 815.333007812 877.333007812 848 840 c 0
 880.666992188 802.666992188 905.166992188 758.833007812 921.5 708.5 c 0
 937.833007812 658.166992188 946 604.333007812 946 547 c 0
516 835 m 0
 486 835 460.666992188 829.166992188 440 817.5 c 0
 419.333007812 805.833007812 402.166992188 789 388.5 767 c 0
 374.833007812 745 364.333007812 718.333007812 357 687 c 0
 349.666992188 655.666992188 344.666992188 620 342 580 c 0
 644 580 l 0
 659.333007812 580 669.5 582.5 674.5 587.5 c 0
 679.5 592.5 682 602 682 616 c 0
 682 636.666992188 679.166992188 659.666992188 673.5 685 c 0
 667.833007812 710.333007812 658.5 734.166992188 645.5 756.5 c 0
 632.5 778.833007812 615.333007812 797.5 594 812.5 c 0
 572.666992188 827.5 546.666992188 835 516 835 c 0
EndSplineSet
EndChar

StartChar: f
Encoding: 73 102 73
Width: 715
VWidth: 1024
Flags: HW
LayerCount: 2
Fore
SplineSet
915 1454 m 0
 915 1445.33300781 911.5 1435 904.5 1423 c 0
 897.5 1411 888.5 1398.5 877.5 1385.5 c 0
 866.5 1372.5 854.333007812 1359.33300781 841 1346 c 0
 827.666992188 1332.66699219 814.5 1320.5 801.5 1309.5 c 0
 788.5 1298.5 776.333007812 1288.83300781 765 1280.5 c 0
 753.666992188 1272.16699219 744.666992188 1266.33300781 738 1263 c 0
 706 1306.33300781 675.333007812 1337.5 646 1356.5 c 0
 616.666992188 1375.5 590.666992188 1385 568 1385 c 0
 550.666992188 1385 534.833007812 1379.83300781 520.5 1369.5 c 0
 506.166992188 1359.16699219 493.666992188 1340.33300781 483 1313 c 0
 472.333007812 1285.66699219 464.166992188 1248 458.5 1200 c 0
 452.833007812 1152 450 1090.66699219 450 1016 c 0
 450 930 l 0
 696 930 l 0
 735 891 l 0
 729 879 721.5 866.5 712.5 853.5 c 0
 703.5 840.5 694.5 828 685.5 816 c 0
 676.5 804 667.666992188 793 659 783 c 0
 650.333007812 773 643 765.333007812 637 760 c 0
 621.666992188 768 600 775.833007812 572 783.5 c 0
 544 791.166992188 503.333007812 795 450 795 c 0
 450 142 l 0
 450 138 453 134 459 130 c 0
 465 126 475.666992188 121.833007812 491 117.5 c 0
 506.333007812 113.166992188 526.666992188 108.166992188 552 102.5 c 0
 577.333007812 96.8330078125 609.666992188 90.3330078125 649 83 c 0
 649 0 l 0
 50 0 l 0
 50 83 l 0
 96 91 129.166992188 100.833007812 149.5 112.5 c 0
 169.833007812 124.166992188 180 134 180 142 c 0
 180 795 l 0
 66 795 l 0
 35 833 l 0
 113 930 l 0
 180 930 l 0
 180 961 l 0
 180 1055.66699219 193 1138.66699219 219 1210 c 0
 245 1281.33300781 285 1344 339 1398 c 0
 365.666992188 1424.66699219 393 1447.66699219 421 1467 c 0
 449 1486.33300781 476.666992188 1502.16699219 504 1514.5 c 0
 531.333007812 1526.83300781 558 1535.83300781 584 1541.5 c 0
 610 1547.16699219 634.333007812 1550 657 1550 c 0
 689.666992188 1550 721.5 1546 752.5 1538 c 0
 783.5 1530 811 1520.83300781 835 1510.5 c 0
 859 1500.16699219 878.333007812 1489.66699219 893 1479 c 0
 907.666992188 1468.33300781 915 1460 915 1454 c 0
EndSplineSet
EndChar

StartChar: g
Encoding: 74 103 74
Width: 1079
VWidth: 1024
Flags: HW
LayerCount: 2
Fore
SplineSet
920 641 m 0
 920 589.666992188 908.833007812 542.833007812 886.5 500.5 c 0
 864.166992188 458.166992188 833.833007812 421.833007812 795.5 391.5 c 0
 757.166992188 361.166992188 712.5 337.5 661.5 320.5 c 0
 610.5 303.5 556.333007812 295 499 295 c 0
 487 295 l 0
 463.666992188 272.333007812 449.333007812 254.5 444 241.5 c 0
 438.666992188 228.5 436 220 436 216 c 0
 436 210.666992188 437.5 205.5 440.5 200.5 c 0
 443.5 195.5 452 190.333007812 466 185 c 0
 480 179.666992188 501.5 174.166992188 530.5 168.5 c 0
 559.5 162.833007812 600 156.666992188 652 150 c 0
 732 139.333007812 798.333007812 127.166992188 851 113.5 c 0
 903.666992188 99.8330078125 945.5 83.1669921875 976.5 63.5 c 0
 1007.5 43.8330078125 1029.16699219 20.6669921875 1041.5 -6 c 0
 1053.83300781 -32.6669921875 1060 -64 1060 -100 c 0
 1060 -130 1052.66699219 -160.333007812 1038 -191 c 0
 1023.33300781 -221.666992188 1003.33300781 -251.5 978 -280.5 c 0
 952.666992188 -309.5 922.666992188 -336.666992188 888 -362 c 0
 853.333007812 -387.333007812 815.833007812 -409.5 775.5 -428.5 c 0
 735.166992188 -447.5 693 -462.5 649 -473.5 c 0
 605 -484.5 561 -490 517 -490 c 0
 481 -490 443.5 -487.833007812 404.5 -483.5 c 0
 365.5 -479.166992188 327.166992188 -472.333007812 289.5 -463 c 0
 251.833007812 -453.666992188 216.166992188 -441.833007812 182.5 -427.5 c 0
 148.833007812 -413.166992188 119.166992188 -395.833007812 93.5 -375.5 c 0
 67.8330078125 -355.166992188 47.5 -332.166992188 32.5 -306.5 c 0
 17.5 -280.833007812 10 -251.666992188 10 -219 c 0
 10 -203 13.6669921875 -186.666992188 21 -170 c 0
 28.3330078125 -153.333007812 41.1669921875 -135.5 59.5 -116.5 c 0
 77.8330078125 -97.5 102.833007812 -77 134.5 -55 c 0
 166.166992188 -33 206.333007812 -8.3330078125 255 19 c 0
 218.333007812 33.6669921875 190.333007812 49 171 65 c 0
 151.666992188 81 142 97 142 113 c 0
 142 129 157.333007812 155.166992188 188 191.5 c 0
 218.666992188 227.833007812 268 269.333007812 336 316 c 0
 298 326.666992188 263.166992188 340.833007812 231.5 358.5 c 0
 199.833007812 376.166992188 172.833007812 397.166992188 150.5 421.5 c 0
 128.166992188 445.833007812 110.833007812 473.166992188 98.5 503.5 c 0
 86.1669921875 533.833007812 80 566.666992188 80 602 c 0
 80 650.666992188 92.3330078125 696.833007812 117 740.5 c 0
 141.666992188 784.166992188 174.666992188 822.166992188 216 854.5 c 0
 257.333007812 886.833007812 305.5 912.5 360.5 931.5 c 0
 415.5 950.5 473.666992188 960 535 960 c 0
 583.666992188 960 628.833007812 953.5 670.5 940.5 c 0
 712.166992188 927.5 749.666992188 909.666992188 783 887 c 0
 809.666992188 891 836 896.166992188 862 902.5 c 0
 888 908.833007812 912.666992188 915.5 936 922.5 c 0
 959.333007812 929.5 980.666992188 936.166992188 1000 942.5 c 0
 1019.33300781 948.833007812 1035.66699219 954.666992188 1049 960 c 0
 1079 920 l 0
 1077.66699219 913.333007812 1074.83300781 904.833007812 1070.5 894.5 c 0
 1066.16699219 884.166992188 1061.33300781 873.333007812 1056 862 c 0
 1050.66699219 850.666992188 1045 839.5 1039 828.5 c 0
 1033 817.5 1027.33300781 808 1022 800 c 0
 1000 796.666992188 977.666992188 793.5 955 790.5 c 0
 932.333007812 787.5 907.333007812 785.333007812 880 784 c 0
 906.666992188 740 920 692.333007812 920 641 c 0
568 -54 m 0
 502.666992188 -45.3330078125 443 -34.3330078125 389 -21 c 0
 363 -40.3330078125 342.833007812 -57.8330078125 328.5 -73.5 c 0
 314.166992188 -89.1669921875 303.333007812 -103.166992188 296 -115.5 c 0
 288.666992188 -127.833007812 284.166992188 -139.333007812 282.5 -150 c 0
 280.833007812 -160.666992188 280 -170.666992188 280 -180 c 0
 280 -200.666992188 287.666992188 -220.333007812 303 -239 c 0
 318.333007812 -257.666992188 339.833007812 -274.166992188 367.5 -288.5 c 0
 395.166992188 -302.833007812 428.166992188 -314.166992188 466.5 -322.5 c 0
 504.833007812 -330.833007812 546.666992188 -335 592 -335 c 0
 629.333007812 -335 661.166992188 -330.5 687.5 -321.5 c 0
 713.833007812 -312.5 735.333007812 -300.5 752 -285.5 c 0
 768.666992188 -270.5 780.833007812 -253.5 788.5 -234.5 c 0
 796.166992188 -215.5 800 -196.333007812 800 -177 c 0
 800 -166.333007812 797.333007812 -155.166992188 792 -143.5 c 0
 786.666992188 -131.833007812 775.833007812 -120.5 759.5 -109.5 c 0
 743.166992188 -98.5 719.833007812 -88.1669921875 689.5 -78.5 c 0
 659.166992188 -68.8330078125 618.666992188 -60.6669921875 568 -54 c 0
660 600 m 0
 660 632.666992188 656 663.666992188 648 693 c 0
 640 722.333007812 628.333007812 747.833007812 613 769.5 c 0
 597.666992188 791.166992188 578.5 808.333007812 555.5 821 c 0
 532.5 833.666992188 506 840 476 840 c 0
 459.333007812 840 443 836.333007812 427 829 c 0
 411 821.666992188 396.5 810.5 383.5 795.5 c 0
 370.5 780.5 360 761.666992188 352 739 c 0
 344 716.333007812 340 689.666992188 340 659 c 0
 340 625.666992188 343.5 594.5 350.5 565.5 c 0
 357.5 536.5 368.5 511.333007812 383.5 490 c 0
 398.5 468.666992188 417.666992188 451.666992188 441 439 c 0
 464.333007812 426.333007812 492 420 524 420 c 0
 543.333007812 420 561.333007812 423.666992188 578 431 c 0
 594.666992188 438.333007812 609 449.333007812 621 464 c 0
 633 478.666992188 642.5 497.333007812 649.5 520 c 0
 656.5 542.666992188 660 569.333007812 660 600 c 0
EndSplineSet
EndChar

StartChar: h
Encoding: 75 104 75
Width: 1210
VWidth: 1024
Flags: HW
LayerCount: 2
Fore
SplineSet
660 0 m 0
 660 83 l 0
 708 95.6669921875 741.666992188 106.666992188 761 116 c 0
 780.333007812 125.333007812 790 134.666992188 790 144 c 0
 790 553 l 0
 790 593.666992188 788 627.333007812 784 654 c 0
 780 680.666992188 773.666992188 701.833007812 765 717.5 c 0
 756.333007812 733.166992188 745.166992188 744.166992188 731.5 750.5 c 0
 717.833007812 756.833007812 701.333007812 760 682 760 c 0
 664 760 646.5 757.833007812 629.5 753.5 c 0
 612.5 749.166992188 594.666992188 743.166992188 576 735.5 c 0
 557.333007812 727.833007812 537.333007812 718.333007812 516 707 c 0
 494.666992188 695.666992188 471 683 445 669 c 0
 445 144 l 0
 445 134 455.833007812 123.666992188 477.5 113 c 0
 499.166992188 102.333007812 531.666992188 92.3330078125 575 83 c 0
 575 0 l 0
 45 0 l 0
 45 83 l 0
 89 94.3330078125 121.666992188 104.5 143 113.5 c 0
 164.333007812 122.5 175 132.666992188 175 144 c 0
 175 1258 l 0
 175 1286 174.333007812 1307.83300781 173 1323.5 c 0
 171.666992188 1339.16699219 166.833007812 1351.33300781 158.5 1360 c 0
 150.166992188 1368.66699219 137.166992188 1374.83300781 119.5 1378.5 c 0
 101.833007812 1382.16699219 77 1386 45 1390 c 0
 45 1470 l 0
 85.6669921875 1475.33300781 122 1480.66699219 154 1486 c 0
 186 1491.33300781 215.666992188 1497.16699219 243 1503.5 c 0
 270.333007812 1509.83300781 296.333007812 1516.66699219 321 1524 c 0
 345.666992188 1531.33300781 371.333007812 1540 398 1550 c 0
 445 1506 l 0
 445 814 l 0
 486.333007812 841.333007812 525.166992188 864.333007812 561.5 883 c 0
 597.833007812 901.666992188 632.333007812 916.666992188 665 928 c 0
 697.666992188 939.333007812 728.333007812 947.5 757 952.5 c 0
 785.666992188 957.5 813 960 839 960 c 0
 867.666992188 960 895.333007812 955.333007812 922 946 c 0
 948.666992188 936.666992188 972.166992188 921.5 992.5 900.5 c 0
 1012.83300781 879.5 1029.16699219 851.833007812 1041.5 817.5 c 0
 1053.83300781 783.166992188 1060 741 1060 691 c 0
 1060 144 l 0
 1060 139.333007812 1061.83300781 134.833007812 1065.5 130.5 c 0
 1069.16699219 126.166992188 1075.83300781 121.666992188 1085.5 117 c 0
 1095.16699219 112.333007812 1108.5 107.166992188 1125.5 101.5 c 0
 1142.5 95.8330078125 1164 89.6669921875 1190 83 c 0
 1190 0 l 0
 660 0 l 0
EndSplineSet
EndChar

StartChar: i
Encoding: 76 105 76
Width: 635
VWidth: 1024
Flags: HW
LayerCount: 2
Fore
SplineSet
500 1261 m 0
 500 1237 495.333007812 1215.33300781 486 1196 c 0
 476.666992188 1176.66699219 463.666992188 1160.16699219 447 1146.5 c 0
 430.333007812 1132.83300781 410.833007812 1122.33300781 388.5 1115 c 0
 366.166992188 1107.66699219 341.666992188 1104 315 1104 c 0
 295 1104 275.833007812 1106.16699219 257.5 1110.5 c 0
 239.166992188 1114.83300781 222.666992188 1121.83300781 208 1131.5 c 0
 193.333007812 1141.16699219 181.666992188 1153.33300781 173 1168 c 0
 164.333007812 1182.66699219 160 1200 160 1220 c 0
 160 1244 164.833007812 1265.66699219 174.5 1285 c 0
 184.166992188 1304.33300781 197.333007812 1320.66699219 214 1334 c 0
 230.666992188 1347.33300781 250.166992188 1357.66699219 272.5 1365 c 0
 294.833007812 1372.33300781 319 1376 345 1376 c 0
 364.333007812 1376 383.333007812 1373.83300781 402 1369.5 c 0
 420.666992188 1365.16699219 437.166992188 1358.33300781 451.5 1349 c 0
 465.833007812 1339.66699219 477.5 1327.83300781 486.5 1313.5 c 0
 495.5 1299.16699219 500 1281.66699219 500 1261 c 0
60 0 m 0
 60 83 l 0
 105.333007812 92.3330078125 138.333007812 102.5 159 113.5 c 0
 179.666992188 124.5 190 134.666992188 190 144 c 0
 190 640 l 0
 190 674 189.833007812 701.5 189.5 722.5 c 0
 189.166992188 743.5 185.333007812 759.833007812 178 771.5 c 0
 170.666992188 783.166992188 158 791.666992188 140 797 c 0
 122 802.333007812 95.3330078125 806.666992188 60 810 c 0
 60 890 l 0
 122.666992188 898 180.333007812 907.5 233 918.5 c 0
 285.666992188 929.5 336.666992188 943.333007812 386 960 c 0
 460 960 l 0
 460 144 l 0
 460 136 469.5 126.166992188 488.5 114.5 c 0
 507.5 102.833007812 541.333007812 92.3330078125 590 83 c 0
 590 0 l 0
 60 0 l 0
EndSplineSet
EndChar

StartChar: j
Encoding: 77 106 77
Width: 610
VWidth: 1024
Flags: HW
LayerCount: 2
Fore
SplineSet
500 1261 m 0
 500 1237 495.333007812 1215.33300781 486 1196 c 0
 476.666992188 1176.66699219 463.666992188 1160.16699219 447 1146.5 c 0
 430.333007812 1132.83300781 410.833007812 1122.33300781 388.5 1115 c 0
 366.166992188 1107.66699219 341.666992188 1104 315 1104 c 0
 295 1104 275.833007812 1106.16699219 257.5 1110.5 c 0
 239.166992188 1114.83300781 222.666992188 1121.83300781 208 1131.5 c 0
 193.333007812 1141.16699219 181.666992188 1153.33300781 173 1168 c 0
 164.333007812 1182.66699219 160 1200 160 1220 c 0
 160 1244 164.833007812 1265.66699219 174.5 1285 c 0
 184.166992188 1304.33300781 197.333007812 1320.66699219 214 1334 c 0
 230.666992188 1347.33300781 250.166992188 1357.66699219 272.5 1365 c 0
 294.833007812 1372.33300781 319 1376 345 1376 c 0
 364.333007812 1376 383.333007812 1373.83300781 402 1369.5 c 0
 420.666992188 1365.16699219 437.166992188 1358.33300781 451.5 1349 c 0
 465.833007812 1339.66699219 477.5 1327.83300781 486.5 1313.5 c 0
 495.5 1299.16699219 500 1281.66699219 500 1261 c 0
455 109 m 0
 455 32.3330078125 447.5 -32.3330078125 432.5 -85 c 0
 417.5 -137.666992188 398.333007812 -182.166992188 375 -218.5 c 0
 351.666992188 -254.833007812 325.833007812 -285.5 297.5 -310.5 c 0
 269.166992188 -335.5 241.666992188 -358.666992188 215 -380 c 0
 197 -394 176.666992188 -407.666992188 154 -421 c 0
 131.333007812 -434.333007812 108 -446.166992188 84 -456.5 c 0
 60 -466.833007812 36 -475 12 -481 c 0
 -12 -487 -34 -490 -54 -490 c 0
 -82 -490 -111.166992188 -486.333007812 -141.5 -479 c 0
 -171.833007812 -471.666992188 -199.5 -462.833007812 -224.5 -452.5 c 0
 -249.5 -442.166992188 -270 -431.333007812 -286 -420 c 0
 -302 -408.666992188 -310 -399 -310 -391 c 0
 -310 -383.666992188 -306.333007812 -374.666992188 -299 -364 c 0
 -291.666992188 -353.333007812 -282.166992188 -341.666992188 -270.5 -329 c 0
 -258.833007812 -316.333007812 -245.833007812 -303.666992188 -231.5 -291 c 0
 -217.166992188 -278.333007812 -203 -266.5 -189 -255.5 c 0
 -175 -244.5 -162.166992188 -234.833007812 -150.5 -226.5 c 0
 -138.833007812 -218.166992188 -129.666992188 -212.666992188 -123 -210 c 0
 -112.333007812 -224 -98.8330078125 -236.833007812 -82.5 -248.5 c 0
 -66.1669921875 -260.166992188 -49.1669921875 -270.166992188 -31.5 -278.5 c 0
 -13.8330078125 -286.833007812 3.5 -293.333007812 20.5 -298 c 0
 37.5 -302.666992188 52.3330078125 -305 65 -305 c 0
 81.6669921875 -305 97.3330078125 -300.666992188 112 -292 c 0
 126.666992188 -283.333007812 139.333007812 -266.333007812 150 -241 c 0
 160.666992188 -215.666992188 169.166992188 -180.333007812 175.5 -135 c 0
 181.833007812 -89.6669921875 185 -30.3330078125 185 43 c 0
 185 640 l 0
 185 674 184.666992188 701.333007812 184 722 c 0
 183.333007812 742.666992188 179.333007812 758.833007812 172 770.5 c 0
 164.666992188 782.166992188 152 790.666992188 134 796 c 0
 116 801.333007812 89.6669921875 806 55 810 c 0
 55 890 l 0
 93 894.666992188 125.833007812 899.333007812 153.5 904 c 0
 181.166992188 908.666992188 206.833007812 913.666992188 230.5 919 c 0
 254.166992188 924.333007812 277.5 930.333007812 300.5 937 c 0
 323.5 943.666992188 349.333007812 951.333007812 378 960 c 0
 455 960 l 0
 455 109 l 0
EndSplineSet
EndChar

StartChar: k
Encoding: 78 107 78
Width: 1164
VWidth: 1024
Flags: HW
LayerCount: 2
Fore
SplineSet
45 0 m 0
 45 83 l 0
 89 94.3330078125 121.666992188 104.333007812 143 113 c 0
 164.333007812 121.666992188 175 132 175 144 c 0
 175 1256 l 0
 175 1286.66699219 173.666992188 1310.33300781 171 1327 c 0
 168.333007812 1343.66699219 162.5 1356.16699219 153.5 1364.5 c 0
 144.5 1372.83300781 131.333007812 1378.33300781 114 1381 c 0
 96.6669921875 1383.66699219 73.6669921875 1386.66699219 45 1390 c 0
 45 1470 l 0
 116.333007812 1479.33300781 180.833007812 1489.83300781 238.5 1501.5 c 0
 296.166992188 1513.16699219 349.333007812 1529.33300781 398 1550 c 0
 445 1506 l 0
 445 535 l 0
 693 759 l 0
 715 779 729.333007812 794.833007812 736 806.5 c 0
 742.666992188 818.166992188 744 827 740 833 c 0
 736 839 727.666992188 842.833007812 715 844.5 c 0
 702.333007812 846.166992188 687.333007812 847 670 847 c 0
 670 930 l 0
 1139 930 l 0
 1139 847 l 0
 1109 843.666992188 1078.83300781 836.166992188 1048.5 824.5 c 0
 1018.16699219 812.833007812 988.333007812 796.333007812 959 775 c 0
 668 560 l 0
 1024 161 l 0
 1033.33300781 150.333007812 1042.33300781 142 1051 136 c 0
 1059.66699219 130 1069.5 125.666992188 1080.5 123 c 0
 1091.5 120.333007812 1104 119 1118 119 c 0
 1132 119 1148.66699219 119.666992188 1168 121 c 0
 1174 38 l 0
 1154.66699219 33.3330078125 1131.83300781 28.3330078125 1105.5 23 c 0
 1079.16699219 17.6669921875 1053.5 12.5 1028.5 7.5 c 0
 1003.5 2.5 980.833007812 -1.6669921875 960.5 -5 c 0
 940.166992188 -8.3330078125 926.666992188 -10 920 -10 c 0
 892 -10 867.833007812 -6 847.5 2 c 0
 827.166992188 10 809.666992188 23.6669921875 795 43 c 0
 445 515 l 0
 445 144 l 0
 445 138.666992188 446.166992188 134 448.5 130 c 0
 450.833007812 126 455.666992188 121.833007812 463 117.5 c 0
 470.333007812 113.166992188 481.333007812 108.333007812 496 103 c 0
 510.666992188 97.6669921875 530.333007812 91 555 83 c 0
 555 0 l 0
 45 0 l 0
EndSplineSet
EndChar

StartChar: l
Encoding: 79 108 79
Width: 635
VWidth: 1024
Flags: HW
LayerCount: 2
Fore
SplineSet
50 0 m 0
 50 83 l 0
 78.6669921875 87.6669921875 102.166992188 92.5 120.5 97.5 c 0
 138.833007812 102.5 153.166992188 107.5 163.5 112.5 c 0
 173.833007812 117.5 180.833007812 122.666992188 184.5 128 c 0
 188.166992188 133.333007812 190 138.666992188 190 144 c 0
 190 1256 l 0
 190 1286 188.5 1309.33300781 185.5 1326 c 0
 182.5 1342.66699219 176.333007812 1355.16699219 167 1363.5 c 0
 157.666992188 1371.83300781 144.5 1377.5 127.5 1380.5 c 0
 110.5 1383.5 88 1386.66699219 60 1390 c 0
 60 1470 l 0
 96.6669921875 1474.66699219 130.5 1479.5 161.5 1484.5 c 0
 192.5 1489.5 222 1495 250 1501 c 0
 278 1507 305.333007812 1514 332 1522 c 0
 358.666992188 1530 386 1539.33300781 414 1550 c 0
 460 1506 l 0
 460 144 l 0
 460 138.666992188 462.166992188 133.5 466.5 128.5 c 0
 470.833007812 123.5 478.333007812 118.333007812 489 113 c 0
 499.666992188 107.666992188 514 102.5 532 97.5 c 0
 550 92.5 572.666992188 87.6669921875 600 83 c 0
 600 0 l 0
 50 0 l 0
EndSplineSet
EndChar

StartChar: m
Encoding: 80 109 80
Width: 1755
VWidth: 1024
Flags: HW
LayerCount: 2
Fore
SplineSet
1216 0 m 0
 1216 83 l 0
 1240 89 1259.16699219 94.8330078125 1273.5 100.5 c 0
 1287.83300781 106.166992188 1298.83300781 111.5 1306.5 116.5 c 0
 1314.16699219 121.5 1319.16699219 126.166992188 1321.5 130.5 c 0
 1323.83300781 134.833007812 1325 139.333007812 1325 144 c 0
 1325 593 l 0
 1325 633.666992188 1322.83300781 665.833007812 1318.5 689.5 c 0
 1314.16699219 713.166992188 1307.83300781 731 1299.5 743 c 0
 1291.16699219 755 1280.5 762.5 1267.5 765.5 c 0
 1254.5 768.5 1239.33300781 770 1222 770 c 0
 1198 770 1168.5 764.166992188 1133.5 752.5 c 0
 1098.5 740.833007812 1060.66699219 721 1020 693 c 0
 1020 144 l 0
 1020 139.333007812 1021.33300781 134.833007812 1024 130.5 c 0
 1026.66699219 126.166992188 1032.33300781 121.666992188 1041 117 c 0
 1049.66699219 112.333007812 1062 107.166992188 1078 101.5 c 0
 1094 95.8330078125 1115 89.6669921875 1141 83 c 0
 1141 0 l 0
 641 0 l 0
 641 83 l 0
 665 89 684.166992188 94.8330078125 698.5 100.5 c 0
 712.833007812 106.166992188 723.833007812 111.5 731.5 116.5 c 0
 739.166992188 121.5 744.166992188 126.166992188 746.5 130.5 c 0
 748.833007812 134.833007812 750 139.333007812 750 144 c 0
 750 593 l 0
 750 633.666992188 748.5 665.833007812 745.5 689.5 c 0
 742.5 713.166992188 737.5 731 730.5 743 c 0
 723.5 755 714 762.5 702 765.5 c 0
 690 768.5 675 770 657 770 c 0
 631.666992188 770 601.666992188 764.5 567 753.5 c 0
 532.333007812 742.5 491.666992188 722.333007812 445 693 c 0
 445 144 l 0
 445 134 454.166992188 123.666992188 472.5 113 c 0
 490.833007812 102.333007812 521.666992188 92.3330078125 565 83 c 0
 565 0 l 0
 45 0 l 0
 45 83 l 0
 89 94.3330078125 121.666992188 104.5 143 113.5 c 0
 164.333007812 122.5 175 132.666992188 175 144 c 0
 175 681 l 0
 175 707.666992188 174.333007812 728.666992188 173 744 c 0
 171.666992188 759.333007812 166.833007812 771.166992188 158.5 779.5 c 0
 150.166992188 787.833007812 137.166992188 794 119.5 798 c 0
 101.833007812 802 77 806 45 810 c 0
 45 890 l 0
 83 894 117.166992188 898.333007812 147.5 903 c 0
 177.833007812 907.666992188 206.333007812 912.666992188 233 918 c 0
 259.666992188 923.333007812 285.333007812 929.5 310 936.5 c 0
 334.666992188 943.5 359.666992188 951.333007812 385 960 c 0
 430 915 l 0
 441 826 l 0
 481 855.333007812 517 878.833007812 549 896.5 c 0
 581 914.166992188 610.666992188 927.666992188 638 937 c 0
 665.333007812 946.333007812 691.166992188 952.5 715.5 955.5 c 0
 739.833007812 958.5 764 960 788 960 c 0
 820 960 847.833007812 956 871.5 948 c 0
 895.166992188 940 915.333007812 930 932 918 c 0
 948.666992188 906 962.166992188 892.666992188 972.5 878 c 0
 982.833007812 863.333007812 990.666992188 849 996 835 c 0
 1000 824 l 0
 1040.66699219 853.333007812 1077.33300781 876.833007812 1110 894.5 c 0
 1142.66699219 912.166992188 1172.83300781 925.833007812 1200.5 935.5 c 0
 1228.16699219 945.166992188 1254.33300781 951.666992188 1279 955 c 0
 1303.66699219 958.333007812 1328.33300781 960 1353 960 c 0
 1385 960 1415.5 955.333007812 1444.5 946 c 0
 1473.5 936.666992188 1499.16699219 921.5 1521.5 900.5 c 0
 1543.83300781 879.5 1561.66699219 851.833007812 1575 817.5 c 0
 1588.33300781 783.166992188 1595 741 1595 691 c 0
 1595 144 l 0
 1595 134.666992188 1605.33300781 125.5 1626 116.5 c 0
 1646.66699219 107.5 1683.33300781 96.3330078125 1736 83 c 0
 1736 0 l 0
 1216 0 l 0
EndSplineSet
EndChar

StartChar: n
Encoding: 81 110 81
Width: 1210
VWidth: 1024
Flags: HW
LayerCount: 2
Fore
SplineSet
660 0 m 0
 660 83 l 0
 708 95.6669921875 741.666992188 106.666992188 761 116 c 0
 780.333007812 125.333007812 790 134.666992188 790 144 c 0
 790 573 l 0
 790 608.333007812 788.333007812 638 785 662 c 0
 781.666992188 686 776.166992188 705.166992188 768.5 719.5 c 0
 760.833007812 733.833007812 750.833007812 744.166992188 738.5 750.5 c 0
 726.166992188 756.833007812 710.666992188 760 692 760 c 0
 678 760 663.166992188 758.833007812 647.5 756.5 c 0
 631.833007812 754.166992188 614.5 749.833007812 595.5 743.5 c 0
 576.5 737.166992188 554.666992188 728 530 716 c 0
 505.333007812 704 477 688.333007812 445 669 c 0
 445 144 l 0
 445 134 455.833007812 123.666992188 477.5 113 c 0
 499.166992188 102.333007812 531.666992188 92.3330078125 575 83 c 0
 575 0 l 0
 45 0 l 0
 45 83 l 0
 89 94.3330078125 121.666992188 104.5 143 113.5 c 0
 164.333007812 122.5 175 132.666992188 175 144 c 0
 175 681 l 0
 175 707 174.5 727.666992188 173.5 743 c 0
 172.5 758.333007812 168.166992188 770.333007812 160.5 779 c 0
 152.833007812 787.666992188 140.166992188 794 122.5 798 c 0
 104.833007812 802 79 806 45 810 c 0
 45 890 l 0
 79.6669921875 893.333007812 112.166992188 897.166992188 142.5 901.5 c 0
 172.833007812 905.833007812 201.5 910.833007812 228.5 916.5 c 0
 255.5 922.166992188 281.833007812 928.5 307.5 935.5 c 0
 333.166992188 942.5 359 950.666992188 385 960 c 0
 430 915 l 0
 441 806 l 0
 483 835.333007812 522.333007812 859.833007812 559 879.5 c 0
 595.666992188 899.166992188 630.5 915 663.5 927 c 0
 696.5 939 727.5 947.5 756.5 952.5 c 0
 785.5 957.5 813 960 839 960 c 0
 867.666992188 960 895.333007812 955.333007812 922 946 c 0
 948.666992188 936.666992188 972.166992188 921.5 992.5 900.5 c 0
 1012.83300781 879.5 1029.16699219 851.833007812 1041.5 817.5 c 0
 1053.83300781 783.166992188 1060 741 1060 691 c 0
 1060 144 l 0
 1060 139.333007812 1061.83300781 134.833007812 1065.5 130.5 c 0
 1069.16699219 126.166992188 1075.83300781 121.666992188 1085.5 117 c 0
 1095.16699219 112.333007812 1108.5 107.166992188 1125.5 101.5 c 0
 1142.5 95.8330078125 1164 89.6669921875 1190 83 c 0
 1190 0 l 0
 660 0 l 0
EndSplineSet
EndChar

StartChar: o
Encoding: 82 111 82
Width: 1090
VWidth: 1024
Flags: HW
LayerCount: 2
Fore
SplineSet
1030 485 m 0
 1030 440.333007812 1023.83300781 396.666992188 1011.5 354 c 0
 999.166992188 311.333007812 982 271 960 233 c 0
 938 195 911.5 159.833007812 880.5 127.5 c 0
 849.5 95.1669921875 815.333007812 67.3330078125 778 44 c 0
 740.666992188 20.6669921875 700.666992188 2.5 658 -10.5 c 0
 615.333007812 -23.5 571.333007812 -30 526 -30 c 0
 455.333007812 -30 391.333007812 -18 334 6 c 0
 276.666992188 30 227.666992188 63 187 105 c 0
 146.333007812 147 115 197 93 255 c 0
 71 313 60 376 60 444 c 0
 60 488 65.5 531.333007812 76.5 574 c 0
 87.5 616.666992188 103.333007812 657.166992188 124 695.5 c 0
 144.666992188 733.833007812 170 769.166992188 200 801.5 c 0
 230 833.833007812 263.666992188 861.666992188 301 885 c 0
 338.333007812 908.333007812 379.166992188 926.666992188 423.5 940 c 0
 467.833007812 953.333007812 515 960 565 960 c 0
 635 960 698.666992188 948 756 924 c 0
 813.333007812 900 862.333007812 866.833007812 903 824.5 c 0
 943.666992188 782.166992188 975 732 997 674 c 0
 1019 616 1030 553 1030 485 c 0
745 435 m 0
 745 487.666992188 740.5 537.833007812 731.5 585.5 c 0
 722.5 633.166992188 709.333007812 675.166992188 692 711.5 c 0
 674.666992188 747.833007812 652.833007812 776.666992188 626.5 798 c 0
 600.166992188 819.333007812 570 830 536 830 c 0
 498 830 466.666992188 821 442 803 c 0
 417.333007812 785 397.833007812 760 383.5 728 c 0
 369.166992188 696 359.166992188 658.166992188 353.5 614.5 c 0
 347.833007812 570.833007812 345 523.666992188 345 473 c 0
 345 420.333007812 350.166992188 371.333007812 360.5 326 c 0
 370.833007812 280.666992188 385.166992188 241.166992188 403.5 207.5 c 0
 421.833007812 173.833007812 443.833007812 147.5 469.5 128.5 c 0
 495.166992188 109.5 523.333007812 100 554 100 c 0
 591.333007812 100 622.333007812 107.166992188 647 121.5 c 0
 671.666992188 135.833007812 691.166992188 157.166992188 705.5 185.5 c 0
 719.833007812 213.833007812 730 248.833007812 736 290.5 c 0
 742 332.166992188 745 380.333007812 745 435 c 0
EndSplineSet
EndChar

StartChar: p
Encoding: 83 112 83
Width: 1165
VWidth: 1024
Flags: HW
LayerCount: 2
Fore
SplineSet
1105 502 m 0
 1105 456.666992188 1098.83300781 412 1086.5 368 c 0
 1074.16699219 324 1057.83300781 282.333007812 1037.5 243 c 0
 1017.16699219 203.666992188 993.666992188 167.333007812 967 134 c 0
 940.333007812 100.666992188 912.5 71.8330078125 883.5 47.5 c 0
 854.5 23.1669921875 825.333007812 4.1669921875 796 -9.5 c 0
 766.666992188 -23.1669921875 739 -30 713 -30 c 0
 693.666992188 -30 674.666992188 -28.1669921875 656 -24.5 c 0
 637.333007812 -20.8330078125 617.5 -14.8330078125 596.5 -6.5 c 0
 575.5 1.8330078125 552.666992188 12.8330078125 528 26.5 c 0
 503.333007812 40.1669921875 475.666992188 57.3330078125 445 78 c 0
 445 -335 l 0
 445 -345.666992188 457.5 -356.333007812 482.5 -367 c 0
 507.5 -377.666992188 551.333007812 -387.666992188 614 -397 c 0
 614 -480 l 0
 45 -480 l 0
 45 -397 l 0
 89 -386.333007812 121.666992188 -376.166992188 143 -366.5 c 0
 164.333007812 -356.833007812 175 -346.333007812 175 -335 c 0
 175 681 l 0
 175 705.666992188 174.166992188 726 172.5 742 c 0
 170.833007812 758 165.833007812 770.833007812 157.5 780.5 c 0
 149.166992188 790.166992188 136.333007812 797.166992188 119 801.5 c 0
 101.666992188 805.833007812 77 808.666992188 45 810 c 0
 45 890 l 0
 87.6669921875 894.666992188 124.333007812 899.333007812 155 904 c 0
 185.666992188 908.666992188 213.5 913.5 238.5 918.5 c 0
 263.5 923.5 287.333007812 929.333007812 310 936 c 0
 332.666992188 942.666992188 357.666992188 950.666992188 385 960 c 0
 430 915 l 0
 439 817 l 0
 477 847 511.666992188 871.333007812 543 890 c 0
 574.333007812 908.666992188 602.833007812 923.166992188 628.5 933.5 c 0
 654.166992188 943.833007812 677.666992188 950.833007812 699 954.5 c 0
 720.333007812 958.166992188 740.666992188 960 760 960 c 0
 805.333007812 960 848.833007812 951.166992188 890.5 933.5 c 0
 932.166992188 915.833007812 968.833007812 888.5 1000.5 851.5 c 0
 1032.16699219 814.5 1057.5 767.166992188 1076.5 709.5 c 0
 1095.5 651.833007812 1105 582.666992188 1105 502 c 0
850 426 m 0
 850 492 843.333007812 547.166992188 830 591.5 c 0
 816.666992188 635.833007812 799.166992188 671.666992188 777.5 699 c 0
 755.833007812 726.333007812 731.5 745.833007812 704.5 757.5 c 0
 677.5 769.166992188 650.333007812 775 623 775 c 0
 611 775 600.5 774.5 591.5 773.5 c 0
 582.5 772.5 572 769.5 560 764.5 c 0
 548 759.5 533.166992188 752 515.5 742 c 0
 497.833007812 732 474.333007812 718 445 700 c 0
 445 233 l 0
 482.333007812 213 513.666992188 197.333007812 539 186 c 0
 564.333007812 174.666992188 586.5 166.333007812 605.5 161 c 0
 624.5 155.666992188 641.333007812 152.5 656 151.5 c 0
 670.666992188 150.5 685.666992188 150 701 150 c 0
 746.333007812 150.666992188 782.666992188 174.666992188 810 222 c 0
 837.333007812 269.333007812 850.666992188 337.333007812 850 426 c 0
EndSplineSet
EndChar

StartChar: q
Encoding: 84 113 84
Width: 1145
VWidth: 1024
Flags: HW
LayerCount: 2
Fore
SplineSet
565 -480 m 0
 565 -397 l 0
 627.666992188 -387.666992188 671.666992188 -377.833007812 697 -367.5 c 0
 722.333007812 -357.166992188 735 -346.333007812 735 -335 c 0
 735 128 l 0
 703 98 673.833007812 73 647.5 53 c 0
 621.166992188 33 595.333007812 16.8330078125 570 4.5 c 0
 544.666992188 -7.8330078125 518.833007812 -16.6669921875 492.5 -22 c 0
 466.166992188 -27.3330078125 437.333007812 -30 406 -30 c 0
 366.666992188 -30 326.5 -19.1669921875 285.5 2.5 c 0
 244.5 24.1669921875 207.333007812 55.3330078125 174 96 c 0
 140.666992188 136.666992188 113.333007812 186.333007812 92 245 c 0
 70.6669921875 303.666992188 60 370 60 444 c 0
 60 502.666992188 66.6669921875 554.5 80 599.5 c 0
 93.3330078125 644.5 110.5 684 131.5 718 c 0
 152.5 752 175.666992188 781 201 805 c 0
 226.333007812 829 250.666992188 849 274 865 c 0
 292.666992188 877.666992188 313.333007812 889.833007812 336 901.5 c 0
 358.666992188 913.166992188 382.166992188 923.333007812 406.5 932 c 0
 430.833007812 940.666992188 455.333007812 947.5 480 952.5 c 0
 504.666992188 957.5 528.333007812 960 551 960 c 0
 570.333007812 960 589.333007812 958.666992188 608 956 c 0
 626.666992188 953.333007812 645.666992188 947.833007812 665 939.5 c 0
 684.333007812 931.166992188 704.666992188 919.5 726 904.5 c 0
 747.333007812 889.5 770.666992188 869.666992188 796 845 c 0
 814 853.666992188 833.333007812 863.333007812 854 874 c 0
 874.666992188 884.666992188 894.5 895.333007812 913.5 906 c 0
 932.5 916.666992188 949.333007812 926.833007812 964 936.5 c 0
 978.666992188 946.166992188 989 954 995 960 c 0
 1036 920 l 0
 1030 898 1024.66699219 874.333007812 1020 849 c 0
 1016 827.666992188 1012.5 802.833007812 1009.5 774.5 c 0
 1006.5 746.166992188 1005 717 1005 687 c 0
 1005 -335 l 0
 1005 -340.333007812 1007 -345.666992188 1011 -351 c 0
 1015 -356.333007812 1021.83300781 -361.666992188 1031.5 -367 c 0
 1041.16699219 -372.333007812 1054.33300781 -377.5 1071 -382.5 c 0
 1087.66699219 -387.5 1108.66699219 -392.333007812 1134 -397 c 0
 1134 -480 l 0
 565 -480 l 0
537 180 m 0
 553.666992188 180 569.666992188 181.5 585 184.5 c 0
 600.333007812 187.5 615.833007812 192.5 631.5 199.5 c 0
 647.166992188 206.5 663.333007812 216 680 228 c 0
 696.666992188 240 715 254.666992188 735 272 c 0
 735 690 l 0
 723.666992188 709.333007812 709.833007812 727 693.5 743 c 0
 677.166992188 759 659.666992188 772.666992188 641 784 c 0
 622.333007812 795.333007812 603.333007812 804.166992188 584 810.5 c 0
 564.666992188 816.833007812 546.666992188 820 530 820 c 0
 500 820 472.833007812 814.5 448.5 803.5 c 0
 424.166992188 792.5 403.166992188 774.666992188 385.5 750 c 0
 367.833007812 725.333007812 354.166992188 693.666992188 344.5 655 c 0
 334.833007812 616.333007812 330 569.666992188 330 515 c 0
 330 458.333007812 335.666992188 409 347 367 c 0
 358.333007812 325 373.5 290.166992188 392.5 262.5 c 0
 411.5 234.833007812 433.5 214.166992188 458.5 200.5 c 0
 483.5 186.833007812 509.666992188 180 537 180 c 0
EndSplineSet
EndChar

StartChar: r
Encoding: 85 114 85
Width: 941
VWidth: 1024
Flags: HW
LayerCount: 2
Fore
SplineSet
910 913 m 0
 914 910.333007812 915.833007812 901.166992188 915.5 885.5 c 0
 915.166992188 869.833007812 913.166992188 850.333007812 909.5 827 c 0
 905.833007812 803.666992188 901 778.166992188 895 750.5 c 0
 889 722.833007812 882.666992188 695.833007812 876 669.5 c 0
 869.333007812 643.166992188 862.5 619 855.5 597 c 0
 848.5 575 842.333007812 558 837 546 c 0
 754 546 l 0
 752.666992188 572.666992188 749.333007812 598.833007812 744 624.5 c 0
 738.666992188 650.166992188 731.5 673 722.5 693 c 0
 713.5 713 702.333007812 729.166992188 689 741.5 c 0
 675.666992188 753.833007812 660.333007812 760 643 760 c 0
 631 760 617.833007812 758.833007812 603.5 756.5 c 0
 589.166992188 754.166992188 573.666992188 747.666992188 557 737 c 0
 540.333007812 726.333007812 522.666992188 710 504 688 c 0
 485.333007812 666 465.666992188 635.333007812 445 596 c 0
 445 144 l 0
 445 134 459.166992188 123.666992188 487.5 113 c 0
 515.833007812 102.333007812 561.333007812 92.3330078125 624 83 c 0
 624 0 l 0
 45 0 l 0
 45 83 l 0
 131.666992188 103 175 123.333007812 175 144 c 0
 175 656 l 0
 175 678 174.333007812 696.5 173 711.5 c 0
 171.666992188 726.5 170 738.666992188 168 748 c 0
 166 757.333007812 163.5 764.666992188 160.5 770 c 0
 157.5 775.333007812 154.666992188 779.666992188 152 783 c 0
 147.333007812 787.666992188 142.666992188 791.5 138 794.5 c 0
 133.333007812 797.5 127.166992188 800 119.5 802 c 0
 111.833007812 804 102.166992188 805.5 90.5 806.5 c 0
 78.8330078125 807.5 63.6669921875 808.666992188 45 810 c 0
 45 890 l 0
 86.3330078125 895.333007812 121.5 900.333007812 150.5 905 c 0
 179.5 909.666992188 206 914.5 230 919.5 c 0
 254 924.5 278 930.166992188 302 936.5 c 0
 326 942.833007812 353.666992188 950.666992188 385 960 c 0
 430 915 l 0
 443 798 l 0
 461 820 481.5 840.833007812 504.5 860.5 c 0
 527.5 880.166992188 552.166992188 897.333007812 578.5 912 c 0
 604.833007812 926.666992188 632.333007812 938.333007812 661 947 c 0
 689.666992188 955.666992188 718.333007812 960 747 960 c 0
 773.666992188 960 801.333007812 955.666992188 830 947 c 0
 858.666992188 938.333007812 885.333007812 927 910 913 c 0
EndSplineSet
EndChar

StartChar: s
Encoding: 86 115 86
Width: 880
VWidth: 1024
Flags: HW
LayerCount: 2
Fore
SplineSet
809 283 m 0
 809 235.666992188 801.666992188 195.166992188 787 161.5 c 0
 772.333007812 127.833007812 753.333007812 99.3330078125 730 76 c 0
 706.666992188 52.6669921875 680 34 650 20 c 0
 620 6 589.666992188 -4.6669921875 559 -12 c 0
 528.333007812 -19.3330078125 498.666992188 -24.1669921875 470 -26.5 c 0
 441.333007812 -28.8330078125 416.333007812 -30 395 -30 c 0
 371.666992188 -30 346.666992188 -28.5 320 -25.5 c 0
 293.333007812 -22.5 266.166992188 -18 238.5 -12 c 0
 210.833007812 -6 183.833007812 1.6669921875 157.5 11 c 0
 131.166992188 20.3330078125 107 31 85 43 c 0
 80.3330078125 45 76.8330078125 57.1669921875 74.5 79.5 c 0
 72.1669921875 101.833007812 71 128.666992188 71 160 c 0
 71 191.333007812 72.6669921875 224.5 76 259.5 c 0
 79.3330078125 294.5 84.6669921875 325.666992188 92 353 c 0
 185 342 l 0
 193.666992188 304 206 270 222 240 c 0
 238 210 256.5 184.666992188 277.5 164 c 0
 298.5 143.333007812 321.5 127.5 346.5 116.5 c 0
 371.5 105.5 397.666992188 100 425 100 c 0
 473 100 507.333007812 106.833007812 528 120.5 c 0
 548.666992188 134.166992188 559 159.666992188 559 197 c 0
 559 223.666992188 552.333007812 247.833007812 539 269.5 c 0
 525.666992188 291.166992188 508 311.166992188 486 329.5 c 0
 464 347.833007812 438.666992188 365 410 381 c 0
 381.333007812 397 351.666992188 413 321 429 c 0
 293 443 265 458.666992188 237 476 c 0
 209 493.333007812 183.5 512.5 160.5 533.5 c 0
 137.5 554.5 118.833007812 577.833007812 104.5 603.5 c 0
 90.1669921875 629.166992188 83 658 83 690 c 0
 83 731.333007812 93.6669921875 768.666992188 115 802 c 0
 136.333007812 835.333007812 164.666992188 863.666992188 200 887 c 0
 235.333007812 910.333007812 275.5 928.333007812 320.5 941 c 0
 365.5 953.666992188 412 960 460 960 c 0
 490.666992188 960 521.333007812 958.166992188 552 954.5 c 0
 582.666992188 950.833007812 611.666992188 945.666992188 639 939 c 0
 666.333007812 932.333007812 691.5 924.333007812 714.5 915 c 0
 737.5 905.666992188 757 895 773 883 c 0
 777 879.666992188 778 867.666992188 776 847 c 0
 774 826.333007812 769.833007812 803 763.5 777 c 0
 757.166992188 751 749.5 725.333007812 740.5 700 c 0
 731.5 674.666992188 722.333007812 655.666992188 713 643 c 0
 634 651 l 0
 622.666992188 713.666992188 601.833007812 762.5 571.5 797.5 c 0
 541.166992188 832.5 502 850 454 850 c 0
 414.666992188 850 384.666992188 842 364 826 c 0
 343.333007812 810 333 788 333 760 c 0
 333 738.666992188 338 719.833007812 348 703.5 c 0
 358 687.166992188 372.666992188 671.666992188 392 657 c 0
 411.333007812 642.333007812 435.333007812 627.333007812 464 612 c 0
 492.666992188 596.666992188 526 579 564 559 c 0
 592.666992188 544.333007812 621.666992188 528.666992188 651 512 c 0
 680.333007812 495.333007812 706.666992188 476.166992188 730 454.5 c 0
 753.333007812 432.833007812 772.333007812 408.166992188 787 380.5 c 0
 801.666992188 352.833007812 809 320.333007812 809 283 c 0
EndSplineSet
EndChar

StartChar: t
Encoding: 87 116 87
Width: 775
VWidth: 1024
Flags: HW
LayerCount: 2
Fore
SplineSet
756 167 m 0
 660 98.3330078125 581 48.3330078125 519 17 c 0
 457 -14.3330078125 408.333007812 -30 373 -30 c 0
 342.333007812 -30 313.5 -24.1669921875 286.5 -12.5 c 0
 259.5 -0.8330078125 235.833007812 16.8330078125 215.5 40.5 c 0
 195.166992188 64.1669921875 179.166992188 93.5 167.5 128.5 c 0
 155.833007812 163.5 150 204.333007812 150 251 c 0
 150 795 l 0
 31 795 l 0
 0 833 l 0
 78 930 l 0
 150 930 l 0
 150 1126 l 0
 379 1290 l 0
 420 1255 l 0
 420 930 l 0
 717 930 l 0
 756 891 l 0
 750 879 742.5 866.5 733.5 853.5 c 0
 724.5 840.5 715.333007812 828 706 816 c 0
 696.666992188 804 687.5 793 678.5 783 c 0
 669.5 773 661.666992188 765.333007812 655 760 c 0
 647 764 636.833007812 768 624.5 772 c 0
 612.166992188 776 598.666992188 779.833007812 584 783.5 c 0
 569.333007812 787.166992188 554 790 538 792 c 0
 522 794 506.666992188 795 492 795 c 0
 420 795 l 0
 420 347 l 0
 420 314.333007812 422.166992188 286.833007812 426.5 264.5 c 0
 430.833007812 242.166992188 436.5 224 443.5 210 c 0
 450.5 196 458.666992188 185.833007812 468 179.5 c 0
 477.333007812 173.166992188 487 170 497 170 c 0
 509 170 521.333007812 171.166992188 534 173.5 c 0
 546.666992188 175.833007812 561 179.833007812 577 185.5 c 0
 593 191.166992188 611.5 199 632.5 209 c 0
 653.5 219 678.333007812 232 707 248 c 0
 756 167 l 0
EndSplineSet
EndChar

StartChar: u
Encoding: 88 117 88
Width: 1175
VWidth: 1024
Flags: HW
LayerCount: 2
Fore
SplineSet
1169 122 m 0
 1144.33300781 106 1116 89 1084 71 c 0
 1052 53 1020.66699219 36.5 990 21.5 c 0
 959.333007812 6.5 932 -5.8330078125 908 -15.5 c 0
 884 -25.1669921875 868 -30 860 -30 c 0
 848 -30 836.166992188 -28.3330078125 824.5 -25 c 0
 812.833007812 -21.6669921875 801.833007812 -14.5 791.5 -3.5 c 0
 781.166992188 7.5 772 23.3330078125 764 44 c 0
 756 64.6669921875 749.666992188 92 745 126 c 0
 703.666992188 92 666.833007812 64.6669921875 634.5 44 c 0
 602.166992188 23.3330078125 572.666992188 7.5 546 -3.5 c 0
 519.333007812 -14.5 495 -21.6669921875 473 -25 c 0
 451 -28.3330078125 429.333007812 -30 408 -30 c 0
 376.666992188 -30 345.666992188 -25.6669921875 315 -17 c 0
 284.333007812 -8.3330078125 256.833007812 7.5 232.5 30.5 c 0
 208.166992188 53.5 188.333007812 85 173 125 c 0
 157.666992188 165 150 216.333007812 150 279 c 0
 150 681 l 0
 150 713 149.5 737.833007812 148.5 755.5 c 0
 147.5 773.166992188 143.5 786.5 136.5 795.5 c 0
 129.5 804.5 117.833007812 810.666992188 101.5 814 c 0
 85.1669921875 817.333007812 61.6669921875 820.666992188 31 824 c 0
 31 904 l 0
 67.6669921875 906.666992188 101 909.5 131 912.5 c 0
 161 915.5 189.666992188 919 217 923 c 0
 244.333007812 927 271.333007812 932 298 938 c 0
 324.666992188 944 352.666992188 951.333007812 382 960 c 0
 420 911 l 0
 420 344 l 0
 420 304.666992188 422.333007812 273 427 249 c 0
 431.666992188 225 438.333007812 206.333007812 447 193 c 0
 455.666992188 179.666992188 466.333007812 170.833007812 479 166.5 c 0
 491.666992188 162.166992188 506.333007812 160 523 160 c 0
 534.333007812 160 547.333007812 161.333007812 562 164 c 0
 576.666992188 166.666992188 593 171.666992188 611 179 c 0
 629 186.333007812 649.166992188 196.666992188 671.5 210 c 0
 693.833007812 223.333007812 718.333007812 240.666992188 745 262 c 0
 745 681 l 0
 745 711 744 735 742 753 c 0
 740 771 734.666992188 785 726 795 c 0
 717.333007812 805 704.333007812 812 687 816 c 0
 669.666992188 820 645.666992188 822.666992188 615 824 c 0
 615 904 l 0
 688.333007812 910 753.666992188 917.833007812 811 927.5 c 0
 868.333007812 937.166992188 923 948 975 960 c 0
 1015 911 l 0
 1015 294 l 0
 1015 273.333007812 1015.33300781 256.666992188 1016 244 c 0
 1016.66699219 231.333007812 1017.83300781 221 1019.5 213 c 0
 1021.16699219 205 1023.5 199 1026.5 195 c 0
 1029.5 191 1033.33300781 187.333007812 1038 184 c 0
 1042 181.333007812 1046.33300781 179.666992188 1051 179 c 0
 1055.66699219 178.333007812 1061.66699219 178.833007812 1069 180.5 c 0
 1076.33300781 182.166992188 1085.5 185.166992188 1096.5 189.5 c 0
 1107.5 193.833007812 1121.66699219 199.666992188 1139 207 c 0
 1169 122 l 0
EndSplineSet
EndChar

StartChar: v
Encoding: 89 118 89
Width: 1050
VWidth: 1024
Flags: HW
LayerCount: 2
Fore
SplineSet
1039 847 m 0
 1019 842.333007812 1003.33300781 838 992 834 c 0
 980.666992188 830 971.666992188 825.5 965 820.5 c 0
 958.333007812 815.5 953.333007812 809.666992188 950 803 c 0
 946.666992188 796.333007812 943 788.333007812 939 779 c 0
 656 89 l 0
 650 74.3330078125 640.5 60.6669921875 627.5 48 c 0
 614.5 35.3330078125 599.5 24 582.5 14 c 0
 565.5 4 547.333007812 -4.6669921875 528 -12 c 0
 508.666992188 -19.3330078125 489.666992188 -25.3330078125 471 -30 c 0
 111 779 l 0
 107 787.666992188 102.5 795.5 97.5 802.5 c 0
 92.5 809.5 86.3330078125 815.666992188 79 821 c 0
 71.6669921875 826.333007812 62.5 831 51.5 835 c 0
 40.5 839 26.6669921875 843 10 847 c 0
 10 930 l 0
 486 930 l 0
 486 847 l 0
 460 843.666992188 439.666992188 840.166992188 425 836.5 c 0
 410.333007812 832.833007812 399.833007812 828.5 393.5 823.5 c 0
 387.166992188 818.5 384.333007812 812.5 385 805.5 c 0
 385.666992188 798.5 388.333007812 789.666992188 393 779 c 0
 597 322 l 0
 790 779 l 0
 794 789 796.666992188 797.5 798 804.5 c 0
 799.333007812 811.5 797.5 817.5 792.5 822.5 c 0
 787.5 827.5 779 831.833007812 767 835.5 c 0
 755 839.166992188 738 843 716 847 c 0
 716 930 l 0
 1039 930 l 0
 1039 847 l 0
EndSplineSet
EndChar

StartChar: w
Encoding: 90 119 90
Width: 1476
VWidth: 1024
Flags: HW
LayerCount: 2
Fore
SplineSet
1465 847 m 0
 1447 842.333007812 1432.16699219 837.833007812 1420.5 833.5 c 0
 1408.83300781 829.166992188 1399.33300781 824.833007812 1392 820.5 c 0
 1384.66699219 816.166992188 1379 811.166992188 1375 805.5 c 0
 1371 799.833007812 1367.66699219 793 1365 785 c 0
 1144 59 l 0
 1140 44.3330078125 1131.66699219 31.8330078125 1119 21.5 c 0
 1106.33300781 11.1669921875 1092.33300781 2.5 1077 -4.5 c 0
 1061.66699219 -11.5 1046.66699219 -17 1032 -21 c 0
 1017.33300781 -25 1005.66699219 -28 997 -30 c 0
 736 525 l 0
 534 59 l 0
 528.666992188 43.6669921875 520 30.8330078125 508 20.5 c 0
 496 10.1669921875 482.666992188 1.5 468 -5.5 c 0
 453.333007812 -12.5 439 -17.8330078125 425 -21.5 c 0
 411 -25.1669921875 399.666992188 -28 391 -30 c 0
 119 785 l 0
 115 797 104.166992188 808.5 86.5 819.5 c 0
 68.8330078125 830.5 43.3330078125 839.666992188 10 847 c 0
 10 930 l 0
 486 930 l 0
 486 847 l 0
 458.666992188 843.666992188 437.333007812 839.833007812 422 835.5 c 0
 406.666992188 831.166992188 395.666992188 826.166992188 389 820.5 c 0
 382.333007812 814.833007812 378.833007812 809 378.5 803 c 0
 378.166992188 797 379 791 381 785 c 0
 518 367 l 0
 755 930 l 0
 834 930 l 0
 1083 367 l 0
 1217 785 l 0
 1219.66699219 792.333007812 1221.33300781 799 1222 805 c 0
 1222.66699219 811 1220.83300781 816.5 1216.5 821.5 c 0
 1212.16699219 826.5 1204 831 1192 835 c 0
 1180 839 1162.66699219 843 1140 847 c 0
 1140 930 l 0
 1465 930 l 0
 1465 847 l 0
EndSplineSet
EndChar

StartChar: x
Encoding: 91 120 91
Width: 1080
VWidth: 1024
Flags: HW
LayerCount: 2
Fore
SplineSet
544 0 m 0
 544 83 l 0
 560.666992188 84.3330078125 575.833007812 86 589.5 88 c 0
 603.166992188 90 613.5 93.8330078125 620.5 99.5 c 0
 627.5 105.166992188 630.333007812 113.166992188 629 123.5 c 0
 627.666992188 133.833007812 620.666992188 148 608 166 c 0
 477 348 l 0
 331 166 l 0
 317 148.666992188 309.833007812 134.833007812 309.5 124.5 c 0
 309.166992188 114.166992188 313 106.166992188 321 100.5 c 0
 329 94.8330078125 340 90.8330078125 354 88.5 c 0
 368 86.1669921875 383 84.3330078125 399 83 c 0
 399 0 l 0
 10 0 l 0
 10 83 l 0
 34 87 54.5 92 71.5 98 c 0
 88.5 104 103.166992188 110.833007812 115.5 118.5 c 0
 127.833007812 126.166992188 138.5 134.5 147.5 143.5 c 0
 156.5 152.5 165 162 173 172 c 0
 399 457 l 0
 181 762 l 0
 172.333007812 774 163.666992188 784.833007812 155 794.5 c 0
 146.333007812 804.166992188 136.166992188 812.5 124.5 819.5 c 0
 112.833007812 826.5 98.8330078125 832.333007812 82.5 837 c 0
 66.1669921875 841.666992188 45.6669921875 845 21 847 c 0
 21 930 l 0
 541 930 l 0
 541 847 l 0
 520.333007812 845 504.166992188 842.5 492.5 839.5 c 0
 480.833007812 836.5 473 832.166992188 469 826.5 c 0
 465 820.833007812 465.166992188 813 469.5 803 c 0
 473.833007812 793 481.666992188 780 493 764 c 0
 590 628 l 0
 698 764 l 0
 710.666992188 780 719.333007812 792.833007812 724 802.5 c 0
 728.666992188 812.166992188 729.166992188 820 725.5 826 c 0
 721.833007812 832 714.166992188 836.5 702.5 839.5 c 0
 690.833007812 842.5 674.666992188 845 654 847 c 0
 654 930 l 0
 1035 930 l 0
 1035 847 l 0
 1007.66699219 845 985 841.666992188 967 837 c 0
 949 832.333007812 933.5 826.5 920.5 819.5 c 0
 907.5 812.5 896.333007812 804.166992188 887 794.5 c 0
 877.666992188 784.833007812 868.333007812 774 859 762 c 0
 667 520 l 0
 916 172 l 0
 923.333007812 162 931.166992188 152.333007812 939.5 143 c 0
 947.833007812 133.666992188 957.666992188 125 969 117 c 0
 980.333007812 109 993.833007812 102 1009.5 96 c 0
 1025.16699219 90 1044 85.6669921875 1066 83 c 0
 1066 0 l 0
 544 0 l 0
EndSplineSet
EndChar

StartChar: y
Encoding: 92 121 92
Width: 1050
VWidth: 1024
Flags: HW
LayerCount: 2
Fore
SplineSet
1039 847 m 0
 1019 842.333007812 1002.66699219 838 990 834 c 0
 977.333007812 830 967.166992188 825.5 959.5 820.5 c 0
 951.833007812 815.5 945.833007812 809.833007812 941.5 803.5 c 0
 937.166992188 797.166992188 933 789 929 779 c 0
 595 -72 l 0
 566.333007812 -145.333007812 535.5 -208.333007812 502.5 -261 c 0
 469.5 -313.666992188 434.166992188 -357 396.5 -391 c 0
 358.833007812 -425 319.333007812 -450 278 -466 c 0
 236.666992188 -482 193 -490 147 -490 c 0
 121.666992188 -490 96.1669921875 -487.333007812 70.5 -482 c 0
 44.8330078125 -476.666992188 21.8330078125 -470.333007812 1.5 -463 c 0
 -18.8330078125 -455.666992188 -35.3330078125 -447.666992188 -48 -439 c 0
 -60.6669921875 -430.333007812 -67 -423 -67 -417 c 0
 -67 -410.333007812 -60.8330078125 -397.666992188 -48.5 -379 c 0
 -36.1669921875 -360.333007812 -21.5 -340.5 -4.5 -319.5 c 0
 12.5 -298.5 29.8330078125 -278.666992188 47.5 -260 c 0
 65.1669921875 -241.333007812 79.3330078125 -228.666992188 90 -222 c 0
 124 -245.333007812 158 -259.833007812 192 -265.5 c 0
 226 -271.166992188 255.333007812 -269.333007812 280 -260 c 0
 292 -256 304.5 -250.333007812 317.5 -243 c 0
 330.5 -235.666992188 343.333007812 -225.666992188 356 -213 c 0
 368.666992188 -200.333007812 381.166992188 -184.166992188 393.5 -164.5 c 0
 405.833007812 -144.833007812 418 -120.666992188 430 -92 c 0
 459 -23 l 0
 121 779 l 0
 113.666992188 797 101.666992188 811 85 821 c 0
 68.3330078125 831 43.3330078125 839.666992188 10 847 c 0
 10 930 l 0
 486 930 l 0
 486 847 l 0
 460 843.666992188 440.333007812 840.166992188 427 836.5 c 0
 413.666992188 832.833007812 404.5 828.5 399.5 823.5 c 0
 394.5 818.5 392.666992188 812.5 394 805.5 c 0
 395.333007812 798.5 398.333007812 789.666992188 403 779 c 0
 596 322 l 0
 780 779 l 0
 784 789 787 797.5 789 804.5 c 0
 791 811.5 790.333007812 817.5 787 822.5 c 0
 783.666992188 827.5 776.333007812 831.833007812 765 835.5 c 0
 753.666992188 839.166992188 737 843 715 847 c 0
 715 930 l 0
 1039 930 l 0
 1039 847 l 0
EndSplineSet
EndChar

StartChar: z
Encoding: 93 122 93
Width: 977
VWidth: 1024
Flags: HW
LayerCount: 2
Fore
SplineSet
899 358 m 0
 899 336.666992188 898.666992188 308.333007812 898 273 c 0
 897.333007812 237.666992188 896.5 201.666992188 895.5 165 c 0
 894.5 128.333007812 893.333007812 94.6669921875 892 64 c 0
 890.666992188 33.3330078125 889 12 887 0 c 0
 82 0 l 0
 56 45 l 0
 576 800 l 0
 345 800 l 0
 313 800 283.5 780.833007812 256.5 742.5 c 0
 229.5 704.166992188 206.666992188 646.666992188 188 570 c 0
 109 592 l 0
 137 946 l 0
 151.666992188 942 165 938.833007812 177 936.5 c 0
 189 934.166992188 201.5 932.5 214.5 931.5 c 0
 227.5 930.5 241.666992188 930 257 930 c 0
 895 930 l 0
 917 887 l 0
 395 130 l 0
 712 130 l 0
 725.333007812 130 736.666992188 135.833007812 746 147.5 c 0
 755.333007812 159.166992188 764 175.833007812 772 197.5 c 0
 780 219.166992188 787.833007812 245.166992188 795.5 275.5 c 0
 803.166992188 305.833007812 812 340 822 378 c 0
 899 358 l 0
EndSplineSet
EndChar

StartChar: braceleft
Encoding: 94 123 94
Width: 727
VWidth: 1024
Flags: HW
LayerCount: 2
Fore
SplineSet
707 1513 m 0
 655 1480.33300781 613 1443 581 1401 c 0
 549 1359 533 1316 533 1272 c 0
 533 1238 535.166992188 1207.16699219 539.5 1179.5 c 0
 543.833007812 1151.83300781 548.5 1124.5 553.5 1097.5 c 0
 558.5 1070.5 563.166992188 1043.16699219 567.5 1015.5 c 0
 571.833007812 987.833007812 574 957 574 923 c 0
 574 895 568.833007812 867.5 558.5 840.5 c 0
 548.166992188 813.5 534 788.166992188 516 764.5 c 0
 498 740.833007812 476.833007812 719.333007812 452.5 700 c 0
 428.166992188 680.666992188 402 665 374 653 c 0
 440.666992188 641 490.666992188 611.833007812 524 565.5 c 0
 557.333007812 519.166992188 574 459 574 385 c 0
 574 349.666992188 571.833007812 316.333007812 567.5 285 c 0
 563.166992188 253.666992188 558.5 223.333007812 553.5 194 c 0
 548.5 164.666992188 543.833007812 135.833007812 539.5 107.5 c 0
 535.166992188 79.1669921875 533 51 533 23 c 0
 533 -1 535 -23.3330078125 539 -44 c 0
 543 -64.6669921875 550.833007812 -84.3330078125 562.5 -103 c 0
 574.166992188 -121.666992188 590.666992188 -140 612 -158 c 0
 633.333007812 -176 661.666992188 -194.666992188 697 -214 c 0
 654 -315 l 0
 590.666992188 -292.333007812 533.833007812 -269.5 483.5 -246.5 c 0
 433.166992188 -223.5 390.5 -198 355.5 -170 c 0
 320.5 -142 293.666992188 -110 275 -74 c 0
 256.333007812 -38 247 4 247 52 c 0
 247 86 249.166992188 117.666992188 253.5 147 c 0
 257.833007812 176.333007812 262.5 205.166992188 267.5 233.5 c 0
 272.5 261.833007812 277.166992188 291.166992188 281.5 321.5 c 0
 285.833007812 351.833007812 288 385.333007812 288 422 c 0
 288 476 277 513.5 255 534.5 c 0
 233 555.5 202 566 162 566 c 0
 141 566 l 0
 137 566 133.333007812 565.833007812 130 565.5 c 0
 126.666992188 565.166992188 122.833007812 564.5 118.5 563.5 c 0
 114.166992188 562.5 107 561.333007812 97 560 c 0
 80 653 l 0
 153.333007812 673.666992188 206.333007812 701.333007812 239 736 c 0
 271.666992188 770.666992188 288 813 288 863 c 0
 288 898.333007812 285.833007812 929.833007812 281.5 957.5 c 0
 277.166992188 985.166992188 272.5 1012 267.5 1038 c 0
 262.5 1064 257.833007812 1091 253.5 1119 c 0
 249.166992188 1147 247 1179 247 1215 c 0
 247 1259.66699219 257.833007812 1300.66699219 279.5 1338 c 0
 301.166992188 1375.33300781 330.666992188 1409.66699219 368 1441 c 0
 405.333007812 1472.33300781 449.166992188 1501 499.5 1527 c 0
 549.833007812 1553 603.666992188 1577.33300781 661 1600 c 0
 707 1513 l 0
EndSplineSet
EndChar

StartChar: bar
Encoding: 95 124 95
Width: 470
VWidth: 1024
Flags: HW
LayerCount: 2
Fore
SplineSet
340 -343 m 0
 334 -348.333007812 325.166992188 -354 313.5 -360 c 0
 301.833007812 -366 289.333007812 -371.833007812 276 -377.5 c 0
 262.666992188 -383.166992188 249.5 -388.5 236.5 -393.5 c 0
 223.5 -398.5 213 -402.333007812 205 -405 c 0
 160 -372 l 0
 160 1611 l 0
 169.333007812 1616.33300781 179.666992188 1622 191 1628 c 0
 202.333007812 1634 214 1639.66699219 226 1645 c 0
 238 1650.33300781 249.833007812 1655.16699219 261.5 1659.5 c 0
 273.166992188 1663.83300781 284 1667.33300781 294 1670 c 0
 340 1638 l 0
 340 -343 l 0
EndSplineSet
EndChar

StartChar: braceright
Encoding: 96 125 96
Width: 727
VWidth: 1024
Flags: HW
LayerCount: 2
Fore
SplineSet
647 631 m 0
 573.666992188 610.333007812 520.666992188 582.666992188 488 548 c 0
 455.333007812 513.333007812 439 471 439 421 c 0
 439 385.666992188 441.166992188 354.166992188 445.5 326.5 c 0
 449.833007812 298.833007812 454.5 272 459.5 246 c 0
 464.5 220 469.166992188 193 473.5 165 c 0
 477.833007812 137 480 105 480 69 c 0
 480 23.6669921875 469.166992188 -17.5 447.5 -54.5 c 0
 425.833007812 -91.5 396.333007812 -125.666992188 359 -157 c 0
 321.666992188 -188.333007812 277.833007812 -217 227.5 -243 c 0
 177.166992188 -269 123.333007812 -293.333007812 66 -316 c 0
 20 -229 l 0
 72 -196.333007812 114 -159 146 -117 c 0
 178 -75 194 -32 194 12 c 0
 194 46 191.833007812 76.8330078125 187.5 104.5 c 0
 183.166992188 132.166992188 178.5 159.5 173.5 186.5 c 0
 168.5 213.5 163.833007812 240.833007812 159.5 268.5 c 0
 155.166992188 296.166992188 153 327 153 361 c 0
 153 389 158.166992188 416.5 168.5 443.5 c 0
 178.833007812 470.5 193 495.833007812 211 519.5 c 0
 229 543.166992188 250.166992188 564.666992188 274.5 584 c 0
 298.833007812 603.333007812 325 619 353 631 c 0
 286.333007812 643 236.333007812 672.166992188 203 718.5 c 0
 169.666992188 764.833007812 153 825 153 899 c 0
 153 933.666992188 155.166992188 966.833007812 159.5 998.5 c 0
 163.833007812 1030.16699219 168.5 1060.66699219 173.5 1090 c 0
 178.5 1119.33300781 183.166992188 1148.16699219 187.5 1176.5 c 0
 191.833007812 1204.83300781 194 1233 194 1261 c 0
 194 1285 192 1307.33300781 188 1328 c 0
 184 1348.66699219 176.166992188 1368.33300781 164.5 1387 c 0
 152.833007812 1405.66699219 136.333007812 1424 115 1442 c 0
 93.6669921875 1460 65.3330078125 1478.66699219 30 1498 c 0
 73 1599 l 0
 136.333007812 1576.33300781 193.166992188 1553.5 243.5 1530.5 c 0
 293.833007812 1507.5 336.5 1482 371.5 1454 c 0
 406.5 1426 433.333007812 1394 452 1358 c 0
 470.666992188 1322 480 1280 480 1232 c 0
 480 1198 477.833007812 1166.33300781 473.5 1137 c 0
 469.166992188 1107.66699219 464.5 1078.83300781 459.5 1050.5 c 0
 454.5 1022.16699219 449.833007812 992.833007812 445.5 962.5 c 0
 441.166992188 932.166992188 439 898.666992188 439 862 c 0
 439 808 450 770.5 472 749.5 c 0
 494 728.5 525 718 565 718 c 0
 585 718 l 0
 589.666992188 718 593.666992188 718.166992188 597 718.5 c 0
 600.333007812 718.833007812 604.166992188 719.5 608.5 720.5 c 0
 612.833007812 721.5 620 722.666992188 630 724 c 0
 647 631 l 0
EndSplineSet
EndChar

StartChar: asciitilde
Encoding: 97 126 97
Width: 999
VWidth: 1024
Flags: HW
LayerCount: 2
Fore
SplineSet
950 774 m 0
 936 741.333007812 918.333007812 707.5 897 672.5 c 0
 875.666992188 637.5 851.833007812 605.5 825.5 576.5 c 0
 799.166992188 547.5 770.833007812 523.666992188 740.5 505 c 0
 710.166992188 486.333007812 679 477 647 477 c 0
 619 477 589.333007812 485.333007812 558 502 c 0
 526.666992188 518.666992188 494.833007812 537 462.5 557 c 0
 430.166992188 577 398.166992188 595.333007812 366.5 612 c 0
 334.833007812 628.666992188 304.666992188 637 276 637 c 0
 243.333007812 637 213.166992188 624 185.5 598 c 0
 157.833007812 572 130 531 102 475 c 0
 49 502 l 0
 63 534.666992188 80.8330078125 568.5 102.5 603.5 c 0
 124.166992188 638.5 148.166992188 670.5 174.5 699.5 c 0
 200.833007812 728.5 229 752.333007812 259 771 c 0
 289 789.666992188 320 799 352 799 c 0
 382.666992188 799 414.166992188 790.666992188 446.5 774 c 0
 478.833007812 757.333007812 510.833007812 739 542.5 719 c 0
 574.166992188 699 605.166992188 680.666992188 635.5 664 c 0
 665.833007812 647.333007812 694.333007812 639 721 639 c 0
 753 639 783.333007812 652 812 678 c 0
 840.666992188 704 869 744.333007812 897 799 c 0
 950 774 l 0
EndSplineSet
EndChar

StartChar: inherent
Encoding: 98 -1 98
Width: 28
Flags: HW
LayerCount: 2
Fore
SplineSet
-248 1645 m 1
 -197.333333333 1623 -152.5 1571 -113.5 1489 c 128
 -74.5 1407 -55 1325 -55 1243 c 256
 -55 1161 -73.6666666667 1096.33333333 -111 1049 c 0
 -155 994.333333333 -220.333333333 967 -307 967 c 2
 -594 967 l 1
 -594 1190 l 1
 -397 1190 l 2
 -333 1190 -285.333333333 1205.66666667 -254 1237 c 128
 -222.666666667 1268.33333333 -207 1308 -207 1356 c 256
 -207 1404 -220.666666667 1448.66666667 -248 1490 c 128
 -275.333333333 1531.33333333 -315.666666667 1563 -369 1585 c 1
 -329.666666667 1600.33333333 -296.666666667 1615.33333333 -270 1630 c 0
 -267.333333333 1632 -260 1637 -248 1645 c 1
-4 -2 m 1
 -2 -2 l 1
 -4 -2 l 1
-4 -2 m 1
 -2 -2 l 1
 -4 -2 l 1
EndSplineSet
EndChar

StartChar: makewide
Encoding: 99 -1 99
Width: 792
Flags: HW
LayerCount: 2
Fore
SplineSet
504 963 m 1
 561.333333333 917.666666667 606 851.666666667 638 765 c 128
 670 678.333333333 686 584.333333333 686 483 c 0
 686 342.333333333 652.666666667 227.666666667 586 139 c 0
 508 33.6666666667 396.666666667 -18.6666666667 252 -18 c 0
 140 -18 50.1666666667 23.8333333333 -17.5 107.5 c 128
 -85.1666666667 191.166666667 -126.333333333 296.666666667 -141 424 c 1
 -102 428 l 1
 -82.6666666667 387.333333333 -62.3333333333 356.666666667 -41 336 c 0
 28.3333333333 272 130.666666667 240 266 240 c 0
 353.333333333 240 424 270 478 330 c 128
 532 390 559 461.666666667 559 545 c 0
 559 641.666666667 524.333333333 726.333333333 455 799 c 0
 373 885 254.666666667 940.333333333 100 965 c 1
 100 1188 l 1
 500 1188 l 1
 504 963 l 1
EndSplineSet
EndChar

StartChar: shortrr
Encoding: 100 -1 100
Width: 1286
Flags: HW
LayerCount: 2
Fore
SplineSet
1227 963 m 1
 412 963 l 2
 349.333333333 963 299.833333333 945.833333333 263.5 911.5 c 128
 227.166666667 877.166666667 209 838.333333333 209 795 c 0
 209 763.666666667 219.166666667 737.666666667 239.5 717 c 128
 259.833333333 696.333333333 292 686 336 686 c 2
 711 686 l 1
 711 453 l 1
 358 453 l 2
 308.666666667 453 269.833333333 439.666666667 241.5 413 c 128
 213.166666667 386.333333333 199 355 199 319 c 0
 199 246.333333333 238.333333333 210.333333333 317 211 c 0
 357.666666667 211 389.333333333 200.833333333 412 180.5 c 128
 434.666666667 160.166666667 446 135.333333333 446 106 c 0
 446 78.6666666667 435.166666667 54.1666666667 413.5 32.5 c 128
 391.833333333 10.8333333333 361.333333333 0 322 0 c 0
 271.333333333 0 219.333333333 22.6666666667 166 68 c 0
 98 125.333333333 63.6666666667 195.666666667 63 279 c 0
 63 361 87 429 135 483 c 0
 169 522.333333333 212.666666667 552.333333333 266 573 c 1
 202 601.666666667 152.666666667 643 118 697 c 128
 83.3333333333 751 66 809.333333333 66 872 c 0
 66 958 95.3333333333 1030.66666667 154 1090 c 0
 220.666666667 1155.33333333 311.333333333 1188 426 1188 c 2
 1227 1188 l 1
 1227 963 l 1
EndSplineSet
EndChar

StartChar: anusvara
Encoding: 101 3202 101
Width: 1034
Flags: HW
LayerCount: 2
Fore
SplineSet
987 606 m 0
 987 402.666666667 940 243.666666667 846 129 c 1
 760 26.3333333333 654 -25 528 -25 c 0
 405.333333333 -25 300.333333333 24.3333333333 213 123 c 0
 116.333333333 233.666666667 68 380.333333333 68 563 c 0
 68 747 107.5 897.166666667 186.5 1013.5 c 128
 265.5 1129.83333333 376 1188 518 1188 c 0
 673.333333333 1188 792 1132.66666667 874 1022 c 0
 949.333333333 919.333333333 987 780.666666667 987 606 c 0
891 580 m 0
 891 672.666666667 856.833333333 757.166666667 788.5 833.5 c 128
 720.166666667 909.833333333 633.333333333 948 528 948 c 0
 420 948 333.333333333 911.5 268 838.5 c 128
 202.666666667 765.5 170 677.666666667 170 575 c 0
 170 464.333333333 209 375.666666667 287 309 c 0
 356.333333333 249 440.333333333 219 539 219 c 0
 635.666666667 219 716 248.333333333 780 307 c 0
 852.666666667 374.333333333 889.666666667 465.333333333 891 580 c 0
EndSplineSet
EndChar

StartChar: u0C83
Encoding: 102 3203 102
Width: 575
Flags: HW
LayerCount: 2
Fore
SplineSet
506 934 m 1
 506 848 486.166666667 783.166666667 446.5 739.5 c 128
 406.833333333 695.833333333 357 674 297 674 c 256
 237 674 185 695.666666667 141 739 c 0
 91.6666666667 788.333333333 67.3333333333 852.666666667 68 932 c 0
 68 1001.33333333 87 1060.33333333 125 1109 c 128
 163 1157.66666667 216.333333333 1182 285 1182 c 0
 357.666666667 1182 413.333333333 1158.83333333 452 1112.5 c 128
 490.666666667 1066.16666667 508.666666667 1006.66666667 506 934 c 1
510 244 m 1
 510 160.666666667 490.166666667 97.1666666667 450.5 53.5 c 128
 410.833333333 9.83333333333 361 -12 301 -12 c 256
 241 -12 189 9.66666666667 145 53 c 0
 95.6666666667 102.333333333 71.3333333333 166 72 244 c 0
 72 312 91 370.333333333 129 419 c 128
 167 467.666666667 220.333333333 492 289 492 c 0
 361.666666667 492 417.333333333 468.833333333 456 422.5 c 128
 494.666666667 376.166666667 512.666666667 316.666666667 510 244 c 1
440 930 m 0
 440 958.666666667 425.666666667 980.833333333 397 996.5 c 128
 368.333333333 1012.16666667 333.666666667 1020 293 1020 c 256
 252.333333333 1020 219.333333333 1012.83333333 194 998.5 c 128
 168.666666667 984.166666667 156 961.333333333 156 930 c 0
 156 901.333333333 169.666666667 879.166666667 197 863.5 c 128
 224.333333333 847.833333333 257.666666667 840 297 840 c 0
 335 840 368.666666667 847.833333333 398 863.5 c 128
 427.333333333 879.166666667 441.333333333 901.333333333 440 930 c 0
442 242 m 0
 442 272 427.666666667 294.833333333 399 310.5 c 128
 370.333333333 326.166666667 335.666666667 334 295 334 c 0
 255.666666667 334 222.666666667 326.166666667 196 310.5 c 128
 169.333333333 294.833333333 156 272 156 242 c 0
 156 220 164 201.333333333 180 186 c 0
 206 161.333333333 244.333333333 149.333333333 295 150 c 0
 334.333333333 150 368.333333333 157.833333333 397 173.5 c 128
 425.666666667 189.166666667 440.666666667 212 442 242 c 0
EndSplineSet
EndChar

StartChar: avowel
Encoding: 103 3205 103
Width: 1591
Flags: HW
LayerCount: 2
Fore
SplineSet
1524 696 m 0
 1524 470.666666667 1447.33333333 290.666666667 1294 156 c 0
 1157.33333333 34.6666666667 990.333333333 -26.3333333333 793 -27 c 256
 595 -27 428.333333333 35.3333333333 293 160 c 0
 143 296.666666667 68 485 68 725 c 0
 68 855 97.3333333333 969 156 1067 c 0
 222.666666667 1179 311.333333333 1235 422 1235 c 0
 484.666666667 1235 532 1210.83333333 564 1162.5 c 128
 596 1114.16666667 612 1055 612 985 c 0
 612 903 593 832.666666667 555 774 c 0
 511 707.333333333 454.333333333 674 385 674 c 0
 341 674 302.333333333 687.666666667 269 715 c 128
 235.666666667 742.333333333 209.333333333 781 190 831 c 1
 173.333333333 793 165.333333333 752.333333333 166 709 c 1
 178 549 247 423.333333333 373 332 c 0
 486.333333333 250 624 209 786 209 c 0
 958 209 1105 254.666666667 1227 346 c 0
 1362.33333333 448.666666667 1430 584 1430 752 c 1
 1421 825 l 1
 1339 717 l 1
 676 717 l 1
 676 864 l 1
 1004 864 l 1
 998.666666667 879.333333333 995.166666667 898.833333333 993.5 922.5 c 128
 991.833333333 946.166666667 991 959.666666667 991 963 c 0
 991 1031 1008.5 1089.5 1043.5 1138.5 c 128
 1078.5 1187.5 1130 1212 1198 1212 c 0
 1303.33333333 1212 1385.33333333 1159 1444 1053 c 0
 1497.33333333 955.666666667 1524 836.666666667 1524 696 c 0
1198 1018 m 1
 1168 1015.33333333 1144.5 1006.5 1127.5 991.5 c 128
 1110.5 976.5 1100.66666667 954.666666667 1098 926 c 1
 1098 894.666666667 1109.16666667 871.5 1131.5 856.5 c 128
 1153.83333333 841.5 1180.66666667 834 1212 834 c 0
 1250 834 1283.5 842.833333333 1312.5 860.5 c 128
 1341.5 878.166666667 1356 902 1356 932 c 0
 1356 967.333333333 1330.66666667 992.666666667 1280 1008 c 1
 1263.33333333 1010.66666667 1236 1014 1198 1018 c 1
414 1059 m 1
 355.333333333 1059 309.5 1047.66666667 276.5 1025 c 128
 243.5 1002.33333333 227 978.666666667 227 954 c 0
 227 918.666666667 237.333333333 888.666666667 258 864 c 0
 288 830 332.333333333 813 391 813 c 0
 431.666666667 813 464 826.666666667 488 854 c 128
 512 881.333333333 524 912.666666667 524 948 c 256
 524 983.333333333 516.666666667 1010.33333333 502 1029 c 128
 487.333333333 1047.66666667 458 1057.66666667 414 1059 c 1
EndSplineSet
EndChar

